<svg xmlns="http://www.w3.org/2000/svg" xmlns:xlink="http://www.w3.org/1999/xlink" viewBox="0 0 64 64"><defs><style>.cls-1{fill:url(#linear-gradient);}.cls-2{fill:url(#linear-gradient-3);}.cls-3{fill:url(#linear-gradient-5);}.cls-4{fill:#b4cde1;}.cls-5{fill:url(#linear-gradient-6);}.cls-6{fill:#eb7f58;}.cls-7{fill:#e0633d;}</style><linearGradient id="linear-gradient" x1="5" y1="39.5" x2="32" y2="39.5" gradientUnits="userSpaceOnUse"><stop offset="0" stop-color="#d3e6f5"/><stop offset="1" stop-color="#f0f7fc"/></linearGradient><linearGradient id="linear-gradient-3" x1="32" x2="59" xlink:href="#linear-gradient"/><linearGradient id="linear-gradient-5" x1="32" y1="55" x2="32" y2="46" gradientUnits="userSpaceOnUse"><stop offset="0" stop-color="#54a5ff"/><stop offset="1" stop-color="#8ad3fe"/></linearGradient><linearGradient id="linear-gradient-6" x1="44.99" y1="33.99" x2="44.99" y2="9" gradientUnits="userSpaceOnUse"><stop offset="0" stop-color="#fe9661"/><stop offset="1" stop-color="#ffb369"/></linearGradient></defs><title>History</title><g id="History"><path class="cls-1" d="M32,33V49a10.25,10.25,0,0,0-7.24-3H5l6.2-9.92c.15-.25,3.34.25,7.93-3A16.47,16.47,0,0,1,29,30,3,3,0,0,1,32,33Z"/><path class="cls-1" d="M32,33V49a10.25,10.25,0,0,0-7.24-3H5l6.2-9.92c.15-.25,3.34.25,7.93-3A16.47,16.47,0,0,1,29,30,3,3,0,0,1,32,33Z"/><path class="cls-2" d="M59,46H39.24A10.25,10.25,0,0,0,32,49V33a3,3,0,0,1,3-3,15.31,15.31,0,0,1,4.49.55,6,6,0,0,0,6.62,3.35A13.93,13.93,0,0,0,52.75,36Z"/><path class="cls-2" d="M59,46H39.24A10.25,10.25,0,0,0,32,49V33a3,3,0,0,1,3-3,15.31,15.31,0,0,1,4.49.55,6,6,0,0,0,6.62,3.35A13.93,13.93,0,0,0,52.75,36Z"/><path class="cls-3" d="M61,48v1a2,2,0,0,1-2,2c-15,0-19.6-.81-24.5,3.12a4,4,0,0,1-5,0C24.56,50.16,19.86,51,5,51a2,2,0,0,1-2-2V48a2,2,0,0,1,2-2H24.76A10.25,10.25,0,0,1,32,49a10.25,10.25,0,0,1,7.24-3H59A2,2,0,0,1,61,48Z"/><path class="cls-4" d="M52.15,46H39.24A10.25,10.25,0,0,0,32,49V43a3,3,0,0,1,3-3C44.19,40,44.24,44.94,52.15,46Z"/><path class="cls-4" d="M32,43v6a10.25,10.25,0,0,0-7.24-3H11.85c8-1.06,7.9-6,17.15-6A3,3,0,0,1,32,43Z"/><path class="cls-5" d="M51,20.76v7.59c0,6.2-9.22,7.94-11.63,1.91-.53-1.32-.37-1.77-.37-9.5A14.78,14.78,0,0,1,45,9,14.8,14.8,0,0,1,51,20.76Z"/><path class="cls-6" d="M51,21v2.12l-2.35,1.16a1,1,0,0,1-.89-1.8C50.77,21,50.68,21,51,21Z"/><path class="cls-6" d="M41.81,27.3,39,26.09V24c.28,0,.14,0,3.6,1.46A1,1,0,0,1,41.81,27.3Z"/><path class="cls-7" d="M44,39V17a1,1,0,0,1,2,0V39A1,1,0,0,1,44,39Z"/></g></svg>