<?xml version="1.0" encoding="UTF-8"?>
<!DOCTYPE svg PUBLIC "-//W3C//DTD SVG 1.1//EN" "http://www.w3.org/Graphics/SVG/1.1/DTD/svg11.dtd">
<!-- Creator: CorelDRAW -->
<svg xmlns="http://www.w3.org/2000/svg" xml:space="preserve" width="2048px" height="2048px" style="shape-rendering:geometricPrecision; text-rendering:geometricPrecision; image-rendering:optimizeQuality; fill-rule:evenodd; clip-rule:evenodd"
viewBox="0 0 2048 2048"
 xmlns:xlink="http://www.w3.org/1999/xlink">
 <defs>
  <style type="text/css">
   <![CDATA[
    .fil2 {fill:none}
    .fil5 {fill:#01579B}
    .fil8 {fill:#034A80}
    .fil9 {fill:#044E87}
    .fil6 {fill:#084675}
    .fil7 {fill:#0D6BB3}
    .fil10 {fill:#0F68AB}
    .fil11 {fill:#1472BA}
    .fil4 {fill:#424242}
    .fil17 {fill:#558B2F}
    .fil13 {fill:#7CB294}
    .fil14 {fill:#86BA9E}
    .fil12 {fill:#CCCCCC}
    .fil1 {fill:#E64A19}
    .fil15 {fill:#E6E6E6}
    .fil0 {fill:#FF5722}
    .fil16 {fill:#FFC107}
    .fil3 {fill:#424242;fill-rule:nonzero}
   ]]>
  </style>
   <clipPath id="id0">
    <path d="M1024 -0.0011811c565.541,0 1024,458.461 1024,1024 0,565.541 -458.461,1024 -1024,1024 -565.541,0 -1024,-458.461 -1024,-1024 0,-565.541 458.461,-1024 1024,-1024z"/>
   </clipPath>
 </defs>
 <g id="Layer_x0020_1">
  <metadata id="CorelCorpID_0Corel-Layer"/>
  <path class="fil0" d="M1024 -0.0011811c565.541,0 1024,458.461 1024,1024 0,565.541 -458.461,1024 -1024,1024 -565.541,0 -1024,-458.461 -1024,-1024 0,-565.541 458.461,-1024 1024,-1024z"/>
  <g style="clip-path:url(#id0)">
   <g id="_452518160">
    <path id="_4525089921" class="fil1" d="M1446.44 614.041l9.9378 9.9378 0 172.074 -552.582 0 -23.5051 0 -132.096 -132.096c-0.491339,-0.493701 -0.98504,-0.983859 -1.48347,-1.46811 -0.498426,-0.484252 -0.999213,-0.964961 -1.50473,-1.44095 -0.505512,-0.475985 -1.01339,-0.944883 -1.52599,-1.41142 -0.512599,-0.466536 -1.02756,-0.927166 -1.54606,-1.38425 -0.518504,-0.457087 -1.04173,-0.908268 -1.56732,-1.35591 -0.525591,-0.447638 -1.05473,-0.889371 -1.58622,-1.32756 -0.532678,-0.437008 -1.06772,-0.870473 -1.6063,-1.29803 -0.538583,-0.427559 -1.08189,-0.850394 -1.62638,-1.2685 -0.54567,-0.418111 -1.09252,-0.831497 -1.6441,-1.24016 -0.551575,-0.408662 -1.10669,-0.81378 -1.66417,-1.21181 -0.557481,-0.399213 -1.11732,-0.79252 -1.68071,-1.1811 -0.563386,-0.388583 -1.13032,-0.772442 -1.69961,-1.15158 -0.569292,-0.379134 -1.14095,-0.751182 -1.71614,-1.12087 -0.575197,-0.368504 -1.15276,-0.733465 -1.73386,-1.09252 -0.581103,-0.359055 -1.16457,-0.712205 -1.7504,-1.06063 -0.585827,-0.348425 -1.1752,-0.692127 -1.76693,-1.0311 -0.591733,-0.338977 -1.18583,-0.672048 -1.78347,-1.00039 -0.596457,-0.328347 -1.19528,-0.650788 -1.79764,-0.968505 -0.602363,-0.317717 -1.20709,-0.630709 -1.81417,-0.938977 -0.607087,-0.307087 -1.21654,-0.61063 -1.82835,-0.907087 -0.611811,-0.297638 -1.22717,-0.589371 -1.8437,-0.876379 -0.616536,-0.287008 -1.23425,-0.568111 -1.85669,-0.844489 -0.62126,-0.276378 -1.24606,-0.54567 -1.87205,-0.811418 -0.625985,-0.265748 -1.25315,-0.525591 -1.88386,-0.780709 -0.630709,-0.255118 -1.2626,-0.504331 -1.89803,-0.748819 -0.634252,-0.244488 -1.27205,-0.484252 -1.91103,-0.71693 -0.638977,-0.233858 -1.27795,-0.46063 -1.92166,-0.682678 -0.64252,-0.222047 -1.2874,-0.440552 -1.93465,-0.651969 -0.647245,-0.211417 -1.29567,-0.416929 -1.94646,-0.617717 -0.650788,-0.200788 -1.30394,-0.396851 -1.95827,-0.585827 -0.654331,-0.188977 -1.30984,-0.373229 -1.96772,-0.551575 -0.657875,-0.178347 -1.31811,-0.350788 -1.97953,-0.518504 -0.472441,-0.140551 -0.946064,-0.276378 -1.42087,-0.408662 -0.474804,-0.132284 -0.949607,-0.262205 -1.42441,-0.386221 -0.475985,-0.124016 -0.951969,-0.245669 -1.42913,-0.361418 -0.477166,-0.116929 -0.955513,-0.229134 -1.43386,-0.337796 -0.478347,-0.108662 -0.957875,-0.211417 -1.4374,-0.311811 -0.479528,-0.100394 -0.960237,-0.196063 -1.44095,-0.288189 -0.480709,-0.0921261 -0.962599,-0.179528 -1.44449,-0.262205 -0.48189,-0.0826772 -0.964961,-0.161811 -1.44803,-0.236221 -0.483071,-0.0744095 -0.966142,-0.144095 -1.45158,-0.210236 -0.484252,-0.0661418 -0.969686,-0.126378 -1.45512,-0.183071 -0.485433,-0.056693 -0.972048,-0.109843 -1.45866,-0.157087 -0.486615,-0.0472441 -0.973229,-0.090945 -1.46102,-0.12874 -0.487796,-0.0377953 -0.975591,-0.0720473 -1.46457,-0.100394 -0.488977,-0.0295276 -0.976772,-0.0519685 -1.46693,-0.0720473 -0.488977,-0.0188977 -0.977954,-0.0354331 -1.46929,-0.0448819 -0.490158,-0.0106299 -0.981497,-0.0141732 -1.47284,-0.0141732l-0.205512 0 -0.0933072 -0.00472441 -0.0933072 -0.00472441 -0.0944883 -0.00472441 -0.0933072 -0.00354331 -0.0933072 -0.00472441 -0.0944883 -0.00472441 -0.0933072 -0.00354331 -0.0933072 -0.00472441 -0.0933072 -0.00354331 -0.0944883 -0.00354331 -0.0933072 -0.00472441 -0.0933072 -0.00354331 -0.0944883 -0.00354331 -0.0933072 -0.00354331 -0.0944883 -0.00354331 -0.0933072 -0.00354331 -0.0933072 -0.00354331 -0.0944883 -0.00354331 -0.0933072 -0.00354331 -0.0944883 -0.00354331 -0.0933072 -0.00236221 -0.0944883 -0.00354331 -0.0933072 -0.00354331 -0.0944883 -0.00236221 -0.0933072 -0.00354331 -0.0944883 -0.00236221 -0.0933072 -0.00236221 -0.0944883 -0.00354331 -0.0933072 -0.00236221 -0.0944883 -0.00236221 -0.0933072 -0.00236221 -0.0944883 -0.00236221 -0.0933072 -0.00236221 -0.0944883 -0.00236221 -0.0944883 -0.00236221 -0.0933072 -0.0011811 -0.0944883 -0.00236221 -0.0933072 -0.00236221 -0.0944883 -0.0011811 -0.0944883 -0.00236221 -0.0933072 -0.0011811 -0.0944883 -0.00236221 -0.0944883 -0.0011811 -0.0933072 -0.0011811 -0.0944883 -0.00236221 -0.0944883 -0.0011811 -0.0933072 -0.0011811 -0.0944883 -0.0011811 -0.0944883 -0.0011811 -0.0944883 -0.0011811 -0.0933072 -0.0011811 -0.0944883 0 -0.0944883 -0.0011811 -0.0944883 -0.0011811 -0.0933072 0 -0.0944883 -0.0011811 -0.0944883 0 -0.0944883 -0.0011811 -0.0944883 0 -0.0944883 0 -0.0933072 -0.0011811 -0.0944883 0 -0.0944883 0 -0.0944883 0 -9.72757 0 -0.754725 0 -10.4835 0c-1.01102,0 -2.01969,0.0129921 -3.02717,0.0377953 -1.00748,0.0248032 -2.0126,0.0625985 -3.01654,0.113386 -1.00276,0.0507874 -2.00433,0.113386 -3.00355,0.188977 -0.999213,0.0755906 -1.99606,0.162992 -2.98937,0.262205 -0.994489,0.100394 -1.98543,0.212599 -2.9752,0.336614 -0.988583,0.124016 -1.97599,0.262205 -2.95866,0.411024 -0.983859,0.148819 -1.96417,0.308268 -2.94213,0.48189 -0.977954,0.172441 -1.95354,0.357874 -2.92441,0.555119 -0.972048,0.197244 -1.93937,0.407481 -2.90433,0.627166 -0.964961,0.220866 -1.92638,0.452363 -2.88425,0.696851 -0.957875,0.244488 -1.91339,0.500788 -2.86418,0.767717 -0.950788,0.26811 -1.89803,0.548032 -2.84055,0.838583 -0.94252,0.290551 -1.88032,0.592914 -2.81575,0.907087 -0.935434,0.314173 -1.86614,0.640158 -2.79213,0.976772 -0.925985,0.336614 -1.84961,0.68504 -2.76732,1.0441 -0.917717,0.359055 -1.83071,0.728741 -2.73898,1.11142 -0.908268,0.381496 -1.81181,0.775985 -2.71063,1.17992 -0.89882,0.403937 -1.79291,0.819686 -2.68229,1.24606 -0.889371,0.426378 -1.77284,0.863386 -2.65158,1.31102 -0.878741,0.447638 -1.75394,0.907087 -2.62087,1.37717 -0.868111,0.470079 -1.73032,0.950788 -2.5878,1.44213 -0.857481,0.491339 -1.70788,0.994489 -2.55355,1.50709 -0.84567,0.512599 -1.68543,1.03583 -2.51929,1.56969 -0.833859,0.533859 -1.66181,1.07835 -2.48386,1.63347 -0.822048,0.555119 -1.63701,1.11969 -2.44606,1.69606 -0.809056,0.575197 -1.61339,1.16221 -2.40945,1.75866 -0.796064,0.596457 -1.58622,1.20354 -2.36929,1.82008 -0.783071,0.616536 -1.55788,1.2437 -2.32795,1.88032 -0.768898,0.636615 -1.53307,1.28504 -2.2878,1.94173 -0.755906,0.656693 -1.50354,1.32402 -2.24528,2.00079 -0.740552,0.676772 -1.4752,1.36299 -2.20158,2.05984 -0.726379,0.69567 -1.44449,1.40197 -2.15669,2.1189 -0.715749,0.720473 -1.42205,1.44921 -2.11772,2.18504 -0.69567,0.735827 -1.38189,1.47756 -2.05866,2.22874 -0.675591,0.750001 -1.34055,1.50827 -1.99725,2.27362 -0.655512,0.765355 -1.30276,1.53662 -1.93819,2.31614 -0.635434,0.778347 -1.26142,1.56496 -1.87677,2.35748 -0.615355,0.79252 -1.2189,1.59213 -1.81417,2.39764 -0.594095,0.805512 -1.17874,1.61811 -1.75276,2.43662 -0.574016,0.818505 -1.1374,1.64528 -1.69016,2.47559 -0.552756,0.831497 -1.09606,1.66772 -1.62756,2.51103 -0.531496,0.843308 -1.05118,1.69252 -1.5626,2.54764 -0.510237,0.855119 -1.01102,1.71614 -1.5,2.58189 -0.488977,0.865749 -0.966142,1.73977 -1.43386,2.61614 -0.467717,0.87756 -0.923623,1.75984 -1.37008,2.64803 -0.445276,0.88819 -0.879922,1.7811 -1.30394,2.67874 -0.424016,0.897638 -0.836221,1.80236 -1.2378,2.70945 -0.401575,0.908268 -0.791339,1.82008 -1.17165,2.7378 -0.379134,0.917717 -0.747638,1.84016 -1.10433,2.76614 -0.356693,0.925985 -0.701575,1.85669 -1.03583,2.79213 -0.334252,0.935434 -0.656693,1.87441 -0.968505,2.81693 -0.311811,0.943702 -0.61063,1.89095 -0.900001,2.84173 -0.288189,0.950788 -0.564567,1.90748 -0.830316,2.86536 -0.265748,0.959056 -0.519685,1.92047 -0.761812,2.88662 -0.242126,0.966142 -0.472441,1.93465 -0.690945,2.90788 -0.218504,0.972048 -0.425197,1.95 -0.620079,2.92796 -0.194882,0.979135 -0.377953,1.96063 -0.549213,2.94567 -0.17126,0.98504 -0.330709,1.97244 -0.477166,2.96339 -0.147638,0.990946 -0.283465,1.98425 -0.4063,2.97992 -0.122835,0.99567 -0.233858,1.99488 -0.333071,2.99528 -0.0992127,1.00039 -0.185433,2.00315 -0.259843,3.00827 -0.0744095,1.00512 -0.135827,2.0126 -0.185433,3.02126 -0.0496063,1.00866 -0.0874016,2.01969 -0.112205,3.03307 -0.0248032,1.01221 -0.0377953,2.02677 -0.0377953,3.0437l0 45.5989 -19.7693 0c-0.89882,0 -1.79173,0.022441 -2.67992,0.068504 -0.88819,0.0448819 -1.76929,0.113386 -2.64567,0.201969 -0.875198,0.0897638 -1.74449,0.200788 -2.60669,0.333071 -0.862205,0.132284 -1.71969,0.285827 -2.56772,0.46063 -0.848032,0.174803 -1.68898,0.369685 -2.52166,0.584646 -0.832678,0.214961 -1.65827,0.45 -2.47441,0.705119 -0.816142,0.255118 -1.62402,0.529134 -2.42362,0.823229 -0.798426,0.292914 -1.58858,0.605906 -2.36929,0.936615 -0.780709,0.330709 -1.55079,0.680315 -2.31142,1.04764 -0.760631,0.367323 -1.51063,0.752363 -2.25,1.15512 -0.739371,0.402756 -1.46693,0.822048 -2.18504,1.25906 -0.71693,0.437008 -1.42323,0.889371 -2.11772,1.35945 -0.694489,0.468898 -1.37717,0.955513 -2.04685,1.4563 -0.669686,0.501969 -1.32756,1.01929 -1.97244,1.55079 -0.644882,0.532678 -1.27677,1.07953 -1.89449,1.64173 -0.618898,0.561024 -1.22244,1.13858 -1.81299,1.72914 -0.587008,0.587008 -1.15984,1.18819 -1.71851,1.80236 -0.558662,0.615355 -1.10197,1.2437 -1.6311,1.88504 -0.529134,0.641339 -1.04291,1.29803 -1.54134,1.96536 -0.498426,0.667323 -0.981497,1.34646 -1.44803,2.03977 -0.466536,0.692127 -0.917717,1.39725 -1.35118,2.11299 -0.433465,0.715749 -0.852757,1.44331 -1.25197,2.1815 -0.400394,0.73819 -0.78189,1.48937 -1.14685,2.24882 -0.364961,0.759449 -0.713386,1.53071 -1.04173,2.31024 -0.328347,0.780709 -0.638977,1.57087 -0.930709,2.36929 -0.291733,0.799607 -0.565748,1.60748 -0.818505,2.42481 -0.252756,0.817323 -0.485433,1.64291 -0.700394,2.47795 -0.21378,0.833859 -0.408662,1.67717 -0.582284,2.52756 -0.173622,0.850394 -0.325985,1.70906 -0.457087,2.57362 -0.131102,0.864568 -0.243307,1.73622 -0.33189,2.61496 -0.0885827,0.87756 -0.155906,1.76457 -0.200788,2.65512 -0.0448819,0.891733 -0.0673229,1.78701 -0.068504,2.69055l-0.0885827 614.049 -0.144095 0 0 3.83268 0.211417 0.211417c0.0377953,0.765355 0.0933072,1.52717 0.165354,2.28307 0.0779528,0.826772 0.175984,1.64764 0.291733,2.4626 0.115748,0.814961 0.251575,1.62402 0.405118,2.42599 0.153543,0.801969 0.325985,1.59803 0.516142,2.38819 0.190158,0.788977 0.398032,1.57087 0.624804,2.34567 0.225591,0.774804 0.467717,1.54252 0.728741,2.30197 0.259843,0.759449 0.538583,1.51181 0.832678,2.25473 0.294095,0.742914 0.604725,1.47874 0.93189,2.20512 0.327166,0.726379 0.669686,1.44567 1.02756,2.15315 0.359055,0.708662 0.734646,1.40669 1.12323,2.09646 0.389764,0.689764 0.793701,1.37008 1.21417,2.03977 0.419292,0.669686 0.852757,1.32874 1.30158,1.97717 0.447638,0.648426 0.911812,1.2874 1.3878,1.91457 0.477166,0.627166 0.968505,1.2437 1.47165,1.84843 0.50315,0.603544 1.02165,1.19646 1.55079,1.77756 0.530315,0.581103 1.07126,1.14921 1.62756,1.70669l-0.0472441 0.0472441 1135.88 1135.88 1.80236 1.71732 1.88504 1.63228 1.96536 1.54016 2.03977 1.44803 2.11299 1.35118 2.1815 1.25197 2.24764 1.14803 2.31024 1.04055 2.36929 0.93189 2.42481 0.817323 2.47795 0.701575 2.52638 0.581103 2.57244 0.458268 2.61496 0.330709 2.65512 0.200788 2.5937 0.0661418 0.0956694 0.0956694 1047.34 0 2.67874 -0.068504 2.64567 -0.201969 2.60669 -0.333071 2.56654 -0.46063 2.52166 -0.584646 2.47441 -0.7063 2.42362 -0.822048 2.36811 -0.937796 2.31142 -1.04764 2.25 -1.15512 2.18622 -1.25906 2.11772 -1.35945 2.04685 -1.4563 1.97244 -1.55197 1.89449 -1.64055 1.81299 -1.72914 1.62284 -1.69843 1.54606 -1.77284 1.46693 -1.84252 1.38307 -1.91103 1.29803 -1.97599 1.21063 -2.03858 1.11969 -2.09764 1.0252 -2.15433 0.929528 -2.20984 0.829134 -2.25945 0.72756 -2.30788 0.622441 -2.35394 0.514961 -2.39764 0.405118 -2.43662 0.290551 -2.47323 0.174803 -2.50866 0.381496 0 0 -3.83268 -0.325985 -0.325985 0.0885827 -613.723 0.0944883 0 -0.068504 -2.67874 -0.201969 -2.64449 -0.333071 -2.60788 -0.46063 -2.56536 -0.584646 -2.52166 -0.705119 -2.47441 -0.823229 -2.42362 -0.936615 -2.36811 -1.04764 -2.31142 -1.15512 -2.25 -1.25906 -2.18504 -1.35945 -2.11772 -1.4563 -2.04685 -1.55079 -1.97244 -1.64173 -1.89449 -1.72914 -1.81299 -80.1816 -80.1816 0 -109.512 1.35118 -0.811418 1.32284 -0.855119 1.29213 -0.896457 1.26024 -0.936615 1.22835 -0.976772 1.19528 -1.01575 1.16102 -1.05354 1.12677 -1.09016 1.58977 -1.66654 1.50827 -1.74095 1.42441 -1.81299 1.33819 -1.8815 1.24843 -1.94764 1.15512 -2.00906 1.06063 -2.06929 0.960237 -2.12599 0.859843 -2.17914 0.753544 -2.22992 0.647245 -2.27717 0.536221 -2.32205 0.421654 -2.36339 0.304725 -2.40118 0.185433 -2.43662 0.0625985 -2.46969 -0.0625985 -2.46969 -0.185433 -2.4378 -0.304725 -2.40118 -0.421654 -2.36339 -0.536221 -2.32205 -0.647245 -2.27717 -0.753544 -2.22992 -0.859843 -2.17914 -0.960237 -2.12599 -1.06063 -2.06811 -1.15512 -2.01024 -1.24843 -1.94646 -1.33819 -1.8815 -1.42441 -1.81299 -1.50827 -1.74095 -1.58977 -1.66654 -1135.78 -1135.78 -0.101575 -0.101575c-0.542126,-0.543308 -1.09843,-1.07244 -1.66654,-1.58858 -0.568111,-0.516142 -1.14921,-1.01929 -1.74095,-1.50827 -0.592914,-0.488977 -1.19646,-0.964961 -1.81299,-1.42559 -0.615355,-0.46063 -1.24252,-0.907087 -1.8815,-1.33819 -0.637796,-0.431103 -1.2874,-0.846851 -1.94646,-1.24725 -0.659056,-0.400394 -1.3311,-0.787796 -2.01024,-1.1563 -0.680315,-0.369685 -1.3689,-0.722835 -2.06811,-1.05945 -0.699213,-0.336614 -1.40788,-0.657875 -2.12599,-0.961418 -0.71693,-0.303544 -1.44449,-0.590552 -2.17914,-0.858662 -0.734646,-0.269292 -1.47874,-0.520867 -2.22992,-0.754725 -0.751182,-0.233858 -1.51063,-0.45 -2.27717,-0.647245 -0.766536,-0.197244 -1.54134,-0.375591 -2.32205,-0.53504 -0.780709,-0.159449 -1.56851,-0.301181 -2.36339,-0.422835 -0.793701,-0.121654 -1.59449,-0.222047 -2.40118,-0.304725 -0.806694,-0.0814961 -1.61929,-0.142913 -2.4378,-0.185433 -0.817323,-0.0413386 -1.64055,-0.0625985 -2.46969,-0.0625985 -0.827953,0 -1.65118,0.0212599 -2.46969,0.0625985 -0.817323,0.0413386 -1.62992,0.102756 -2.43662,0.185433 -0.806694,0.0814961 -1.60748,0.183071 -2.40118,0.304725 -0.793701,0.121654 -1.58268,0.263386 -2.36339,0.422835 -0.780709,0.159449 -1.55315,0.337796 -2.32087,0.53504 -0.766536,0.197244 -1.52717,0.413386 -2.27835,0.647245 -0.751182,0.233858 -1.49291,0.485433 -2.22874,0.754725 -0.734646,0.269292 -1.46221,0.555119 -2.18032,0.858662 -0.71693,0.303544 -1.42559,0.623623 -2.1248,0.961418 -0.699213,0.336614 -1.38898,0.690945 -2.06929,1.05945 -0.680315,0.369685 -1.35118,0.754725 -2.01024,1.1563 -0.660237,0.400394 -1.30748,0.816142 -1.94646,1.24725 -0.637796,0.431103 -1.26496,0.87756 -1.8815,1.33819 -0.615355,0.46063 -1.22008,0.936615 -1.81299,1.42559 -0.591733,0.488977 -1.17284,0.992127 -1.74095,1.50827 -0.568111,0.516142 -1.12323,1.04528 -1.66654,1.58858 -0.543308,0.542126 -1.07244,1.09843 -1.58977,1.66654 -0.516142,0.568111 -1.01929,1.14921 -1.50827,1.74095 -0.488977,0.592914 -0.96378,1.19646 -1.42441,1.81299 -0.46063,0.615355 -0.907087,1.24252 -1.33819,1.8815 -0.431103,0.637796 -0.848032,1.2874 -1.24843,1.94646 -0.400394,0.659056 -0.786615,1.3311 -1.1563,2.01024 -0.369685,0.680315 -0.722835,1.3689 -1.05945,2.06811 -0.336614,0.699213 -0.657875,1.40788 -0.961418,2.12599 -0.303544,0.71693 -0.590552,1.44449 -0.858662,2.17914 -0.269292,0.734646 -0.520867,1.47874 -0.754725,2.22992 -0.233858,0.751182 -0.45,1.51063 -0.647245,2.27717 -0.197244,0.766536 -0.375591,1.54134 -0.53504,2.32205 -0.159449,0.780709 -0.301181,1.56851 -0.422835,2.36339 -0.121654,0.793701 -0.222047,1.59449 -0.304725,2.40118 -0.0814961,0.806694 -0.142913,1.61929 -0.185433,2.4378 -0.0413386,0.817323 -0.0625985,1.64055 -0.0625985,2.46969 0,0.827953 0.0212599,1.65118 0.0625985,2.46969 0.0413386,0.817323 0.102756,1.62992 0.185433,2.43662 0.0814961,0.806694 0.184252,1.60748 0.304725,2.40118 0.121654,0.794883 0.263386,1.58268 0.422835,2.36339 0.159449,0.780709 0.337796,1.55551 0.53504,2.32205 0.197244,0.766536 0.413386,1.52599 0.647245,2.27717 0.233858,0.751182 0.485433,1.49528 0.754725,2.22992 0.269292,0.734646 0.555119,1.46221 0.858662,2.17914 0.303544,0.718111 0.623623,1.42677 0.961418,2.12599 0.336614,0.699213 0.689764,1.38898 1.05945,2.06929 0.369685,0.680315 0.755906,1.34882 1.1563,2.00906 0.400394,0.659056 0.817323,1.30984 1.24843,1.94764 0.431103,0.637796 0.87756,1.26614 1.33819,1.8815 0.46063,0.616536 0.934253,1.22008 1.42441,1.81299 0.488977,0.591733 0.992127,1.17284 1.50827,1.74095 0.517323,0.568111 1.04646,1.12323 1.58977,1.66654z"/>
   </g>
  </g>
  <path class="fil2" d="M1024 -0.0011811c565.541,0 1024,458.461 1024,1024 0,565.541 -458.461,1024 -1024,1024 -565.541,0 -1024,-458.461 -1024,-1024 0,-565.541 458.461,-1024 1024,-1024z"/>
  <g id="_465010792">
   <line id="_459049992" class="fil2" x1="1480.37" y1="600.413" x2="1480.37" y2= "816.963" />
   <polygon id="_459047712" class="fil3" points="1504.36,600.413 1504.36,816.963 1456.37,816.963 1456.37,600.413 "/>
   <ellipse id="_459073176" class="fil4" cx="1480.37" cy="580.108" rx="23.9944" ry="23.9942"/>
   <path id="_459055728" class="fil3" d="M1514.3 614.041c-8.68347,8.68465 -20.6799,14.0563 -33.9331,14.0563 -13.2496,0 -25.2496,-5.37166 -33.9319,-14.0563 -8.68583,-8.68347 -14.0575,-20.6823 -14.0575,-33.9331 0,-13.2532 5.37166,-25.2496 14.0575,-33.9331 8.68229,-8.68465 20.6823,-14.0563 33.9319,-14.0563 13.2532,0 25.2496,5.37166 33.9331,14.0563 8.68583,8.68347 14.0563,20.6799 14.0563,33.9331 0,13.2508 -5.37048,25.2496 -14.0563,33.9331z"/>
   <path id="_459065928" class="fil5" d="M1547.67 796.053l0 0.0933072c14.4402,0.0011811 27.4902,5.83465 36.8776,15.2244 9.44765,9.44765 15.313,22.5024 15.313,36.8752l-0.0944883 0 -0.0885827 615.44c0,14.4378 -5.83347,27.489 -15.2221,36.8799 -9.44883,9.44646 -22.5036,15.3142 -36.8776,15.3142l-1047.34 0 0 -0.0933072c-14.4354,-0.0011811 -27.4866,-5.83229 -36.8752,-15.2197l0.0472441 -0.0472441c-9.42166,-9.44174 -15.2693,-22.4764 -15.2681,-36.8339l0.0885827 -615.44c0.00236221,-14.4402 5.83111,-27.4914 15.2209,-36.8799 9.44765,-9.44765 22.5024,-15.313 36.8799,-15.313 167.286,0 286.01,0 1047.33,0z"/>
   <path id="_459069600" class="fil6" d="M1547.67 796.053l0 0.0956694c1.36654,0 2.72244,0.0543308 4.063,0.159449l0 275.129c0,12.6685 -10.1221,23.0327 -22.4941,23.0327l-602.95 0c-12.3721,0 -22.4941,-10.3642 -22.4941,-23.0327l0 -275.384 643.875 0z"/>
   <path id="_459053352" class="fil7" d="M1547.67 796.053l0 0.0933072c1.36654,0 2.72244,0.0531496 4.063,0.155906l0 268.688c0,12.3721 -10.1221,22.4941 -22.4941,22.4941l-602.95 0c-12.3721,0 -22.4941,-10.1221 -22.4941,-22.4941l0 -268.937 643.875 0z"/>
   <path id="_459068688" class="fil8" d="M1599.67 1463.69c0,14.4378 -5.83347,27.489 -15.2221,36.8799 -9.44883,9.44646 -22.5036,15.3142 -36.8776,15.3142l-1047.34 0 0 -0.0933072c-14.4354,-0.0011811 -27.4866,-5.83229 -36.8752,-15.2197l0.0472441 -0.0472441c-9.42166,-9.44174 -15.2693,-22.4764 -15.2681,-36.8339l1151.53 0z"/>
   <path id="_459069960" class="fil9" d="M647.748 628.208c-32.3492,0 -62.9374,21.3449 -85.6985,44.7626 -22.9063,23.5654 -35.8677,55.1693 -35.7272,88.4032l2.20394 520.137c0.140551,33.2327 12.8209,64.8367 35.726,88.4032 22.7622,23.4177 53.3493,36.6886 85.6985,36.6886l20.9658 0c32.3492,0 62.9363,-13.2709 85.6985,-36.6886 22.9051,-23.5666 35.8666,-55.1693 35.726,-88.4032l-2.20276 -520.137c-0.140551,-33.2339 -12.8209,-64.8378 -35.7272,-88.4032 -22.761,-23.4177 -53.3504,-44.7626 -85.6985,-44.7626l-20.9646 0z"/>
   <path id="_459061032" class="fil10" d="M652.01 1389.82l0.129921 0 10.3524 0c32.3492,0 62.9363,-12.985 85.6985,-35.8985 22.9063,-23.0587 35.726,-53.98 35.726,-86.4981l0 -516.968c0,-32.517 -12.8197,-63.4382 -35.726,-86.4969 -22.7622,-22.9134 -53.3493,-35.8996 -85.6985,-35.8996l-9.72757 0 -0.754725 0 0 761.761z"/>
   <path id="_459059352" class="fil11" d="M641.527 628.058c-32.3492,0 -62.9363,12.9862 -85.6985,35.8996 -22.9063,23.0587 -35.726,53.98 -35.726,86.4969l0 516.968c0,32.5181 12.8197,63.4394 35.726,86.4981 22.7622,22.9134 53.3493,35.8985 85.6985,35.8985l10.4835 0 0 -761.761 -10.4835 0z"/>
   <line id="_459074688" class="fil2" x1="448.049" y1="1463.69" x2="448.049" y2= "1463.69" />
   <line id="_459069360" class="fil2" x1="500.244" y1="1515.88" x2="500.244" y2= "1515.88" />
   <polygon id="_459078336" class="fil6" points="1093.32,1353.2 1209.85,1347.92 1212.91,1353.2 1212.91,1425.18 1093.32,1425.18 1090.25,1419.9 "/>
   <polygon id="_459068304" class="fil6" points="1093.37,1239.16 1209.85,1233.93 1212.96,1239.16 1212.91,1311.19 1093.32,1311.19 1090.3,1305.86 "/>
   <polygon id="_459064464" class="fil6" points="1093.32,1125.21 1209.85,1119.94 1212.91,1125.21 1212.91,1197.19 1093.32,1197.19 1090.25,1191.92 "/>
   <polygon id="_459062640" class="fil6" points="1280.23,1353.2 1397.25,1347.92 1400.31,1353.2 1400.31,1425.18 1280.23,1425.18 1277.17,1419.9 "/>
   <polygon id="_459056856" class="fil6" points="1280.23,1239.21 1397.25,1233.93 1400.31,1239.21 1400.31,1311.19 1280.23,1311.19 1277.17,1305.91 "/>
   <polygon id="_459050712" class="fil6" points="1280.23,1125.21 1397.25,1119.94 1400.31,1125.21 1400.31,1197.19 1280.23,1197.19 1277.17,1191.92 "/>
   <polygon id="_459052752" class="fil6" points="906.855,1353.2 1022.94,1347.92 1026,1353.2 1026,1425.18 906.855,1425.18 903.792,1419.9 "/>
   <polygon id="_459056640" class="fil6" points="906.855,1239.21 1022.94,1233.93 1026,1239.21 1026,1311.19 906.855,1311.19 903.792,1305.91 "/>
   <polygon id="_459063264" class="fil6" points="906.855,1125.21 1022.94,1119.94 1026,1125.21 1026,1197.19 906.855,1197.19 903.792,1191.92 "/>
   <polygon id="_459077808" class="fil12" points="1090.25,1347.92 1209.85,1347.92 1209.85,1419.9 1090.25,1419.9 "/>
   <polygon id="_459062784" class="fil12" points="1090.25,1233.93 1209.85,1233.93 1209.85,1305.91 1090.25,1305.91 "/>
   <polygon id="_459072408" class="fil12" points="1090.25,1119.94 1209.85,1119.94 1209.85,1191.92 1090.25,1191.92 "/>
   <polygon id="_464985064" class="fil12" points="1277.17,1347.92 1397.25,1347.92 1397.25,1419.9 1277.17,1419.9 "/>
   <polygon id="_464982184" class="fil12" points="1277.17,1233.93 1397.25,1233.93 1397.25,1305.91 1277.17,1305.91 "/>
   <polygon id="_464981344" class="fil12" points="1277.17,1119.94 1397.25,1119.94 1397.25,1191.92 1277.17,1191.92 "/>
   <polygon id="_464989888" class="fil12" points="903.792,1347.92 1022.94,1347.92 1022.94,1419.9 903.792,1419.9 "/>
   <polygon id="_464993200" class="fil12" points="903.792,1233.93 1022.94,1233.93 1022.94,1305.91 903.792,1305.91 "/>
   <polygon id="_464995936" class="fil12" points="903.792,1119.94 1022.94,1119.94 1022.94,1191.92 903.792,1191.92 "/>
   <polygon id="_464984824" class="fil6" points="976.011,884.814 1479.89,884.814 1503.88,884.815 1503.88,908.172 1503.88,1024.25 1503.88,1047.61 1479.89,1047.61 976.011,1047.61 952.015,1047.61 952.015,1024.25 952.015,908.172 952.015,884.815 "/>
   <polygon id="_465000088" class="fil13" points="964.012,895.757 964.012,1047.61 1491.88,1047.61 1491.88,895.757 1479.89,895.756 "/>
   <polygon id="_465010048" class="fil14" points="1407.42,1047.61 1407.6,1047.61 1491.88,1047.61 1491.88,895.757 1479.89,895.756 1049.18,895.757 1048.49,895.757 "/>
   <polygon id="_464980480" class="fil13" points="964.012,895.757 964.012,1047.61 1407.42,1047.61 1048.49,895.757 "/>
   <rect id="_464999416" class="fil15" x="448" y="1462.29" width="1152" height="3.83256"/>
   <ellipse id="_465010240" class="fil6" cx="1485.4" cy="1164.34" rx="18.3419" ry="18.3671"/>
   <ellipse id="_464987776" class="fil6" cx="1485.4" cy="1225.45" rx="18.3419" ry="18.3671"/>
   <ellipse id="_464997832" class="fil6" cx="1485.4" cy="1286.97" rx="18.3419" ry="18.3671"/>
   <circle id="_464993392" class="fil12" cx="1485.4" cy="1161.58" r="18.3419"/>
   <circle id="_464999056" class="fil12" cx="1485.4" cy="1222.26" r="18.3419"/>
   <circle id="_465004648" class="fil16" cx="1485.4" cy="1282.94" r="18.3419"/>
   <circle id="_465009136" class="fil6" cx="1485.4" cy="1381.86" r="42.3357"/>
   <circle id="_465007696" class="fil17" cx="1485.4" cy="1377.57" r="42.3357"/>
   <path id="_465007552" class="fil15" d="M1506.44 1370.16c4.01575,1.63465 7.32638,4.11024 8.57245,7.77638l0.00236221 0.00826772 0.0011811 0 0.0177165 0.0543308 0.284646 0.838583 -0.0318898 0.0177165c0.0413386,0.157087 0.080315,0.311811 0.113386,0.464174 0.100394,0.442914 0.165354,0.853938 0.196063,1.22953 0.0779528,0.970867 -0.357874,2.23229 -0.979135,3.30591 -0.655512,1.13386 -1.57441,2.13425 -2.36693,2.43662 -0.185433,0.080315 -0.412205,0.116929 -0.682678,0.108662 -0.174803,-0.00590552 -0.368504,-0.0248032 -0.582284,-0.0578741 -1.57795,-0.245669 -3.60591,-0.755906 -5.54056,-1.24252 -1.16102,-0.291733 -2.28662,-0.574016 -3.27874,-0.787796l0 0c-0.103937,-0.022441 -0.200788,-0.0448819 -0.291733,-0.068504 -0.108662,-0.0271654 -0.201969,-0.0519685 -0.277559,-0.0755906 -0.0933072,-0.0283465 -0.18189,-0.0590552 -0.263386,-0.0921261 -0.0933072,-0.0377953 -0.179528,-0.0779528 -0.255118,-0.11811 -0.522048,-0.275197 -0.811418,-0.662599 -0.97441,-1.13504 -0.127559,-0.36378 -0.151181,-0.718111 -0.161811,-1.10079 -0.0200788,-0.688583 0.0755906,-1.46339 0.173622,-2.25 0.122835,-0.999213 0.249213,-2.01969 0.0944883,-2.59252 -0.0153543,-0.0590552 -0.0318898,-0.102756 -0.0496063,-0.133465l-0.00944883 -0.0165354c-0.405118,-0.35315 -1.82717,-0.712205 -3.51851,-1.02047 -2.5689,-0.468898 -9.81969,-0.751182 -11.1638,-0.755906l-0.0507874 0 -0.0484252 0 -0.0271654 0 -0.00826772 0 -0.0259843 0 -0.0484252 0 -0.0519685 0c-1.3441,0.00472441 -8.4756,0.287008 -11.0445,0.755906 -1.69016,0.308268 -3.11221,0.667323 -3.51851,1.02047l-0.00944883 0.0165354c-0.0165354,0.0307087 -0.034252,0.0744095 -0.0496063,0.133465 -0.154725,0.572835 -0.0283465,1.59331 0.0956694,2.59252 0.0968505,0.786615 0.19252,1.56142 0.172441,2.25 -0.0106299,0.382677 -0.034252,0.737008 -0.16063,1.10079 -0.164173,0.472441 -0.452363,0.859843 -0.97441,1.13504 -0.0767717,0.0401575 -0.161811,0.080315 -0.256299,0.11811 -0.0814961,0.0330709 -0.168898,0.0637796 -0.263386,0.0921261 -0.0755906,0.0236221 -0.167717,0.0484252 -0.276378,0.0755906 -0.090945,0.0236221 -0.188977,0.046063 -0.291733,0.068504l0 0c-0.993308,0.21378 -2.1189,0.496063 -3.27874,0.787796 -1.93465,0.486615 -3.96378,0.996851 -5.54174,1.24252 -0.212599,0.0330709 -0.407481,0.0519685 -0.582284,0.0578741 -0.269292,0.00826772 -0.497244,-0.0283465 -0.681497,-0.108662 -0.79252,-0.302362 -1.7126,-1.30276 -2.36811,-2.43662 -0.62126,-1.07362 -1.05709,-2.33504 -0.979135,-3.30591 0.0307087,-0.375591 0.0956694,-0.786615 0.196063,-1.22953 0.034252,-0.152362 0.0720473,-0.307087 0.113386,-0.464174l-0.0318898 -0.0177165 0.285827 -0.838583 0.0177165 -0.0543308 0 0 0.00354331 -0.00826772c1.24606,-3.66614 4.55552,-6.14174 8.57127,-7.77638 5.49685,-2.23701 16.4788,-2.90788 20.9492,-2.89134l0.00472441 0 0.0295276 0 0.0295276 0 0.00472441 0c4.47048,-0.0165354 15.5705,0.654331 21.0673,2.89134z"/>
  </g>
 </g>
</svg>
