<svg width="106" height="92" viewBox="0 0 106 92" fill="none" xmlns="http://www.w3.org/2000/svg">
<g clip-path="url(#clip0_3_2)">
<path d="M97.5928 27.6928C97.5928 38.4913 82.8493 49.0476 70.0409 54.7309C57.2326 49.0474 42.4889 38.4913 42.4889 27.6928C42.4889 19.0541 49.3414 12.0513 57.7947 12.0513C64.2003 12.0513 69.4575 17.0781 69.9945 23.4812C70.0249 23.8383 70.0407 24.2002 70.0407 24.5651C70.0407 17.6543 75.5227 12.0511 82.2853 12.0511C83.9482 12.0511 85.5502 12.3221 87.0489 12.8238C93.1705 14.8701 97.5928 20.753 97.5928 27.6928Z" fill="#F97177"/>
<path d="M70.0409 54.7309C57.2326 49.0474 42.4889 38.4913 42.4889 27.6928C42.4889 19.7705 48.2514 13.2247 55.7271 12.1925C52.2428 14.9585 49.8772 20.3421 49.8772 26.5298C49.8774 37.7921 60.6669 48.803 70.0409 54.7309Z" fill="#E54253"/>
<path d="M87.0494 12.8238H87.0455C76.4001 12.8238 70.0411 24.5651 70.0411 24.5651C70.0411 17.6543 75.5231 12.0511 82.2858 12.0511C83.9485 12.0511 85.5505 12.3221 87.0494 12.8238Z" fill="#E54253"/>
<path d="M101.274 59.4848L72.2541 75.4029C69.3358 77.0041 65.8525 77.6379 62.4414 77.1901L30.2424 72.9687C27.1435 72.5612 23.9801 73.1635 21.3611 74.6596L11.6362 80.2091L1.93433 59.4423L8.75395 55.801C11.2156 54.4864 13.4888 52.9389 15.5373 51.1922C17.5834 49.4454 19.4051 47.4971 20.9636 45.3852C23.6987 41.6721 28.4387 39.3856 33.5139 39.4663C34.6698 39.4842 35.8258 39.5938 36.9715 39.7933L67.483 45.1009C69.8776 45.5174 71.516 47.3427 71.516 49.3671C71.516 49.7142 71.4669 50.0657 71.3663 50.4197C70.7392 52.6189 68.27 54.0319 65.6924 53.6692L46.4619 50.9571C46.2091 50.9214 45.9561 50.9034 45.7085 50.9034C43.3475 50.9034 41.3039 52.4665 41.0846 54.576C40.8654 56.6766 42.545 58.5691 44.9396 58.9205L70.0351 62.6111L95.177 50.5449C96.0929 50.1059 97.0865 49.8955 98.0695 49.8955C99.664 49.8955 101.228 50.4486 102.368 51.47C102.647 51.7185 102.9 51.9963 103.122 52.2985C104.907 54.7259 104.076 57.9486 101.274 59.4848Z" fill="#F7D6B5"/>
<path d="M36.9728 39.7933L44.9665 41.1841C44.4607 41.1438 43.9576 41.1214 43.4518 41.1124C37.8423 41.0227 32.6044 43.549 29.583 47.6516C27.862 49.9874 25.8494 52.1395 23.5865 54.0699C21.3237 56.0002 18.8105 57.7091 16.091 59.1624L4.90566 65.7979L1.93579 59.4423L8.75272 55.801C11.2143 54.4864 13.49 52.9389 15.5361 51.1922C17.5849 49.4454 19.4066 47.4971 20.9624 45.3852C23.6975 41.6721 28.4375 39.3856 33.5154 39.4663C34.6687 39.4842 35.8273 39.5938 36.9728 39.7933Z" fill="#DDBD9F"/>
<path d="M102.368 51.4698C94.5112 55.9241 83.2019 62.2484 80.0927 63.527C75.1902 65.5426 70.0349 62.6112 70.0349 62.6112L95.1768 50.5449C96.0927 50.106 97.0863 49.8955 98.0693 49.8955C99.664 49.8955 101.228 50.4486 102.368 51.4698Z" fill="#DDBD9F"/>
<path d="M94.1496 37.2854C93.2798 36.7462 92.071 36.921 91.4501 37.6761C87.0418 43.0324 80.5333 47.2752 75.8496 49.8911C74.9509 50.3931 74.6911 51.4322 75.2695 52.2124C75.6395 52.7114 76.2625 52.9833 76.8985 52.9833C77.257 52.9833 77.62 52.8969 77.944 52.7159C82.9123 49.941 89.8348 45.4183 94.5992 39.6287C95.2205 38.8735 95.0191 37.8245 94.1496 37.2854Z" fill="black"/>
<path d="M45.0219 37.533C45.3357 37.533 45.6537 37.4667 45.9483 37.3267C46.8862 36.8818 47.2307 35.8612 46.7181 35.0474C45.083 32.4516 44.254 29.9213 44.254 27.5267C44.254 19.7757 50.295 13.4696 57.7202 13.4696C63.4469 13.4696 68.1057 18.3641 68.1057 24.3802C68.1057 25.3078 68.9719 26.0598 70.0408 26.0598C71.1097 26.0598 71.976 25.3078 71.976 24.3802C71.976 18.3641 76.6348 13.4696 82.3615 13.4696C89.7854 13.4696 95.8256 19.7757 95.8256 27.5267C95.8256 29.0232 95.4997 30.5843 94.8569 32.167C94.5016 33.0417 95.0306 34.0009 96.0386 34.3092C97.0462 34.6181 98.1516 34.1585 98.5069 33.2836C99.2959 31.3415 99.6956 29.4043 99.6956 27.5266C99.6956 17.9233 91.9195 10.1103 82.3613 10.1103C77.111 10.1103 72.5144 12.9663 70.0406 17.2075C67.5666 12.9663 62.9703 10.1103 57.72 10.1103C48.1607 10.1103 40.3835 17.9233 40.3835 27.5266C40.3835 30.4907 41.3723 33.563 43.3222 36.6585C43.6737 37.217 44.337 37.533 45.0219 37.533Z" fill="black"/>
<path d="M104.754 51.3958C102.51 48.3432 97.8921 47.3244 94.2417 49.0765L69.6906 60.8574L45.2624 57.266C43.873 57.0617 42.8842 55.9474 43.0111 54.7291C43.08 54.0708 43.4494 53.4846 44.0514 53.0792C44.6535 52.6739 45.3984 52.5091 46.1511 52.6153L65.3823 55.3275C68.9273 55.8283 72.3804 53.8497 73.2456 50.8249C73.7073 49.2102 73.3963 47.5468 72.37 46.1415C71.3438 44.7362 69.7436 43.782 67.8642 43.455L37.3529 38.1461C36.1035 37.9287 34.8242 37.8081 33.5504 37.788C27.8868 37.7014 22.439 40.2623 19.3325 44.4801C16.3941 48.4703 12.3851 51.8904 7.73911 54.3717L0.92135 58.0135C0.0110315 58.4993 -0.272602 59.534 0.287419 60.3241C0.847646 61.114 2.03973 61.3603 2.94964 60.8743L9.7674 57.2329C14.9072 54.4875 19.3424 50.7038 22.5936 46.2899C24.9809 43.0487 29.1588 41.0862 33.4796 41.1471C34.5222 41.1636 35.5695 41.2624 36.5921 41.4401L67.1034 46.749C67.9365 46.8938 68.6462 47.317 69.1008 47.94C69.5557 48.563 69.6935 49.3004 69.4888 50.0163C69.1054 51.3573 67.5729 52.2342 66.0028 52.0126L46.7716 49.3004C44.9742 49.0469 43.1179 49.4569 41.6791 50.4254C40.24 51.3939 39.3203 52.8523 39.1562 54.4265C38.8475 57.3808 41.2457 60.0829 44.6154 60.5783L69.7107 64.2679C70.1426 64.3317 70.5867 64.2659 70.9703 64.0817L96.1139 52.0166C97.9815 51.1208 100.343 51.6417 101.49 53.2029C102.075 53.9973 102.266 54.9412 102.029 55.8608C101.792 56.7803 101.157 57.5639 100.239 58.0674L71.2187 73.9848C68.6959 75.3686 65.6821 75.9178 62.73 75.5307L49.9148 73.8503C48.8577 73.7119 47.872 74.343 47.712 75.2601C47.5523 76.1774 48.2796 77.0331 49.3363 77.172L62.152 78.8524C62.9615 78.9586 63.7739 79.0109 64.5842 79.0109C67.6481 79.0109 70.6693 78.26 73.287 76.8245L102.307 60.9072C104.101 59.9228 105.344 58.3908 105.807 56.593C106.27 54.7945 105.896 52.949 104.754 51.3958Z" fill="black"/>
<path d="M42.9514 72.9367L30.5312 71.3082C26.9541 70.839 23.319 71.5312 20.2966 73.2566L10.5729 78.8069C9.68 79.3167 9.43218 80.358 10.0195 81.133C10.3914 81.6237 11.0085 81.89 11.6381 81.89C12.0029 81.89 12.3722 81.8007 12.6996 81.6135L22.4232 76.0631C24.6471 74.7938 27.321 74.2846 29.953 74.6299L42.373 76.2584C43.4301 76.3966 44.4158 75.7657 44.5758 74.8486C44.7358 73.9311 44.0083 73.0754 42.9514 72.9367Z" fill="black"/>
</g>
<defs>
<clipPath id="clip0_3_2">
<rect width="106" height="92" fill="white"/>
</clipPath>
</defs>
</svg>
