<?xml version="1.0" encoding="utf-8"?>
<!-- Generator: Adobe Illustrator 16.0.0, SVG Export Plug-In . SVG Version: 6.00 Build 0)  -->
<!DOCTYPE svg PUBLIC "-//W3C//DTD SVG 1.1//EN" "http://www.w3.org/Graphics/SVG/1.1/DTD/svg11.dtd">
<svg version="1.1" id="Email_Marketing" xmlns="http://www.w3.org/2000/svg" xmlns:xlink="http://www.w3.org/1999/xlink" x="0px"
	 y="0px" width="512px" height="512px" viewBox="0 0 512 512" enable-background="new 0 0 512 512" xml:space="preserve">
<circle id="Background_14_" fill="#F37F74" cx="256" cy="256" r="256"/>
<path id="Shadow_15_" opacity="0.1" d="M509.826,289.443L399.927,183.899L112,383l121.676,128.021
	C241.035,511.656,248.477,512,256,512C386.049,512,493.439,415.024,509.826,289.443z"/>
<g id="Email_Marketing_1_">
	<rect x="111.982" y="184.142" fill="#D6C370" width="288.035" height="198.911"/>
	<polygon fill="#EAD67F" points="400.018,184.14 111.982,184.14 210.793,94.948 308.311,94.948 	"/>
	<path fill="#E6E7E8" d="M367.935,293.407c0,3.617-2.933,6.55-6.551,6.55H150.616c-3.618,0-6.55-2.933-6.55-6.55V174.049
		c0-3.618,2.933-6.55,6.55-6.55h210.768c3.618,0,6.551,2.932,6.551,6.55V293.407z"/>
	<g>
		<path fill="#43536C" d="M277.717,270.512c-2.155,0-3.938-0.303-5.354-0.909c-1.413-0.606-2.592-1.413-3.535-2.424
			c-1.482,0.809-3.267,1.5-5.354,2.07c-2.088,0.572-4.176,0.859-6.263,0.859c-3.232,0-6.179-0.506-8.838-1.515
			c-2.66-1.011-4.967-2.508-6.919-4.496c-1.955-1.984-3.47-4.428-4.545-7.322c-1.079-2.896-1.617-6.263-1.617-10.103
			c0-3.231,0.505-6.278,1.515-9.141c1.01-2.861,2.508-5.354,4.495-7.476c1.986-2.121,4.411-3.788,7.273-5
			c2.861-1.212,6.111-1.818,9.749-1.818c3.433,0,6.58,0.271,9.443,0.808c2.862,0.541,5.066,1.079,6.617,1.616v30.911
			c0,2.155,0.368,3.67,1.11,4.544c0.74,0.877,1.717,1.313,2.928,1.313c1.752,0,3.284-0.605,4.598-1.817
			c1.313-1.212,2.39-2.794,3.232-4.747c0.841-1.952,1.465-4.157,1.868-6.615c0.404-2.458,0.606-4.966,0.606-7.525
			c0-4.243-0.743-8.233-2.222-11.97c-1.482-3.738-3.604-7.02-6.364-9.849c-2.762-2.828-6.111-5.051-10.051-6.666
			c-3.938-1.617-8.368-2.424-13.283-2.424c-4.916,0-9.428,0.825-13.535,2.474c-4.109,1.651-7.644,4.007-10.606,7.07
			c-2.964,3.067-5.27,6.819-6.919,11.264c-1.651,4.444-2.475,9.495-2.475,15.15c0,5.928,0.875,11.131,2.626,15.608
			c1.75,4.478,4.192,8.216,7.323,11.211s6.833,5.252,11.111,6.769c4.276,1.514,8.973,2.272,14.092,2.272
			c3.972,0,7.254-0.237,9.848-0.708c2.592-0.471,4.259-0.842,5-1.11l1.011,7.475c-1.146,0.403-3.218,0.841-6.213,1.312
			c-2.995,0.473-6.212,0.709-9.646,0.709c-5.995,0-11.652-0.859-16.97-2.576c-5.321-1.718-9.967-4.344-13.94-7.878
			c-3.974-3.536-7.121-8.047-9.444-13.536c-2.323-5.486-3.484-12.004-3.484-19.547c0-7.271,1.144-13.635,3.434-19.09
			c2.289-5.455,5.37-9.983,9.243-13.586c3.872-3.602,8.349-6.313,13.434-8.131c5.083-1.817,10.455-2.727,16.111-2.727
			c5.521,0,10.74,0.893,15.658,2.676c4.914,1.785,9.224,4.378,12.928,7.778c3.702,3.4,6.632,7.509,8.788,12.323
			c2.155,4.816,3.232,10.252,3.232,16.313c0,4.58-0.521,8.62-1.564,12.121c-1.045,3.501-2.442,6.449-4.192,8.84
			c-1.752,2.392-3.839,4.19-6.264,5.402C282.969,269.906,280.41,270.512,277.717,270.512z M257.515,262.33
			c1.415,0,2.845-0.152,4.293-0.454c1.448-0.304,2.743-0.759,3.889-1.365c-0.202-0.873-0.337-1.749-0.403-2.626
			c-0.068-0.873-0.102-1.716-0.102-2.523v-23.738c-0.404-0.134-1.18-0.269-2.322-0.404c-1.146-0.134-2.425-0.203-3.839-0.203
			c-4.782,0-8.351,1.483-10.707,4.445c-2.358,2.964-3.535,6.701-3.535,11.211c0,4.783,1.144,8.585,3.434,11.415
			C250.51,260.916,253.609,262.33,257.515,262.33z"/>
	</g>
	<g>
		<rect x="111.982" y="284.887" fill="#EAD67F" width="288.035" height="98.166"/>
		<polygon fill="#EAC83B" points="111.982,383.053 111.982,184.14 256,283.596 		"/>
		<polygon fill="#EAC83B" points="400.018,383.053 400.018,184.14 256,283.596 		"/>
	</g>
</g>
</svg>
