<?xml version="1.0" encoding="UTF-8"?>
<!DOCTYPE svg PUBLIC "-//W3C//DTD SVG 1.1//EN" "http://www.w3.org/Graphics/SVG/1.1/DTD/svg11.dtd">
<!-- Creator: CorelDRAW -->
<svg xmlns="http://www.w3.org/2000/svg" xml:space="preserve" width="6.82666in" height="6.82666in" style="shape-rendering:geometricPrecision; text-rendering:geometricPrecision; image-rendering:optimizeQuality; fill-rule:evenodd; clip-rule:evenodd"
viewBox="0 0 6.82666 6.82666"
 xmlns:xlink="http://www.w3.org/1999/xlink">
 <defs>
  <style type="text/css">
   <![CDATA[
    .fil4 {fill:none}
    .fil2 {fill:#EBE5DF}
    .fil1 {fill:#F45A52}
    .fil3 {fill:#FECA5F}
    .fil0 {fill:#212121;fill-rule:nonzero}
   ]]>
  </style>
 </defs>
 <g id="Layer_x0020_1">
  <metadata id="CorelCorpID_0Corel-Layer"/>
  <path class="fil0" d="M3.41333 0.848173c0.508047,0 0.968012,0.205937 1.30096,0.53889 0.332953,0.332949 0.53889,0.792913 0.53889,1.30096 0,0.358504 -0.215039,0.873512 -0.495748,1.38917 -0.513748,0.94374 -1.29331,1.9013 -1.3441,1.9013 -0.0507913,0 -0.830354,-0.957555 -1.3441,-1.9013 -0.280709,-0.515657 -0.495748,-1.03067 -0.495748,-1.38917 0,-0.508047 0.205937,-0.968012 0.53889,-1.30096 0.332949,-0.332953 0.792913,-0.53889 1.30096,-0.53889zm1.15013 0.689724c-0.294331,-0.294335 -0.700965,-0.476386 -1.15013,-0.476386 -0.449161,0 -0.855795,0.182051 -1.15013,0.476386 -0.294335,0.294331 -0.476386,0.700965 -0.476386,1.15013 0,0.319035 0.203469,0.799583 0.469079,1.2875 0.483575,0.888311 1.12733,1.78963 1.15743,1.78963 0.0300984,0 0.673858,-0.901315 1.15743,-1.78963 0.26561,-0.487917 0.469079,-0.968465 0.469079,-1.2875 0,-0.449161 -0.182051,-0.855795 -0.476386,-1.15013z"/>
  <path class="fil0" d="M3.41333 1.24183c0.39935,0 0.760902,0.161874 1.02261,0.423583 0.261709,0.261709 0.423583,0.62326 0.423583,1.02261 0,0.399346 -0.161878,0.760898 -0.423587,1.02261 -0.261705,0.261709 -0.62326,0.423587 -1.02261,0.423587 -0.399346,0 -0.760902,-0.161878 -1.02261,-0.423587 -0.261709,-0.261709 -0.423587,-0.62326 -0.423587,-1.02261 0,-0.39935 0.161874,-0.760902 0.423583,-1.02261 0.261709,-0.261709 0.62326,-0.423583 1.02261,-0.423583zm0.909484 0.536709c-0.232748,-0.232748 -0.554303,-0.376709 -0.909484,-0.376709 -0.355181,0 -0.676736,0.143961 -0.909484,0.376709 -0.232748,0.232748 -0.376709,0.554303 -0.376709,0.909484 0,0.355177 0.143965,0.676732 0.376713,0.90948 0.232744,0.232748 0.554303,0.376713 0.90948,0.376713 0.355177,0 0.676736,-0.143965 0.90948,-0.376713 0.232748,-0.232748 0.376713,-0.554303 0.376713,-0.90948 0,-0.355181 -0.143961,-0.676736 -0.376709,-0.909484z"/>
  <path class="fil1" d="M4.43594 3.71063c-0.261705,0.261709 -0.62326,0.423587 -1.02261,0.423587 -0.399346,0 -0.760902,-0.161878 -1.02261,-0.423587 -0.261709,-0.261709 -0.423587,-0.62326 -0.423587,-1.02261 0,-0.39935 0.161874,-0.760902 0.423583,-1.02261 0.261709,-0.261709 0.62326,-0.423583 1.02261,-0.423583 0.39935,0 0.760902,0.161874 1.02261,0.423583 0.261709,0.261709 0.423583,0.62326 0.423583,1.02261 0,0.399346 -0.161878,0.760898 -0.423587,1.02261zm0.127516 -2.17273c-0.294331,-0.294335 -0.700965,-0.476386 -1.15013,-0.476386 -0.449161,0 -0.855795,0.182051 -1.15013,0.476386 -0.294335,0.294331 -0.476386,0.700965 -0.476386,1.15013 0,0.319035 0.203469,0.799583 0.469079,1.2875 0.483575,0.888311 1.12733,1.78963 1.15743,1.78963 0.0300984,0 0.673858,-0.901315 1.15743,-1.78963 0.26561,-0.487917 0.469079,-0.968465 0.469079,-1.2875 0,-0.449161 -0.182051,-0.855795 -0.476386,-1.15013z"/>
  <path class="fil2" d="M3.41333 3.97422c0.355177,0 0.676736,-0.143965 0.90948,-0.376713 0.232748,-0.232748 0.376713,-0.554303 0.376713,-0.90948 0,-0.355181 -0.143961,-0.676736 -0.376709,-0.909484 -0.232748,-0.232748 -0.554303,-0.376709 -0.909484,-0.376709 -0.355181,0 -0.676736,0.143961 -0.909484,0.376709 -0.232748,0.232748 -0.376709,0.554303 -0.376709,0.909484 0,0.355177 0.143965,0.676732 0.376713,0.90948 0.232744,0.232748 0.554303,0.376713 0.90948,0.376713z"/>
  <path class="fil0" d="M2.84077 2.20231l1.26917 0.367134 0.166421 -0.131126c0.0138031,-0.0108504 0.0312953,-0.0137913 0.0470236,-0.00948819l0.184543 0.0424488c0.0286457,0.00655512 0.0465551,0.0351024 0.04,0.063748 -0.00114961,0.00502756 -0.00297638,0.00971654 -0.0053622,0.0140079l-0.146193 0.282307c-0.0104016,0.0250236 -0.0415157,0.0637874 -0.0871614,0.0860866 -0.00710236,0.0034685 -0.0146024,0.00662992 -0.0224803,0.00937402l0.0865591 0.141539c0.0152992,0.0250827 0.00737402,0.0578268 -0.0177087,0.073126 -0.0123346,0.00752362 -0.0265236,0.0094252 -0.0395787,0.00643701l-3.93701e-006 1.9685e-005 -0.186772 -0.0429606c-0.0110079,-0.00251969 -0.0204252,-0.00828346 -0.0274803,-0.0160551l-1.9685e-005 1.5748e-005 -0.179181 -0.197488 -0.380894 -0.0703504 0.17261 0.282256c0.0152992,0.0250827 0.00737402,0.0578268 -0.0177087,0.073126 -0.0123346,0.00752362 -0.0265236,0.0094252 -0.0395787,0.00643701l-3.93701e-006 1.9685e-005 -0.308508 -0.0709646c-0.00984252,-0.00225197 -0.0184213,-0.00709843 -0.0251693,-0.0136575l-0.469189 -0.40965 -0.457642 -0.0767717c-0.00704724,-0.00117323 -0.0135394,-0.00368898 -0.0192598,-0.00722835 -0.0602677,-0.0322913 -0.0905315,-0.0717441 -0.0980787,-0.114547 -0.00706299,-0.0400787 0.00641339,-0.0786811 0.0345472,-0.114291 0.0228937,-0.0289803 0.0560039,-0.0561142 0.0950197,-0.0800079 0.124311,-0.0761339 0.321831,-0.125386 0.432083,-0.0934961zm1.26597 0.476846l-1.29556 -0.374768c-0.0839567,-0.0242835 -0.243161,0.0186024 -0.347083,0.082252 -0.0290039,0.0177638 -0.0525079,0.0365276 -0.0671063,0.0550079 -0.00935433,0.0118386 -0.0142598,0.0222756 -0.012878,0.030126 0.00184646,0.0104803 0.0135945,0.0226693 0.0382638,0.0365197l0.463988 0.0778386 -1.1811e-005 7.08661e-005c0.0094252,0.00155906 0.0185472,0.00567717 0.0262638,0.0124291l0.472516 0.412555 0.172272 0.039626 -0.168756 -0.275949 3.54331e-005 -2.3622e-005c-0.00657087,-0.0107598 -0.0093622,-0.0238898 -0.00690945,-0.0372677 0.00529134,-0.028878 0.0329961,-0.048 0.061874,-0.0427087l0.513217 0.0947874c0.012063,0.00157087 0.0236496,0.00725591 0.0324764,0.0169528l0.179984 0.198374 0.0471063 0.0108346 -0.063185 -0.103319c-0.00693701,-0.0104803 -0.0102126,-0.0234409 -0.00830315,-0.0368622 0.00414173,-0.0291063 0.0311024,-0.0493504 0.0602087,-0.0452087 0.0225,0.0032126 0.0419252,-0.00128346 0.057378,-0.00883071 0.0208661,-0.0101929 0.0323937,-0.0214606 0.0337717,-0.0262717l6.69291e-005 1.9685e-005c0.000952756,-0.00333071 0.00224409,-0.00661417 0.00388976,-0.00981102l0.11698 -0.225898 -0.095 -0.0218504 -0.167795 0.132209 -7.48031e-005 -9.44882e-005c-0.013,0.0101969 -0.0305551,0.0142087 -0.0476339,0.00925984z"/>
  <path class="fil3" d="M3.38866 2.77487l0 0zm0.718087 -0.0957087l-1.29556 -0.374768c-0.0839567,-0.0242835 -0.243161,0.0186024 -0.347083,0.082252 -0.0290039,0.0177638 -0.0525079,0.0365276 -0.0671063,0.0550079 -0.00935433,0.0118386 -0.0142598,0.0222756 -0.012878,0.030126 0.00184646,0.0104803 0.0135945,0.0226693 0.0382638,0.0365197l0.463988 0.0778386 -1.1811e-005 7.08661e-005c0.0094252,0.00155906 0.0185472,0.00567717 0.0262638,0.0124291l0.472516 0.412555 0.172272 0.039626 -0.16872 -0.275972c-0.00657087,-0.0107598 -0.0093622,-0.0238898 -0.00690945,-0.0372677 0.00529134,-0.028878 0.0329961,-0.048 0.061874,-0.0427087l0.513217 0.0947874c0.012063,0.00157087 0.0236496,0.00725591 0.0324764,0.0169528l0.179984 0.198374 0.0471063 0.0108346 -0.063185 -0.103319c-0.00693701,-0.0104803 -0.0102126,-0.0234409 -0.00830315,-0.0368622 0.00414173,-0.0291063 0.0311024,-0.0493504 0.0602087,-0.0452087 0.0225,0.0032126 0.0419252,-0.00128346 0.057378,-0.00883071 0.0208661,-0.0101929 0.0323937,-0.0214606 0.0337717,-0.0262717l6.69291e-005 1.9685e-005c0.000952756,-0.00333071 0.00224409,-0.00661417 0.00388976,-0.00981102l0.11698 -0.225898 -0.095 -0.0218504 -0.167795 0.132209 -7.48031e-005 -9.44882e-005c-0.013,0.0101969 -0.0305551,0.0142087 -0.0476339,0.00925984z"/>
 </g>
 <rect class="fil4" width="6.82666" height="6.82666"/>
</svg>
