<?xml version="1.0" encoding="UTF-8"?>
<svg version="1.1" xmlns="http://www.w3.org/2000/svg" width="640" height="302">
<path d="M0 0 C211.2 0 422.4 0 640 0 C640 99.66 640 199.32 640 302 C428.8 302 217.6 302 0 302 C0 202.34 0 102.68 0 0 Z " fill="#FEFEFE" transform="translate(0,0)"/>
<path d="M0 0 C2.19439299 0.00852523 4.38618301 -0.02040164 6.58032227 -0.05200195 C19.04028493 -0.1154528 30.38980393 2.38014111 41.51196289 8.19604492 C42.18106689 8.53966064 42.8501709 8.88327637 43.53955078 9.23730469 C49.36330132 12.32311241 54.40130104 15.98617449 59.26196289 20.44604492 C60.01735352 21.10991211 60.77274414 21.7737793 61.55102539 22.45776367 C75.48615543 35.4112093 84.56886024 54.18097807 85.43310547 73.21533203 C85.50256034 76.63262111 85.49863242 80.04784339 85.46777344 83.46557617 C85.44919009 85.6024129 85.4472666 87.73882227 85.44750977 89.87573242 C85.40990351 100.29810431 85.40990351 100.29810431 84.26196289 101.44604492 C82.8198229 101.54162528 81.3730221 101.56792887 79.92771912 101.56629944 C78.52470047 101.56836143 78.52470047 101.56836143 77.09333801 101.57046509 C76.05900131 101.56686981 75.02466461 101.56327454 73.95898438 101.55957031 C72.87619202 101.55971634 71.79339966 101.55986237 70.67779541 101.56001282 C67.07952915 101.55931315 63.48131392 101.55151826 59.88305664 101.54370117 C57.39583871 101.54183718 54.90862041 101.54041319 52.42140198 101.53941345 C46.53175098 101.53597842 40.64211899 101.5280877 34.7524758 101.51806396 C27.39170915 101.50580739 20.03094025 101.50042283 12.67016602 101.49487305 C-0.46591292 101.48413307 -13.60196976 101.46653506 -26.73803711 101.44604492 C-26.73803711 89.56604492 -26.73803711 77.68604492 -26.73803711 65.44604492 C-2.64803711 65.44604492 21.44196289 65.44604492 46.26196289 65.44604492 C39.9614962 52.84511155 34.24072431 45.30271101 21.26196289 39.44604492 C9.46531461 35.64149818 -7.10282324 34.92680267 -18.73803711 39.50854492 C-21.37216842 40.84782466 -21.37216842 40.84782466 -23.73803711 42.44604492 C-24.56045898 42.97713867 -25.38288086 43.50823242 -26.23022461 44.05541992 C-35.67053462 50.80292019 -42.4905271 60.99274451 -44.73803711 72.44604492 C-46.13849702 87.16232964 -45.53956793 100.28955305 -36.98803711 112.75854492 C-30.65907899 120.39527245 -24.20101303 125.4070606 -14.73803711 128.44604492 C-13.86663086 128.80053711 -12.99522461 129.1550293 -12.09741211 129.52026367 C-1.01037874 132.5756438 12.96282009 131.88851967 23.41430664 127.08276367 C32.01229114 122.49774681 32.01229114 122.49774681 38.26196289 115.44604492 C52.12196289 115.44604492 65.98196289 115.44604492 80.26196289 115.44604492 C75.14997 133.33802004 61.32501116 148.35819167 45.33129883 157.55639648 C25.36744845 168.44836832 0.21081221 171.25395257 -21.98803711 165.94604492 C-33.61901554 162.12752184 -44.49468833 156.4929686 -53.73803711 148.44604492 C-54.61782227 147.77895508 -54.61782227 147.77895508 -55.51538086 147.09838867 C-70.09850609 135.75595794 -79.20912747 116.48211818 -81.73803711 98.44604492 C-82.00177933 93.9969758 -82.06820098 89.56269439 -82.05371094 85.10620117 C-82.0505525 83.08091223 -82.07408818 81.05709189 -82.09936523 79.03198242 C-82.1101123 57.10796381 -73.00651017 37.96984361 -57.73803711 22.44604492 C-57.04967773 21.74479492 -56.36131836 21.04354492 -55.65209961 20.32104492 C-40.25723162 5.67016684 -20.82255337 -0.12285376 0 0 Z " fill="#817F80" transform="translate(317.738037109375,85.553955078125)"/>
<path d="M0 0 C12.54 0 25.08 0 38 0 C38.09075577 14.4224877 38.1639773 28.84478241 38.20724869 43.26749229 C38.22775882 49.96620139 38.25616751 56.66469049 38.30175781 63.36328125 C38.34556192 69.84075554 38.36920953 76.31803175 38.37950897 82.79564285 C38.38683873 85.25370013 38.4011499 87.7117479 38.42292023 90.1697197 C38.67075269 119.33976301 33.17531311 141.84480045 12.75390625 163.3671875 C-3.95154524 179.12242065 -25.77389867 186.83097496 -48.42578125 186.21484375 C-70.43608469 185.30472834 -89.39831241 176.57559782 -105 161 C-105.77085938 160.24074219 -106.54171875 159.48148438 -107.3359375 158.69921875 C-122.45189758 142.93837983 -129.39961885 122.19492652 -129.30273438 100.5703125 C-128.74870068 77.54713467 -118.90892916 56.29646211 -102.25 40.37109375 C-81.89512096 22.64177757 -59.62014043 17.31982512 -33 19 C-26.37995429 19.89961327 -19.60645092 21.26236605 -14 25 C-13.63923645 26.87295532 -13.63923645 26.87295532 -13.65942383 29.17431641 C-13.65965042 30.03505768 -13.65987701 30.89579895 -13.66011047 31.78262329 C-13.67559433 32.71287323 -13.69107819 33.64312317 -13.70703125 34.6015625 C-13.71127609 35.55316254 -13.71552094 36.50476257 -13.71989441 37.48519897 C-13.73672104 40.53208414 -13.77438046 43.57831391 -13.8125 46.625 C-13.82754169 48.68749046 -13.84123099 50.74999127 -13.85351562 52.8125 C-13.88663761 57.8752535 -13.93844716 62.93751554 -14 68 C-14.61746597 67.65447083 -15.23493195 67.30894165 -15.87110901 66.95294189 C-16.68136032 66.50086365 -17.49161163 66.0487854 -18.32641602 65.58300781 C-19.12950699 65.13435364 -19.93259796 64.68569946 -20.76002502 64.22344971 C-23.10778873 62.94112698 -25.47721703 61.79995801 -27.9375 60.75 C-29.98557646 59.86864082 -32.00561849 58.99719076 -34 58 C-48.08101795 56.60618918 -60.50062092 57.58830956 -72.375 65.8125 C-81.36994296 73.23569503 -88.85595922 83.16313446 -90.23706055 95.03833008 C-91.13564773 109.28969365 -88.35599256 121.77720141 -79 133 C-74.51713915 137.60179389 -69.75804541 141.17148647 -64 144 C-63.39285156 144.2990625 -62.78570312 144.598125 -62.16015625 144.90625 C-51.61086463 149.27985267 -38.38666897 147.99993847 -27.8671875 144.26171875 C-14.97696448 138.58931815 -7.39193787 129.28894889 -1.94107056 116.51925659 C-0.63532098 111.63623503 -0.69165914 106.980172 -0.68115234 101.94580078 C-0.67110672 100.84277115 -0.6610611 99.73974152 -0.65071106 98.60328674 C-0.61988758 94.96730049 -0.60284596 91.33138786 -0.5859375 87.6953125 C-0.56722522 85.17039355 -0.54765176 82.64548084 -0.5272522 80.12057495 C-0.48117351 74.16029957 -0.44376292 68.20000995 -0.41057932 62.23965251 C-0.37229959 55.45119234 -0.32290486 48.66282712 -0.27259517 41.87444711 C-0.16939777 27.91636146 -0.08156502 13.95822796 0 0 Z " fill="#828080" transform="translate(179,67)"/>
<path d="M0 0 C12.21 0 24.42 0 37 0 C37.029729 4.97308228 37.029729 4.97308228 37.06005859 10.04663086 C37.1270407 21.01498786 37.20467922 31.98325092 37.28752708 42.95149899 C37.33741924 49.59989112 37.38374997 56.24825529 37.421875 62.89672852 C37.45881707 69.31586725 37.50520147 75.73487537 37.55806351 82.15390205 C37.57656003 84.59980535 37.59168538 87.0457366 37.60334396 89.49168205 C37.62028747 92.92419615 37.64934248 96.35641419 37.68115234 99.78881836 C37.68331253 100.79439285 37.68547272 101.79996735 37.68769836 102.83601379 C37.84008908 115.75437518 41.19331588 126.16757794 50.125 135.8125 C59.60759947 144.75049072 71.21098259 148.15884339 83.9375 148.625 C86.928125 148.74875 89.91875 148.8725 93 149 C93 161.21 93 173.42 93 186 C67.72058815 186.57453209 46.29774974 183.75261475 27 166 C26.17113281 165.26265625 25.34226562 164.5253125 24.48828125 163.765625 C10.94035973 151.06833867 1.03431563 132.97176321 -0.17982864 114.2231102 C-0.24404909 111.18839839 -0.24767829 108.15983294 -0.22705078 105.12451172 C-0.22734283 103.9818837 -0.22763489 102.83925568 -0.22793579 101.66200256 C-0.2265521 97.91781795 -0.21103621 94.17383698 -0.1953125 90.4296875 C-0.19157896 87.82081206 -0.1887336 85.21193521 -0.18673706 82.60305786 C-0.18054729 76.45868601 -0.16417077 70.31438624 -0.14403808 64.17004597 C-0.12160065 57.16874828 -0.11066602 50.16744695 -0.10064721 43.1661222 C-0.07980199 28.77736988 -0.04315748 14.38870228 0 0 Z " fill="#817F80" transform="translate(422,67)"/>
<path d="M0 0 C12.54 0 25.08 0 38 0 C38 44.55 38 89.1 38 135 C25.46 135 12.92 135 0 135 C0 90.45 0 45.9 0 0 Z " fill="#807F80" transform="translate(533,119)"/>
<path d="M0 0 C12.54 0 25.08 0 38 0 C38 12.54 38 25.08 38 38 C25.46 38 12.92 38 0 38 C0 25.46 0 12.92 0 0 Z " fill="#828081" transform="translate(533,67)"/>
</svg>
