<svg width="683" height="544" viewBox="0 0 683 544" fill="none" xmlns="http://www.w3.org/2000/svg">
<g clip-path="url(#clip0_1_7)">
<path opacity="0.1" d="M-62.5441 276.846H6.79729V390.081H-57.4676C-57.6384 391.243 -57.8024 392.414 -57.9801 393.584H6.79729V484.906C6.68114 484.865 6.57865 484.816 6.46933 484.767C4.63826 483.899 2.82086 482.982 1.00346 482L-0.158031 481.369C-1.97999 480.338 -3.80194 479.247 -5.6239 478.095C-6.2593 477.694 -6.89471 477.277 -7.52328 476.851C-17.638 470.063 -26.8267 461.461 -34.7706 451.344C-35.0029 451.074 -35.2216 450.787 -35.4539 450.525C-36.5607 449.084 -37.647 447.627 -38.6992 446.138L-39.8607 444.5C-41.1042 442.675 -42.3067 440.8 -43.475 438.901C-43.6458 438.623 -43.8098 438.345 -43.9874 438.083C-48.739 430.189 -52.6843 421.642 -55.7391 412.625C-55.8347 412.355 -55.9167 412.06 -56.0055 411.806C-56.9438 408.914 -57.7751 405.994 -58.4993 403.047C-58.8136 401.811 -59.1142 400.591 -59.3739 399.306C-59.4695 398.93 -59.5515 398.561 -59.6266 398.193C-63.5074 380.045 -63.9652 361.193 -63.9652 342.472C-63.9652 340.286 -63.9652 338.092 -63.9652 335.923C-63.9652 328.351 -63.89 320.73 -63.7807 313.117C-63.7807 311.145 -63.7124 309.18 -63.6782 307.199C-63.5826 302.173 -63.4459 297.147 -63.2683 292.121C-63.2273 290.721 -63.1726 289.329 -63.1111 287.938C-63.1111 287.135 -63.077 286.333 -63.0087 285.531C-62.8447 282.617 -62.708 279.727 -62.5441 276.846Z" fill="#007690"/>
<path opacity="0.1" d="M6.79728 150.767H-31.2383C-25.0554 139.173 -18.2999 128.031 -11.0078 117.402C-5.35744 109.085 0.607191 100.981 6.79728 93.1715V150.767Z" fill="#007690"/>
<path opacity="0.1" d="M6.79728 154.271V273.342H-62.3254C-62.3254 272.998 -62.2776 272.646 -62.2571 272.303C-62.1956 271.361 -62.1341 270.42 -62.0658 269.487C-61.9906 268.39 -61.9086 267.285 -61.8198 266.212C-61.731 265.14 -61.6354 263.83 -61.5329 262.643C-61.4304 261.456 -61.3347 260.253 -61.2186 259.066C-61.1024 257.879 -60.9999 256.692 -60.877 255.513C-60.754 254.335 -60.6447 253.14 -60.5148 251.961C-60.4124 250.978 -60.303 250.004 -60.1937 249.022C-60.0366 247.639 -59.8726 246.247 -59.695 244.872C-59.695 244.667 -59.6471 244.454 -59.6198 244.258C-58.3728 234.191 -56.6736 224.211 -54.5297 214.363C-52.2856 204.032 -49.4199 193.91 -45.9552 184.075C-42.2728 173.787 -37.9612 163.839 -33.0557 154.312L6.79728 154.271Z" fill="#007690"/>
<path opacity="0.1" d="M-143.056 261.29V374.533H5.04821V261.29H-143.056ZM-143.056 378.028V475.276C-142.209 475.489 -141.369 475.694 -140.535 475.866C-139.401 476.128 -138.274 476.365 -137.119 476.57C-136.9 476.611 -136.675 476.651 -136.436 476.676C-135.985 476.766 -135.52 476.84 -135.069 476.913C-133.928 477.102 -132.794 477.257 -131.653 477.38C-131.113 477.446 -130.567 477.503 -130.02 477.552L-128.702 477.675C-127.984 477.74 -127.274 477.789 -126.57 477.814C-126.133 477.814 -125.695 477.863 -125.244 477.879C-124.903 477.879 -124.561 477.879 -124.206 477.879C-123.851 477.879 -123.345 477.879 -122.915 477.879C-122.327 477.879 -121.739 477.879 -121.159 477.879H-120.373C-119.785 477.879 -119.198 477.879 -118.617 477.814H-118.576C-118.173 477.814 -117.763 477.814 -117.353 477.748C-117.239 477.757 -117.125 477.757 -117.011 477.748C-116.67 477.748 -116.328 477.748 -116 477.691H-115.761L-113.472 477.478C-112.721 477.396 -111.962 477.29 -111.197 477.192L-109.639 476.971C-103.302 475.907 -97.0347 474.309 -90.8846 472.19C-77.0696 467.573 -63.5552 461.115 -49.7471 456.383C-31.8942 450.285 -12.1693 447.289 5.08236 454.746V378.028H-143.056ZM5.04821 135.219V-15.5397C-11.1667 -15.7502 -27.3376 -13.478 -43.0719 -8.77822C-80.5746 2.51008 -114.224 26.994 -143.056 58.264V135.211H-135.623V138.706H-143.056V257.794H5.04821V138.715H-105.103V135.219H5.04821ZM195.281 84.295C186.003 83.9021 176.779 80.3822 168.437 74.9468C152.483 64.5507 139.741 48.4982 125.502 34.9506C95.9182 6.73398 59.2286 -10.2926 21.5893 -14.5165V135.219H233.016L233.542 134.556L195.281 84.295ZM214.541 80.2021L234.963 107.052V73.1622C228.124 74.1773 222.132 76.5921 214.568 80.1693L214.541 80.2021ZM234.963 499.425V378.028H191.448C191.332 377.513 191.216 376.989 191.079 376.465C191.209 376.989 191.318 377.513 191.441 378.028H21.6166V465.822C23.229 467.254 24.821 468.76 26.3992 470.291C28.1005 471.928 29.7812 473.655 31.4688 475.35L33.1701 477.036C33.9831 477.855 34.803 478.673 35.6297 479.443C37.2695 481.036 38.9252 482.608 40.5968 484.158C41.4235 484.977 42.2707 485.713 43.1111 486.483C56.4527 498.704 70.5265 509.733 85.2188 519.48C88.512 521.663 91.8348 523.794 95.1872 525.873C97.4213 527.24 99.6692 528.599 101.924 529.917C105.313 531.898 108.729 533.808 112.172 535.647C143.92 552.721 177.49 564.438 211.924 570.461C219.572 571.815 227.249 572.879 234.956 573.654V499.416H235.639L234.963 499.425ZM21.6166 138.715V257.794H234.99V138.715H21.6166ZM21.6166 261.29V374.533H234.99V261.29H21.6166ZM251.552 73.0149V110.817L277.617 76.5512C268.981 74.8813 260.293 73.6889 251.552 72.974V73.0149ZM251.552 261.331V374.533H459.084V261.29L251.552 261.331ZM458.326 508.413L459.057 378.028H251.552V574.955C264.919 575.628 278.307 575.437 291.658 574.382V574.382H291.89C298.267 573.902 304.614 573.204 310.932 572.287H311.075C344.779 567.587 377.736 557.051 408.914 541.009L458.326 508.413ZM499.101 279.937C498.322 277.735 497.509 275.549 496.682 273.388C495.138 269.295 493.505 265.317 491.825 261.339H475.632V374.533H516.571C516.551 342.477 509.78 309.734 499.121 279.896L499.101 279.937ZM475.632 378.069V490.215C487.165 476.971 496.908 461.819 503.925 444.497C512.362 423.64 516.223 401.055 516.537 378.053L475.632 378.069ZM475.632 228.333V257.802H490.308C485.868 247.658 480.976 237.807 475.652 228.292L475.632 228.333ZM334.886 95.2313C333.806 94.7402 332.727 94.2408 331.64 93.7579C320.183 88.6886 308.475 84.473 296.584 81.1353L256.697 133.582L255.931 134.556L256.444 135.227H398.406C378.635 118.922 357.319 105.482 334.906 95.1904L334.886 95.2313ZM402.567 138.756H254.462L251.552 141.948V257.794H277.064H277.105H459.111V201.68C442.647 177.823 423.644 156.654 402.587 138.715L402.567 138.756Z" fill="#007690"/>
<path opacity="0.1" d="M6.79728 214.33V273.342H-62.3254C-62.3254 272.998 -62.2776 272.646 -62.2571 272.303C-62.1956 271.361 -62.1341 270.42 -62.0658 269.487C-61.9906 268.39 -61.9086 267.285 -61.8198 266.212C-61.731 265.14 -61.6354 263.83 -61.5329 262.643C-61.4304 261.456 -61.3347 260.253 -61.2186 259.066C-61.1024 257.879 -60.9999 256.692 -60.877 255.513C-60.754 254.335 -60.6447 253.14 -60.5148 251.961C-60.4124 250.978 -60.303 250.004 -60.1937 249.022C-60.0366 247.639 -59.8726 246.247 -59.695 244.872C-59.695 244.667 -59.6471 244.454 -59.6198 244.258C-58.3728 234.191 -56.6736 224.211 -54.5297 214.363L6.79728 214.33Z" fill="#007690"/>
<path opacity="0.1" d="M-62.5441 276.846H6.79729V390.081H-57.4676C-57.6384 391.243 -57.8024 392.414 -57.9801 393.584H6.79729V484.906C6.68114 484.865 6.57865 484.816 6.46933 484.767C4.63826 483.899 2.82086 482.982 1.00346 482L-0.158031 481.369C-1.97999 480.338 -3.80194 479.247 -5.6239 478.095C-6.2593 477.694 -6.89471 477.277 -7.52328 476.851C-17.638 470.063 -26.8267 461.461 -34.7706 451.344C-35.0029 451.074 -35.2216 450.787 -35.4539 450.525C-36.5607 449.084 -37.647 447.627 -38.6992 446.138L-39.8607 444.5C-41.1042 442.675 -42.3067 440.8 -43.475 438.901C-43.6458 438.623 -43.8098 438.345 -43.9874 438.083C-48.739 430.189 -52.6843 421.642 -55.7391 412.625C-55.8347 412.355 -55.9167 412.06 -56.0055 411.806C-56.9438 408.914 -57.7751 405.994 -58.4993 403.047C-58.8136 401.811 -59.1142 400.591 -59.3739 399.306C-59.4695 398.93 -59.5515 398.561 -59.6266 398.193C-63.5074 380.045 -63.9652 361.193 -63.9652 342.472C-63.9652 340.286 -63.9652 338.092 -63.9652 335.923C-63.9652 328.351 -63.89 320.73 -63.7807 313.117C-63.7807 311.145 -63.7124 309.18 -63.6782 307.199C-63.5826 302.173 -63.4459 297.147 -63.2683 292.121C-63.2273 290.721 -63.1726 289.329 -63.1111 287.938C-63.1111 287.135 -63.077 286.333 -63.0087 285.531C-62.8447 282.617 -62.708 279.727 -62.5441 276.846Z" fill="#007690"/>
<path opacity="0.1" d="M75.4895 171.314V273.342H23.352V171.314H30.7856V136.769H61.2988V171.314H75.4895Z" fill="#007690"/>
<path opacity="0.1" d="M75.4895 276.838H23.3589V390.073H75.4895V276.838Z" fill="#007690"/>
<path opacity="0.1" d="M23.352 393.584H75.4895V487.722C69.3394 489.839 63.0723 491.434 56.7348 492.494L55.177 492.723C54.4118 492.83 53.6534 492.92 52.9019 493.01C52.1503 493.1 51.3714 493.165 50.613 493.223H50.3739C50.0459 493.223 49.6907 493.272 49.3695 493.28H49.0211C48.6111 493.28 48.2012 493.329 47.7913 493.345C47.2105 493.386 46.6298 493.395 46.0354 493.403C45.7826 493.403 45.5434 493.403 45.2906 493.403C44.7031 493.403 44.1223 493.403 43.5347 493.403H42.2434C41.895 493.403 41.5602 493.403 41.1981 493.403L39.8794 493.345C39.1962 493.345 38.4583 493.255 37.7477 493.198L36.4359 493.083L34.803 492.903C33.6552 492.781 32.5142 492.625 31.3868 492.437L30.0204 492.208L29.3371 492.093C28.1961 491.88 27.0688 491.651 25.921 491.389C25.0806 491.217 24.2471 491.004 23.3998 490.8L23.352 393.584Z" fill="#007690"/>
<path opacity="0.1" d="M401.399 159.264H358.41V273.334H401.399V159.264Z" fill="#007690"/>
<path opacity="0.1" d="M401.405 276.838V390.081H188.025V341.236H301.681V370.05H358.41V276.838H401.405Z" fill="#007690"/>
<path opacity="0.1" d="M402.082 514.997H401.399V589.284C393.701 588.503 386.026 587.442 378.374 586.099C343.922 580.056 310.338 568.315 278.581 551.211C269.412 546.267 260.429 540.87 251.634 535.02C236.942 525.268 222.866 514.239 209.519 502.022C206.167 498.944 202.858 495.796 199.592 492.576C197.331 490.341 195.083 488.049 192.808 485.823C191.229 484.292 189.637 482.786 188.025 481.345V393.584H357.842C357.726 393.06 357.61 392.537 357.487 392.021C357.617 392.537 357.74 393.06 357.856 393.584H401.399V514.948C401.631 514.956 401.856 514.981 402.082 514.997Z" fill="#007690"/>
<path opacity="0.1" d="M513.517 150.767H485.505V140.338H498.062V109.273C499.151 109.748 500.235 110.236 501.315 110.738V140.338H513.517V150.767Z" fill="#007690"/>
<path opacity="0.1" d="M581.007 273.342H443.486C443.486 273.342 443.486 273.342 443.534 273.383L443.472 273.342H417.96V159.272H425.189V243.587H458.223V193.653H485.511V154.271H513.524V193.686H540.812V243.619H581.007V273.342Z" fill="#007690"/>
<path opacity="0.1" d="M417.96 276.838V390.081H581.007V276.838H417.96ZM625.267 523.379L625.492 433.744H581.007V393.633H417.96V590.503C431.328 591.176 444.716 590.985 458.066 589.93V589.93H458.298C464.675 589.45 471.022 588.752 477.34 587.835H477.483C511.188 583.135 544.144 572.599 575.322 556.557" fill="#007690"/>
<path opacity="0.1" d="M644.937 393.584H682.973C682.638 416.578 678.784 439.163 670.353 460.021C663.337 477.35 653.587 492.502 642.068 505.739V433.703H644.937V393.584Z" fill="#007690"/>
<path opacity="0.1" d="M682.993 390.081H644.937V295.444H665.53C676.188 325.281 682.959 358.025 682.993 390.081Z" fill="#007690"/>
<path opacity="0.1" d="M401.405 190.976H378.374V226.74H401.405V190.976Z" fill="#007690"/>
<path opacity="0.1" d="M401.405 265.107H378.374V273.342H401.405V265.107Z" fill="#007690"/>
<path opacity="0.1" d="M401.405 276.838H378.374V300.863H401.405V276.838Z" fill="#007690"/>
<path opacity="0.1" d="M401.405 339.238H378.374V375.002H401.405V339.238Z" fill="#007690"/>
<path opacity="0.1" d="M401.405 413.37H378.374V449.134H401.405V413.37Z" fill="#007690"/>
<path opacity="0.1" d="M401.399 514.948C401.631 514.948 401.856 514.948 402.082 514.997H401.399V523.306H378.374V487.501H401.399V514.948Z" fill="#007690"/>
<path opacity="0.1" d="M286.732 387.453H188.025V390.081H286.732V387.453Z" fill="#007690"/>
<path opacity="0.1" d="M286.732 393.576H188.025V403.645H286.732V393.576Z" fill="#007690"/>
<path opacity="0.1" d="M286.732 436.65H188.025V452.842H286.732V436.65Z" fill="#007690"/>
<path opacity="0.1" d="M286.725 485.847V502.039H209.519C206.167 498.972 202.856 495.823 199.585 492.592C197.324 490.358 195.083 488.066 192.801 485.847H286.725Z" fill="#007690"/>
<path opacity="0.1" d="M286.725 535.036V551.211H278.574C269.414 546.262 260.434 540.862 251.634 535.011L286.725 535.036Z" fill="#007690"/>
<path opacity="0.1" d="M477.504 287.815H458.073V311.095H477.504V287.815Z" fill="#007690"/>
<path opacity="0.1" d="M56.7826 179.344H37.3515V202.625H56.7826V179.344Z" fill="#007690"/>
<path opacity="0.1" d="M56.7826 233.42H37.3515V256.7H56.7826V233.42Z" fill="#007690"/>
<path opacity="0.1" d="M56.7826 287.496H37.3515V310.776H56.7826V287.496Z" fill="#007690"/>
<path opacity="0.1" d="M56.7826 341.563H37.3515V364.844H56.7826V341.563Z" fill="#007690"/>
<path opacity="0.1" d="M56.7826 395.639H37.3515V418.92H56.7826V395.639Z" fill="#007690"/>
<path opacity="0.1" d="M56.7826 449.715H37.3515V472.995H56.7826V449.715Z" fill="#007690"/>
<path opacity="0.1" d="M551.683 287.815H532.251V311.095H551.683V287.815Z" fill="#007690"/>
<path opacity="0.1" d="M477.504 345.239H458.073V368.519H477.504V345.239Z" fill="#007690"/>
<path opacity="0.1" d="M551.683 345.239H532.251V368.519H551.683V345.239Z" fill="#007690"/>
<path opacity="0.1" d="M477.504 402.654H458.073V425.935H477.504V402.654Z" fill="#007690"/>
<path opacity="0.1" d="M551.683 402.654H532.251V425.935H551.683V402.654Z" fill="#007690"/>
<path opacity="0.1" d="M477.504 460.078H458.073V483.359H477.504V460.078Z" fill="#007690"/>
<path opacity="0.1" d="M551.683 460.078H532.251V483.359H551.683V460.078Z" fill="#007690"/>
<path opacity="0.1" d="M477.504 517.502H458.073V540.782H477.504V517.502Z" fill="#007690"/>
<path opacity="0.1" d="M551.683 517.502H532.251V540.782H551.683V517.502Z" fill="#007690"/>
<path opacity="0.1" d="M-59.7018 244.242V257.56H6.79729V244.242H-59.7018ZM-53.0744 256.725H-58.4993V245.06H-53.0334L-53.0744 256.725ZM-46.4539 256.725H-51.9198V245.06H-46.4539V256.725ZM-39.847 256.725H-45.3129V245.06H-39.847V256.725ZM-33.2265 256.725H-38.6856V245.06H-33.2197L-33.2265 256.725ZM-26.6128 256.725H-32.0787V245.06H-26.6128V256.725ZM-19.9923 256.725H-25.4582V245.06H-19.9923V256.725ZM-13.3718 256.725H-18.8376V245.06H-13.3718V256.725ZM-6.75807 256.725H-12.2239V245.06H-6.75807V256.725ZM-0.144363 256.725H-5.61023V245.06H-0.144363V256.725ZM6.46933 256.725H1.00346V245.06H6.46933V256.725Z" fill="#007690"/>
<path opacity="0.1" d="M-59.7018 282.993V296.312H6.79729V282.993H-59.7018ZM-53.0744 295.469H-58.4993V283.836H-53.0334L-53.0744 295.469ZM-46.4539 295.469H-51.9198V283.836H-46.4539V295.469ZM-39.847 295.469H-45.3129V283.836H-39.847V295.469ZM-33.2265 295.469H-38.6856V283.836H-33.2197L-33.2265 295.469ZM-26.6128 295.469H-32.0787V283.836H-26.6128V295.469ZM-19.9923 295.469H-25.4582V283.836H-19.9923V295.469ZM-13.3718 295.469H-18.8376V283.836H-13.3718V295.469ZM-6.75807 295.469H-12.2239V283.836H-6.75807V295.469ZM-0.144363 295.469H-5.61023V283.836H-0.144363V295.469ZM6.46933 295.469H1.00346V283.836H6.46933V295.469Z" fill="#007690"/>
<path opacity="0.1" d="M-59.7018 321.762V335.105H6.79729V321.762H-59.7018ZM-53.0744 334.237H-58.4993V322.597H-53.0334L-53.0744 334.237ZM-46.4539 334.237H-51.9198V322.597H-46.4539V334.237ZM-39.847 334.237H-45.3129V322.597H-39.847V334.237ZM-33.2265 334.237H-38.6856V322.597H-33.2197L-33.2265 334.237ZM-26.6128 334.237H-32.0787V322.597H-26.6128V334.237ZM-19.9923 334.237H-25.4582V322.597H-19.9923V334.237ZM-13.3718 334.237H-18.8376V322.597H-13.3718V334.237ZM-6.75807 334.237H-12.2239V322.597H-6.75807V334.237ZM-0.144363 334.237H-5.61023V322.597H-0.144363V334.237ZM6.46933 334.237H1.00346V322.597H6.46933V334.237Z" fill="#007690"/>
<path opacity="0.1" d="M-59.7018 360.53V373.832H6.79729V360.53H-59.7018ZM-53.0744 373.005H-58.4993V361.357H-53.0334L-53.0744 373.005ZM-46.4539 373.005H-51.9198V361.357H-46.4539V373.005ZM-39.847 373.005H-45.3129V361.357H-39.847V373.005ZM-33.2265 373.005H-38.6856V361.357H-33.2197L-33.2265 373.005ZM-26.6128 373.005H-32.0787V361.357H-26.6128V373.005ZM-19.9923 373.005H-25.4582V361.357H-19.9923V373.005ZM-13.3718 373.005H-18.8376V361.357H-13.3718V373.005ZM-6.75807 373.005H-12.2239V361.357H-6.75807V373.005ZM-0.144363 373.005H-5.61023V361.357H-0.144363V373.005ZM6.46933 373.005H1.00346V361.357H6.46933V373.005Z" fill="#007690"/>
<path opacity="0.1" d="M-59.4148 399.29C-59.1484 400.542 -58.8478 401.795 -58.5335 403.031V400.125H-53.0676V411.765H-55.9918C-55.903 412.035 -55.8142 412.33 -55.7254 412.584H6.79729V399.29H-59.4148ZM-46.4334 411.765H-51.8993V400.125H-46.4334V411.765ZM-39.8265 411.765H-45.2924V400.125H-39.8265V411.765ZM-33.206 411.765H-38.6855V400.125H-33.2197L-33.206 411.765ZM-26.5923 411.765H-32.0582V400.125H-26.5923V411.765ZM-19.9718 411.765H-25.4377V400.125H-19.9718V411.765ZM-13.3513 411.765H-18.8171V400.125H-13.3513V411.765ZM-6.73757 411.765H-12.2034V400.125H-6.73757V411.765ZM-0.123869 411.765H-5.58973V400.125H-0.123869V411.765ZM6.48982 411.765H1.02396V400.125H6.48982V411.765Z" fill="#007690"/>
<path opacity="0.1" d="M-43.9738 438.058C-43.803 438.32 -43.639 438.615 -43.4613 438.877H-39.847V444.468C-39.4576 445.024 -39.075 445.581 -38.6787 446.105V438.844H-33.2128V450.525H-35.4265C-35.2079 450.795 -34.9961 451.082 -34.7433 451.344H6.81779V438.058H-43.9738ZM-26.6128 450.525H-32.0787V438.893H-26.6128V450.525ZM-19.9923 450.525H-25.4582V438.893H-19.9923V450.525ZM-13.3718 450.525H-18.8376V438.893H-13.3718V450.525ZM-6.75806 450.525H-12.2239V438.893H-6.75806V450.525ZM-0.144359 450.525H-5.61022V438.893H-0.144359V450.525ZM6.46933 450.525H1.00347V438.893H6.46933V450.525Z" fill="#007690"/>
<path opacity="0.1" d="M-7.49597 476.818C-6.87423 477.244 -6.23882 477.637 -5.59658 478.062V477.653H-0.130719V481.337L1.03079 481.983V477.653H6.49665V484.734C6.60147 484.796 6.71136 484.846 6.8246 484.881V476.818H-7.49597Z" fill="#007690"/>
<path opacity="0.1" d="M443.486 273.342H443.527H443.486ZM401.399 514.94H402.082H401.399ZM357.487 392.013C357.617 392.537 357.726 393.06 357.849 393.576C357.74 393.06 357.624 392.537 357.487 392.013ZM443.486 273.318H443.527H443.486ZM30.8129 150.743V154.238H61.333V150.743H30.8129ZM401.399 514.94H402.082H401.399ZM357.487 392.013C357.617 392.537 357.726 393.06 357.849 393.576C357.74 393.06 357.624 392.537 357.487 392.013ZM443.486 273.318H443.527H443.486ZM401.399 514.915H402.082H401.399ZM357.487 392.013C357.617 392.537 357.726 393.06 357.849 393.576C357.74 393.06 357.624 392.537 357.487 392.013Z" fill="#007690"/>
<path d="M243.38 310.793C243.38 310.793 240.688 310.342 240.688 305.644C240.688 300.945 238.762 292.17 238.762 292.17C238.762 292.129 237.095 276.887 234.792 274.464C232.49 272.041 229.531 257.814 229.531 257.814C229.531 257.814 229.026 250.094 227.994 248.433C226.962 246.771 225.569 242.703 223.512 236.899C221.455 231.095 212.881 227.076 212.881 227.076C212.881 227.076 197.378 216.303 192.985 212.791C192.586 212.503 192.213 212.165 191.871 211.785C191.106 210.581 187.772 210.557 187.772 210.557C187.424 207.921 187.089 204.892 186.98 202.15C186.98 201.855 186.98 201.56 186.945 201.266C191.844 197.796 195.534 192.326 197.337 185.86C197.419 185.549 197.488 185.221 197.563 184.91C197.856 184.795 198.126 184.607 198.356 184.358C198.585 184.11 198.769 183.808 198.895 183.47C199.291 182.414 199.298 181.178 199.79 180.195C200.364 179.033 201.457 178.411 202.318 177.535C204.491 175.325 205.051 171.6 204.949 168.211C204.88 165.469 204.511 162.702 204.655 159.976L204.696 159.289C204.737 158.879 204.785 158.47 204.846 158.077C205.181 156.047 205.912 154.132 206.322 152.118C206.732 150.104 206.773 147.837 205.816 146.101C204.416 143.555 201.498 143.048 198.936 142.786C196.032 142.491 193.436 142.876 191.578 139.986C190.708 138.476 189.729 137.06 188.653 135.754C188.271 135.329 184.554 132.611 184.554 132.431C180.926 130.418 176.815 130.04 172.973 131.367C171.047 132.038 169.229 133.135 167.275 133.683C163.06 134.878 158.209 133.585 154.628 136.475C152.633 138.112 151.438 140.715 150.317 143.253C149.406 145.343 148.482 147.43 147.543 149.515C146.033 152.945 144.496 156.432 143.861 160.23C143.727 161.057 143.645 161.894 143.615 162.735V162.776C143.615 163.079 143.615 163.382 143.615 163.684V164.069C143.615 164.356 143.615 164.634 143.656 164.888C143.697 165.142 143.69 165.223 143.71 165.395C143.731 165.567 143.765 165.952 143.806 166.214C143.847 166.476 143.929 166.934 144.011 167.294C144.045 167.45 144.093 167.597 144.134 167.745C144.202 168.023 144.284 168.293 144.373 168.563C144.421 168.702 144.469 168.85 144.523 168.989C144.626 169.275 144.749 169.554 144.872 169.807C144.927 169.922 144.968 170.028 145.022 170.135C145.213 170.516 145.423 170.882 145.651 171.232C147.113 173.417 149.265 174.809 150.857 176.855C150.857 176.937 150.857 177.019 150.857 177.093C150.857 177.322 150.857 177.543 150.857 177.772C150.941 182.336 151.955 186.807 153.811 190.794C155.666 194.782 158.306 198.166 161.502 200.652C161.502 200.963 161.536 201.282 161.55 201.593C161.683 204.023 161.658 206.462 161.474 208.887C161.196 208.494 160.848 208.181 160.455 207.972C160.063 207.762 159.636 207.661 159.206 207.675C158.913 207.658 158.618 207.688 158.332 207.765L158.27 207.708V207.782C156.767 208.224 154.915 210.098 153.146 215.427C153.146 215.427 147.762 222.696 143.663 222.393C139.563 222.091 129.185 229.957 129.185 229.957C129.185 229.957 119.059 237.832 116.887 245.854C115.672 250.403 114.216 254.854 112.528 259.181L100.011 290.082L97.7014 314.599C97.7014 314.599 98.9791 325.503 98.7263 327.164C98.4735 328.826 103.98 343.814 103.98 343.814C103.98 343.814 122.175 382.116 129.608 384.081L130.141 383.63C130.459 383.829 130.797 383.981 131.146 384.081L132.676 382.787C132.768 384.229 132.729 385.678 132.56 387.109C131.535 390.891 132.943 415.572 134.733 420.409C136.523 425.247 135.887 488.679 135.887 488.679L135.635 494.279C135.635 494.279 135.635 494.459 135.696 494.77L135.635 496.096L135.819 496.21C136.011 497.986 135.948 499.789 135.635 501.539C134.992 503.995 134.733 510.937 134.733 510.937C134.733 510.937 129.615 550.131 132.041 558.006C134.466 565.88 136.53 574.508 136.53 574.508C136.53 574.508 139.092 584.331 136.653 586.009C134.213 587.687 127.279 590.503 128.707 594.596C130.005 598.378 134.931 608.512 135.662 609.994L135.6 610.772L134.596 623.812C134.759 625.533 135.148 627.213 135.751 628.789C136.851 631.629 138.989 634.576 143.054 634.257C143.738 634.2 144.53 634.101 145.295 633.978C152.736 632.783 161.898 628.805 161.898 628.805C161.422 628.443 160.986 628.011 160.6 627.52V627.52C160.234 627.095 159.944 626.586 159.748 626.023C159.552 625.46 159.454 624.855 159.459 624.245C159.568 621.872 155.858 610.559 154.936 607.776C154.792 607.374 154.717 607.145 154.717 607.145C154.717 607.145 163.176 596.553 161.768 587.164C161.768 587.164 152.408 580.615 155.489 577.021C158.571 573.428 164.078 563.105 164.078 563.105C164.078 563.105 164.33 524.509 164.078 518.746C163.814 514.746 163.972 510.723 164.549 506.77C164.651 506.173 164.774 505.591 164.904 505.018C169.166 505.781 173.468 506.172 177.776 506.189C179.348 506.189 180.947 506.189 182.559 506.074C182.559 506.62 182.58 507.21 182.621 507.843C182.976 517.404 183.639 534.168 184.178 540.398C184.943 549.328 189.173 573.395 189.173 573.395C189.173 573.395 181.104 579.6 190.58 594.891C190.58 594.891 190.58 600.433 189.952 601.235C189.281 603.857 188.74 606.525 188.332 609.224C187.936 612.106 187.772 615.02 188.414 616.534C189.952 620.153 199.175 619.858 199.175 619.858L199.401 619.809C201.142 619.593 202.902 619.794 204.578 620.4C206.254 621.005 207.813 622.004 209.164 623.337C212.669 626.709 225.972 625.228 233.173 624.155C235.995 623.73 237.88 623.337 237.88 623.337C237.972 622.954 238.004 622.555 237.976 622.158C237.901 620.038 236.514 615.388 227.113 611.238C227.113 611.238 218.272 604.116 218.395 597.912H218.21H217.185C217.93 597.862 218.408 597.912 218.408 597.912C218.408 597.912 214.944 582.768 216.359 581.54C217.773 580.312 213.537 563.531 213.537 563.531C213.537 563.531 211.111 535.372 210.982 533.399C210.987 531.706 211.201 530.023 211.617 528.405L210.982 512.967C210.982 512.967 210.859 507.834 210.982 506.164C210.961 504.715 210.863 503.269 210.688 501.834C210.626 501.261 210.565 500.664 210.496 500.074C213.81 499.067 215.962 498.134 215.962 498.134L215.58 444.394C218.395 437.845 218.914 423.479 218.9 413.288C218.9 406.739 218.654 401.893 218.654 401.893L222.501 394.37C222.501 394.37 223.389 385.366 221.982 383.393C221.36 382.501 221.64 381.576 222.152 380.814C222.419 380.562 222.699 380.332 222.993 380.127C222.993 380.127 222.952 380.053 222.904 379.947C223.173 379.678 223.458 379.434 223.758 379.218C223.758 379.218 222.392 376.68 223.614 375.608C224.762 376.541 225.787 377.245 226.566 377.818C226.511 378.416 226.457 378.76 226.457 378.76L226.785 377.941C227.536 378.449 227.994 378.76 227.994 378.76C227.994 378.76 234.02 364.377 233.89 362.257C233.761 360.137 237.99 351.206 237.99 351.206C237.99 351.206 238.502 346.516 240.811 344.551C243.121 342.586 242.602 328.351 242.602 328.351C242.602 328.351 243.244 320.935 244.781 317.906C246.318 314.877 243.38 310.793 243.38 310.793ZM128.078 304.481L128.194 307.911C127.511 306.593 127.019 305.644 127.019 305.644L128.078 304.481Z" fill="url(#paint0_linear_1_7)"/>
<path d="M228.322 372.547L226.846 380.078C226.846 380.078 215.026 372.85 212.895 363.665C210.763 354.48 216.461 350.993 216.461 350.993L227.475 356.584L228.322 372.547Z" fill="white"/>
<path opacity="0.1" d="M228.322 372.547L226.846 380.078C226.846 380.078 215.026 372.85 212.895 363.665C210.763 354.48 216.461 350.993 216.461 350.993L227.475 356.584L228.322 372.547Z" fill="#007C98"/>
<path d="M178.207 240.967C169.188 236.768 157.587 222.893 160.484 216.41C161.127 214.774 161.509 213.008 161.611 211.203C161.797 208.754 161.825 206.291 161.693 203.836C161.49 199.816 161.086 195.814 160.484 191.852C160.484 191.852 188.64 192.613 187 197.582C186.522 199.039 186.447 201.569 186.576 204.401C186.706 207.233 187.048 210.434 187.403 213.143C187.895 216.86 188.387 219.692 188.387 219.692C188.387 219.692 186.665 222.582 185.654 222.737C184.643 222.893 191.147 246.951 178.207 240.967Z" fill="#CF6F80"/>
<path d="M165.635 503.25C165.177 504.607 164.83 506.013 164.597 507.45C164.027 511.384 163.869 515.387 164.125 519.368C164.378 525.098 164.125 563.498 164.125 563.498C164.125 563.498 158.721 573.739 155.708 577.349C152.695 580.959 161.857 587.442 161.857 587.442C163.224 596.774 154.943 607.317 154.943 607.317C146.525 595.12 136.345 610.329 136.345 610.329C136.345 610.329 130.811 598.869 129.431 594.776C128.051 590.683 134.835 587.851 137.22 586.189C139.604 584.528 137.104 574.729 137.104 574.729C137.104 574.729 135.088 566.142 132.697 558.308C130.305 550.474 135.334 511.477 135.334 511.477C135.334 511.477 135.594 504.552 136.215 502.137C136.529 500.394 136.591 498.6 136.4 496.833C136.359 496.235 136.311 495.736 136.277 495.4C136.243 495.064 136.215 494.909 136.215 494.909L136.311 494.712L139.727 487.083C139.727 487.083 167.275 498.445 165.635 503.25Z" fill="#007690"/>
<path d="M217.424 598.133C217.424 598.133 211.275 597.977 207.996 601.407C204.716 604.837 188.865 602.16 189.548 601.407C190.232 600.654 190.177 595.079 190.177 595.079C180.878 579.87 188.811 573.698 188.811 573.698C188.811 573.698 184.657 549.754 183.905 540.872C183.379 534.668 182.73 517.993 182.381 508.473C182.231 504.38 182.142 501.564 182.142 501.564L189.74 499.73L190.717 499.493L209.041 495.089C209.041 495.089 209.547 499.182 209.888 502.53C210.059 503.959 210.154 505.4 210.175 506.844C210.052 508.481 210.175 513.605 210.175 513.605L210.797 528.97C210.391 530.582 210.181 532.256 210.175 533.939C210.298 535.896 212.683 563.908 212.683 563.908C212.683 563.908 216.83 580.623 215.416 581.826C214.001 583.03 217.424 598.133 217.424 598.133Z" fill="#007690"/>
<path opacity="0.1" d="M187 197.582C186.522 199.039 186.447 201.569 186.576 204.401C182.805 207.122 178.469 208.513 174.068 208.415C169.666 208.316 165.377 206.732 161.693 203.844C161.49 199.821 161.086 195.817 160.484 191.852C160.484 191.852 188.64 192.597 187 197.582Z" fill="#007C98"/>
<path d="M197.884 179.491C197.889 182.441 197.502 185.373 196.736 188.177C195.024 194.458 191.514 199.812 186.826 203.293C182.138 206.774 176.574 208.157 171.117 207.198C165.66 206.239 160.662 202.999 157.006 198.052C153.35 193.105 151.271 186.768 151.137 180.163C151.137 179.933 151.137 179.721 151.137 179.491C151.084 175.773 151.65 172.079 152.8 168.625C153.951 165.172 155.665 162.027 157.841 159.375C160.017 156.723 162.612 154.617 165.474 153.179C168.337 151.741 171.41 151.001 174.514 151.001C177.618 151.001 180.691 151.741 183.553 153.179C186.416 154.617 189.011 156.723 191.187 159.375C193.363 162.027 195.076 165.172 196.227 168.625C197.378 172.079 197.944 175.773 197.891 179.491H197.884Z" fill="#CF6F80"/>
<path opacity="0.1" d="M178.207 240.967C169.188 236.768 157.587 222.893 160.484 216.41C161.127 214.774 161.509 213.008 161.611 211.203L173.957 223.359L181.596 230.866L187.403 213.152C187.895 216.868 188.387 219.7 188.387 219.7C188.387 219.7 186.665 222.59 185.654 222.745C184.643 222.901 191.147 246.951 178.207 240.967Z" fill="#007C98"/>
<path d="M210.134 294.691L199.824 502.202L186.378 503.258L151.561 382.935L157.273 240.083L158.475 209.902L173.957 225.136L181.602 232.642L187.581 214.412L198.697 226.02L210.134 294.691Z" fill="#007690"/>
<path opacity="0.1" d="M165.635 503.25C165.177 504.607 164.83 506.013 164.597 507.45C154.813 505.64 145.311 502.083 136.407 496.898L136.222 496.783L136.284 495.466L136.318 494.778L139.734 487.149C139.734 487.149 167.275 498.445 165.635 503.25Z" fill="#007C98"/>
<path opacity="0.1" d="M189.897 507.482C187.396 507.992 184.873 508.336 182.34 508.514C182.19 504.421 182.101 501.605 182.101 501.605L189.699 499.771L189.897 507.482Z" fill="#007C98"/>
<path opacity="0.1" d="M209.847 502.571C204.99 504.085 197.488 505.788 190.771 504.724L190.676 499.534L209 495.13C209 495.13 209.506 499.182 209.847 502.571Z" fill="#007C98"/>
<path opacity="0.1" d="M190.648 505.673C162.636 511.403 136.981 494.974 136.981 494.974L137.226 489.408C137.226 489.408 137.862 426.303 136.099 421.465C134.336 416.628 132.963 392.095 133.961 388.329C134.958 384.564 130.319 328.097 130.319 328.097L129.567 305.177L102.06 291.826L114.359 261.113C116.02 256.806 117.448 252.377 118.636 247.851C120.774 239.878 130.702 232.045 130.702 232.045C130.702 232.045 140.882 224.219 144.906 224.514C148.93 224.808 154.205 217.588 154.205 217.588C158.099 205.694 161.625 211.081 161.625 211.081C161.625 211.645 161.625 211.081 161.433 212.841C160.067 225.897 183.529 267.154 183.864 267.882L186.098 333.091L188.36 415.612L190.648 505.673Z" fill="#007C98"/>
<path d="M189.897 505.673C161.884 511.403 136.222 494.974 136.222 494.974L136.475 489.408C136.475 489.408 137.11 426.303 135.341 421.465C133.571 416.628 132.205 392.095 133.209 388.329C134.213 384.564 129.567 328.097 129.567 328.097L128.809 305.177L101.288 291.777L113.587 261.063C115.244 256.755 116.673 252.326 117.864 247.802C119.995 239.829 129.93 231.995 129.93 231.995C129.93 231.995 140.11 224.17 144.127 224.464C148.145 224.759 153.426 217.539 153.426 217.539C157.327 205.645 161.625 211.031 161.625 211.031C161.625 211.596 161.215 211.85 161.433 212.791C164.44 225.455 182.778 267.105 183.112 267.833L185.374 333.042L187.635 415.563L189.897 505.673Z" fill="white"/>
<path opacity="0.1" d="M182.347 269.691C179.334 268.185 163.374 246.353 163.374 246.353V241.385C162.793 239.747 159.343 240.746 156.542 241.892L157.744 211.711L159.11 213.07C162.103 225.725 181.999 268.963 182.347 269.691Z" fill="#007C98"/>
<path d="M183.106 267.882C180.086 266.376 164.125 244.544 164.125 244.544V239.576C163.545 237.938 160.094 238.937 157.293 240.083L158.502 209.902L159.869 211.261C162.868 223.916 182.771 267.162 183.106 267.882Z" fill="white"/>
<path opacity="0.1" d="M136.981 376.762C137.356 376.762 156.459 374.356 156.459 374.356C156.459 374.356 168.027 401.606 167.268 408.237C166.51 414.868 165.137 420.737 160.484 419.697C155.831 418.658 135.443 420.516 135.443 420.516L136.981 376.762Z" fill="#007C98"/>
<path d="M136.222 374.953C136.598 374.953 155.701 372.547 155.701 372.547C155.701 372.547 167.261 399.806 166.51 406.428C165.758 413.05 164.371 418.928 159.725 417.888C155.079 416.849 134.685 418.707 134.685 418.707L136.222 374.953Z" fill="white"/>
<path d="M150.618 362.159C150.618 362.159 168.15 373.447 168.525 376.893C168.901 380.34 159.602 375.387 157.594 374.79C156.272 374.408 154.926 374.156 153.569 374.037L140.171 374.47L150.618 362.159Z" fill="#CF6F80"/>
<path opacity="0.1" d="M177.455 271.099C178.474 271.099 179.3 270.11 179.3 268.889C179.3 267.668 178.474 266.679 177.455 266.679C176.436 266.679 175.611 267.668 175.611 268.889C175.611 270.11 176.436 271.099 177.455 271.099Z" fill="#007C98"/>
<path d="M177.455 270.199C178.474 270.199 179.3 269.209 179.3 267.989C179.3 266.768 178.474 265.779 177.455 265.779C176.436 265.779 175.611 266.768 175.611 267.989C175.611 269.209 176.436 270.199 177.455 270.199Z" fill="#3F3D56"/>
<path opacity="0.1" d="M180.851 366.776C181.87 366.776 182.696 365.786 182.696 364.565C182.696 363.345 181.87 362.355 180.851 362.355C179.832 362.355 179.006 363.345 179.006 364.565C179.006 365.786 179.832 366.776 180.851 366.776Z" fill="#007C98"/>
<path d="M180.851 365.867C181.87 365.867 182.696 364.877 182.696 363.657C182.696 362.436 181.87 361.447 180.851 361.447C179.832 361.447 179.006 362.436 179.006 363.657C179.006 364.877 179.832 365.867 180.851 365.867Z" fill="#3F3D56"/>
<path opacity="0.1" d="M179.293 318.937C180.312 318.937 181.138 317.948 181.138 316.727C181.138 315.507 180.312 314.517 179.293 314.517C178.274 314.517 177.448 315.507 177.448 316.727C177.448 317.948 178.274 318.937 179.293 318.937Z" fill="#007C98"/>
<path d="M179.293 318.037C180.312 318.037 181.138 317.048 181.138 315.827C181.138 314.606 180.312 313.617 179.293 313.617C178.274 313.617 177.448 314.606 177.448 315.827C177.448 317.048 178.274 318.037 179.293 318.037Z" fill="#3F3D56"/>
<path d="M221.818 373.578C221.818 373.578 223.075 375.837 221.818 376.893C220.56 377.949 221.941 380.503 221.941 380.503C221.941 380.503 218.805 382.705 220.185 384.686C221.565 386.667 220.69 395.614 220.69 395.614L216.919 403.096C216.919 403.096 217.144 407.918 217.158 414.434C217.158 424.601 216.659 438.893 213.899 445.409L214.282 498.871C214.282 498.871 201.075 504.65 190.02 502.89L188.38 417.102C188.38 417.102 190.771 368.454 191.653 359.122C192.169 354.277 192.379 349.393 192.281 344.51C192.281 344.51 191.906 329.907 190.642 323.129C190.642 323.129 189.275 293.766 189.139 285.637C189.077 281.749 189.248 270.404 189.439 259.615C189.651 247.819 189.89 236.694 189.89 236.694L187.396 213.053C187.396 213.053 189.89 212.751 190.642 213.954C190.978 214.331 191.344 214.668 191.735 214.961V214.961C196.039 218.448 211.248 229.171 211.248 229.171C211.248 229.171 219.665 233.182 221.681 238.929C223.696 244.675 225.097 248.752 226.074 250.389C227.051 252.026 227.584 259.721 227.584 259.721C227.584 259.721 230.481 273.883 232.742 276.281C235.004 278.679 236.657 293.938 236.657 293.938L216.673 312.765C216.673 312.765 214.917 344.084 214.541 345.296C214.165 346.507 221.818 373.578 221.818 373.578Z" fill="white"/>
<path d="M222.576 373.578C222.576 373.578 223.826 375.837 222.576 376.893C221.326 377.949 222.692 380.503 222.692 380.503C222.692 380.503 219.577 382.73 220.943 384.711C222.309 386.692 221.449 395.639 221.449 395.639L217.677 403.121C217.677 403.121 217.903 407.942 217.923 414.458C217.923 424.625 217.424 438.918 214.664 445.434L215.04 498.895C215.04 498.895 201.813 504.675 190.771 502.915L189.139 417.127C189.139 417.127 191.53 368.478 192.411 359.146C192.928 354.302 193.135 349.417 193.033 344.535C193.033 344.535 192.657 329.931 191.4 323.153C191.4 323.153 190.034 293.791 189.89 285.662C189.829 281.774 190.006 270.428 190.191 259.639C190.403 247.843 190.642 236.719 190.642 236.719L187.348 212.759C187.348 212.759 190.642 212.759 191.4 213.978C191.734 214.36 192.1 214.697 192.493 214.985C196.798 218.472 212.013 229.196 212.013 229.196C212.013 229.196 220.424 233.207 222.439 238.953C224.455 244.7 225.855 248.776 226.839 250.414C227.823 252.051 228.342 259.746 228.342 259.746C228.342 259.746 231.239 273.907 233.501 276.306C235.762 278.704 237.395 293.93 237.395 293.93L217.411 312.757C217.411 312.757 215.655 344.076 215.272 345.288C214.89 346.499 222.576 373.578 222.576 373.578Z" fill="white"/>
<path opacity="0.1" d="M198.642 243.668L200.446 249.972L190.949 261.432C191.161 249.644 191.4 238.511 191.4 238.511L188.107 214.551C188.107 214.551 191.4 214.551 192.158 215.771C192.491 216.151 192.858 216.486 193.252 216.77L201.327 244.684L198.642 243.668Z" fill="#007C98"/>
<path d="M197.884 241.859L199.694 248.163L190.198 259.623C190.409 247.827 190.648 236.702 190.648 236.702L187.348 212.742C187.348 212.742 190.648 212.742 191.4 213.962C191.735 214.341 192.101 214.678 192.493 214.969L200.576 242.874L197.884 241.859Z" fill="white"/>
<path opacity="0.1" d="M197.884 179.491C197.889 182.441 197.502 185.373 196.736 188.177C196.607 188.201 196.475 188.194 196.348 188.156C196.222 188.118 196.103 188.05 195.998 187.956C195.821 180.588 192.794 173.671 189.07 167.786C188.025 166.009 186.757 164.435 185.312 163.12C183.852 161.805 182.035 161.189 180.216 161.392C178.166 161.728 176.355 163.398 174.285 163.611C171.552 163.881 169.106 161.613 166.394 161.499C165.291 161.511 164.203 161.806 163.203 162.362C162.203 162.918 161.313 163.723 160.593 164.724C159.168 166.744 158.109 169.097 157.484 171.633C156.41 175.479 155.825 179.497 155.749 183.552C155.715 185.844 155.53 188.717 153.754 189.552C153.888 187.866 153.728 186.166 153.284 184.558C152.841 182.95 152.124 181.47 151.178 180.212L151.137 180.163C151.137 179.933 151.137 179.721 151.137 179.491C151.084 175.773 151.65 172.079 152.8 168.625C153.951 165.172 155.665 162.027 157.841 159.375C160.017 156.723 162.612 154.617 165.474 153.179C168.337 151.741 171.41 151.001 174.514 151.001C177.618 151.001 180.691 151.741 183.553 153.179C186.416 154.617 189.011 156.723 191.187 159.375C193.363 162.027 195.076 165.172 196.227 168.625C197.378 172.079 197.944 175.773 197.891 179.491H197.884Z" fill="#007C98"/>
<path d="M184.192 135.018C180.642 133.017 176.603 132.638 172.837 133.953C170.944 134.625 169.161 135.713 167.241 136.262C163.142 137.449 158.359 136.164 154.84 139.037C152.886 140.674 151.711 143.261 150.618 145.774L147.885 152.011C146.395 155.425 144.892 158.896 144.271 162.653C143.649 166.41 144.025 170.618 146.013 173.638C147.461 175.84 149.6 177.224 151.171 179.295C152.113 180.555 152.827 182.034 153.269 183.639C153.711 185.245 153.871 186.943 153.74 188.627C155.523 187.808 155.694 184.927 155.735 182.635C155.811 178.58 156.396 174.562 157.471 170.716C158.094 168.179 159.153 165.826 160.579 163.807C161.3 162.807 162.19 162.002 163.19 161.446C164.19 160.89 165.278 160.596 166.38 160.582C169.113 160.697 171.566 162.956 174.271 162.686C176.321 162.481 178.138 160.803 180.202 160.476C182.021 160.269 183.839 160.885 185.299 162.203C186.743 163.516 188.009 165.09 189.05 166.869C192.78 172.754 195.807 179.655 195.985 187.039C196.757 187.718 197.87 186.834 198.253 185.786C198.635 184.738 198.649 183.511 199.134 182.512C199.694 181.358 200.767 180.744 201.608 179.876C203.739 177.674 204.272 173.966 204.19 170.602C204.108 167.237 203.562 163.824 204.095 160.517C204.416 158.486 205.14 156.587 205.536 154.582C205.932 152.576 205.98 150.325 205.044 148.598C203.678 146.06 200.801 145.561 198.294 145.324C195.445 145.029 192.896 145.405 191.079 142.532C190.226 141.033 189.266 139.625 188.209 138.325C187.847 137.899 184.192 135.198 184.192 135.018Z" fill="#512E4E"/>
<path opacity="0.1" d="M109.931 307.641L102.792 291.826L100.53 316.228C100.53 316.228 101.787 327.066 101.534 328.728C101.282 330.389 106.686 345.288 106.686 345.288C106.686 345.288 124.539 383.385 131.829 385.349L156.46 364.263L149.928 354.325C149.928 354.325 147.666 353.269 147.099 354.325C147.099 354.325 134.972 329.325 133.715 327.516C132.458 325.707 132.703 322.097 132.703 322.097C132.703 322.097 130.818 319.691 131.446 317.431C132.075 315.172 127.805 307.338 127.805 307.338L131.699 302.975L109.931 307.641Z" fill="#007C98"/>
<path d="M103.167 290.025L101.282 291.826L99.0201 316.228C99.0201 316.228 100.277 327.066 100.024 328.728C99.7716 330.389 105.183 345.288 105.183 345.288C105.183 345.288 123.029 383.385 130.319 385.349L154.956 364.263L148.418 354.325C148.418 354.325 146.156 353.269 145.589 354.325C145.589 354.325 133.462 329.325 132.205 327.516C130.948 325.707 131.2 322.097 131.2 322.097C131.2 322.097 129.315 319.691 129.943 317.431C130.572 315.172 126.295 307.338 126.295 307.338L130.189 302.975L103.167 290.025Z" fill="white"/>
<path opacity="0.1" d="M220.185 385.62C221.551 387.609 220.69 396.539 220.69 396.539L216.919 404.021C216.919 404.021 217.144 408.851 217.158 415.359L210.818 417.733C210.245 417.947 209.637 417.994 209.046 417.87C208.454 417.746 207.896 417.454 207.418 417.019C206.94 416.584 206.556 416.019 206.298 415.369C206.039 414.72 205.914 414.007 205.932 413.288L207.026 371.04L221.818 377.818C220.56 378.866 221.941 381.436 221.941 381.436C221.941 381.436 218.805 383.63 220.185 385.62Z" fill="#007C98"/>
<path d="M220.943 384.711C222.31 386.7 221.449 395.639 221.449 395.639L217.677 403.121C217.677 403.121 217.903 407.942 217.923 414.458L211.467 416.873C210.905 417.082 210.311 417.127 209.732 417.005C209.153 416.883 208.607 416.597 208.139 416.171C207.671 415.745 207.295 415.191 207.042 414.556C206.789 413.921 206.666 413.222 206.684 412.518L207.784 370.14L222.583 376.918C221.319 377.966 222.699 380.528 222.699 380.528C222.699 380.528 219.577 382.73 220.943 384.711Z" fill="white"/>
<path d="M225.842 364.574C225.842 364.574 224.838 372.26 222.323 372.71C219.809 373.161 218.682 385.145 216.174 384.719C213.667 384.293 215.327 373.578 215.416 371.499C215.505 369.42 212.683 360.808 214.794 358.852C216.905 356.895 223.587 358.852 223.587 358.852L225.842 364.574Z" fill="#CF6F80"/>
<path opacity="0.1" d="M231.192 305.382L235.933 293.921C235.933 293.921 237.819 302.656 237.819 307.322C237.819 311.988 240.456 312.446 240.456 312.446C240.456 312.446 243.346 316.539 241.823 319.519C240.299 322.498 239.684 329.915 239.684 329.915C239.684 329.915 240.183 344.068 237.921 346.024C235.66 347.981 235.188 352.655 235.188 352.655C235.188 352.655 231.034 361.537 231.164 363.649C231.294 365.761 225.384 380.061 225.384 380.061C225.384 380.061 228.274 362.29 211.432 354.611C211.432 354.611 211.303 348.578 212.56 346.925C213.817 345.271 215.778 344.518 214.548 336.161C213.318 327.803 214.193 317.816 214.193 315.81C214.193 313.805 217.964 301.297 217.964 301.297L231.192 305.382Z" fill="#007C98"/>
<path d="M233.241 292.284L237.382 293.921C237.382 293.921 239.274 302.656 239.274 307.322C239.274 311.988 241.912 312.446 241.912 312.446C241.912 312.446 244.802 316.539 243.278 319.519C241.754 322.498 241.146 329.915 241.146 329.915C241.146 329.915 241.645 344.068 239.384 346.024C237.122 347.981 236.616 352.655 236.616 352.655C236.616 352.655 232.469 361.537 232.599 363.649C232.729 365.761 226.812 380.061 226.812 380.061C226.812 380.061 229.709 362.29 212.86 354.611C212.86 354.611 212.737 348.578 213.995 346.925C215.252 345.271 217.213 344.518 215.983 336.161C214.753 327.803 215.628 317.816 215.628 315.81C215.628 313.805 219.399 301.297 219.399 301.297L233.241 292.284Z" fill="white"/>
<g opacity="0.1">
<path opacity="0.1" d="M201.621 178.083C200.781 178.951 199.701 179.573 199.141 180.727C198.663 181.718 198.649 182.938 198.267 184.002C197.884 185.066 196.77 185.934 195.998 185.262C195.821 177.895 192.787 170.978 189.063 165.084C188.022 163.306 186.757 161.731 185.312 160.418C183.85 159.101 182.03 158.485 180.209 158.691C178.159 159.027 176.355 160.697 174.285 160.901C171.552 161.18 169.099 158.912 166.387 158.797C165.285 158.811 164.197 159.106 163.198 159.664C162.199 160.221 161.311 161.028 160.593 162.031C159.167 164.046 158.108 166.397 157.484 168.932C156.411 172.778 155.826 176.796 155.749 180.85C155.708 183.134 155.53 185.983 153.768 186.834C153.809 187.439 153.809 188.047 153.768 188.651C155.544 187.833 155.722 184.951 155.763 182.659C155.839 178.605 156.424 174.587 157.498 170.741C158.122 168.204 159.18 165.85 160.607 163.832C161.326 162.832 162.215 162.027 163.214 161.471C164.213 160.915 165.299 160.62 166.401 160.607C169.134 160.721 171.593 162.98 174.299 162.71C176.348 162.506 178.166 160.828 180.222 160.5C182.044 160.294 183.864 160.91 185.326 162.227C186.771 163.541 188.036 165.115 189.077 166.893C192.801 172.779 195.834 179.68 196.012 187.063C196.784 187.743 197.898 186.859 198.28 185.811C198.663 184.763 198.676 183.535 199.155 182.536C199.715 181.382 200.795 180.768 201.635 179.901C203.767 177.699 204.299 173.99 204.218 170.626C204.218 170.52 204.218 170.413 204.218 170.315C204.088 173.229 203.439 176.201 201.621 178.083Z" fill="#007C98"/>
<path opacity="0.1" d="M151.185 177.502C149.614 175.431 147.468 174.048 146.027 171.854C144.813 169.912 144.119 167.574 144.038 165.15C143.823 168.179 144.529 171.2 146.027 173.655C147.468 175.857 149.614 177.24 151.185 179.311C152.694 181.337 153.6 183.905 153.761 186.613C153.865 184.965 153.691 183.308 153.249 181.743C152.806 180.177 152.104 178.735 151.185 177.502V177.502Z" fill="#007C98"/>
<path opacity="0.1" d="M205.55 152.789C205.147 154.795 204.429 156.702 204.101 158.724C203.907 160.075 203.836 161.447 203.89 162.817C203.912 162.037 203.983 161.26 204.101 160.492C204.429 158.462 205.147 156.563 205.55 154.557C205.785 153.451 205.861 152.305 205.775 151.168C205.733 151.714 205.657 152.256 205.55 152.789V152.789Z" fill="#007C98"/>
</g>
<path d="M611.008 386.143C611.008 386.143 599.728 318.905 604.046 310.539C604.046 310.539 604.203 302.762 603.943 292.849C603.943 292.473 603.943 292.096 603.943 291.711C604.703 292.318 605.495 292.865 606.314 293.348C610.292 295.797 614.86 296.504 619.227 295.346L615.811 290.786C614.991 289.698 614.137 288.519 613.959 287.078C613.782 285.637 614.274 284.352 614.697 283.067C617.943 273.244 618.113 260.892 611.862 253.393C606.58 247.09 605.296 238.953 599.564 233.199C595.375 228.983 593.073 222.803 590.9 216.827C589.062 211.776 587.211 206.685 586.159 201.331C585.339 197.148 585.011 192.818 583.883 188.733C582.756 184.648 580.645 180.678 577.345 178.853C576.17 178.206 574.865 177.838 573.792 176.978C572.385 175.84 571.537 173.99 570.519 172.37C565.347 164.184 548.027 169.005 539.828 172.329C537.6 173.166 535.536 174.536 533.761 176.356L533.837 176.209C533.898 176.086 533.973 175.963 534.042 175.84C533.144 176.71 532.369 177.746 531.746 178.91C530.55 181.178 530.051 183.822 529.054 186.277C527.851 189.183 521.163 197.296 524.039 200.562C524.241 200.781 524.472 200.958 524.722 201.086C525.802 201.624 526.991 201.767 528.138 201.495L528.015 201.847C527.033 204.729 526.529 207.812 526.533 210.925C526.533 224.374 535.791 235.278 547.221 235.278C549.37 235.28 551.506 234.886 553.555 234.107C553.602 234.418 553.643 234.73 553.691 235.041C553.691 235.163 553.725 235.286 553.739 235.409L553.377 236.015C553.359 235.977 553.338 235.942 553.315 235.908L542.589 253.868C540.949 255.251 531.507 263.437 530.974 269.577C530.414 276.297 529.853 284.164 529.853 284.164L529.778 285.85C529.309 286.32 528.761 286.661 528.171 286.852C527.582 287.043 526.964 287.078 526.362 286.955C523.014 286.3 523.014 301.69 523.014 301.69C523.014 301.69 520.787 304.146 519.256 302.017C517.726 299.889 513.681 307.101 513.681 307.101L488.333 308.41L487.752 308.451L486.386 303.384C486.239 302.85 485.922 302.406 485.503 302.151C485.085 301.895 484.599 301.847 484.152 302.017C484.046 302.059 483.943 302.111 483.844 302.173L483.749 302.238L483.571 302.386L483.482 302.484C483.433 302.537 483.388 302.595 483.346 302.656L483.264 302.77L483.223 302.82C483.065 303.081 482.96 303.383 482.918 303.701C482.875 304.02 482.895 304.346 482.977 304.653L484.152 309C479.26 310.179 474.259 313.502 478.337 322.654L457.663 318.078L464.352 324.807L498.882 333.345C498.425 334.327 498.725 335.751 500.153 337.757C506.302 346.409 517.507 348.759 522.017 349.364C523.207 352.556 524.695 355.577 526.451 358.369L526.061 366.988C526.061 366.988 514.645 432.688 512.554 436.02C513.609 434.587 514.575 433.063 515.444 431.46C512.13 444.959 507.498 463.434 506.282 466.201C504.328 470.621 502.517 488.508 504.744 489.654C505.428 490.006 507.382 489.834 510.169 489.58V491.062L510.046 547.208C510.046 547.208 510.607 581.646 509.069 584.929C507.532 588.211 507.122 595.096 507.122 595.096C507.122 595.096 500.973 608.676 496.102 614.136C496.068 614.178 496.032 614.217 495.992 614.251L495.842 612.974C495.842 612.974 489.987 621.831 477.033 621.331C477.033 621.331 469.237 627.405 480.797 627.733C492.357 628.06 507.122 627.242 507.122 627.242C507.122 627.242 517.432 608.414 526.068 610.87V625.138H528.712V610.641C529.939 609.673 530.988 608.418 531.797 606.95C532.606 605.483 533.158 603.834 533.42 602.103C533.646 600.319 533.48 598.495 532.939 596.811C532.397 595.127 531.499 593.642 530.332 592.501C529.807 591.933 529.387 591.241 529.096 590.469C528.806 589.697 528.652 588.862 528.644 588.015L528.548 588.113C528.548 587.827 528.487 587.532 528.46 587.229C527.701 579.862 526.751 564.661 530.106 553.413C534.704 537.991 536.098 516.511 532.75 503.725C531.67 499.638 530.783 495.481 530.092 491.274C530.01 490.742 529.935 490.235 529.867 489.76C532.155 490.131 534.422 490.678 536.651 491.397C544.406 493.959 561.371 494.434 575.855 494.295C575.89 494.77 575.931 495.269 575.978 495.768C576.237 499.239 576.777 502.672 577.591 506.017C579.408 512.566 580.242 541.437 580.242 541.437C580.242 541.437 582.585 565.176 581.308 574.836C580.624 580.206 579.941 585.6 579.552 591.019V591.125C579.552 591.125 575.712 604.223 572.904 611.336C572.835 611.516 572.76 611.697 572.692 611.868C571.943 611.95 571.206 612.146 570.499 612.45C570.499 612.45 566.734 621.454 562.983 622.944C559.232 624.434 560.476 629.337 568.968 627.536C577.461 625.735 590.285 624.262 590.285 624.262L590.839 615.077L593.449 611.164L592.765 620.324L595.546 619.67L595.177 608.529L599.447 602.127C599.447 602.127 604.606 596.626 596.94 585.805V586.042C596.858 585.887 596.783 585.723 596.694 585.567V585.518C595.423 583.161 594.412 578.765 596.264 570.964C599.611 556.868 601.559 544.073 601.559 544.073C601.559 544.073 609.033 509.799 600.049 493.583H600.445C599.524 491.301 598.873 488.876 598.511 486.379C598.466 486.085 598.425 485.782 598.388 485.471C605.036 485.012 611.561 483.571 616.884 480.461C616.863 480.428 613.659 399.093 611.008 386.143ZM526.608 329.415V329.579L525.241 329.661L526.608 329.415ZM521.921 330.193C521.696 330.253 521.486 330.373 521.306 330.545C520.719 331.541 520.35 332.698 520.233 333.909L518.102 333.336C518.102 333.336 516.605 332.952 514.453 332.518L513.435 331.29C516.236 331.012 519.147 330.602 521.921 330.193V330.193Z" fill="url(#paint1_linear_1_7)"/>
<path d="M530.256 553.569C526.97 564.783 527.899 579.919 528.637 587.27C528.91 589.988 529.163 591.641 529.163 591.641C529.163 591.641 524.251 605.05 523.841 605.557C523.431 606.065 509.384 616.338 509.384 616.338L499.566 623.206C499.566 623.206 489.604 617.975 494.38 616.174C495.356 615.705 496.234 614.987 496.956 614.07C501.738 608.627 507.744 595.096 507.744 595.096C507.744 595.096 508.154 588.228 509.657 584.962C511.16 581.695 510.613 547.372 510.613 547.372L510.73 491.422V484.128L529.416 484.292C529.534 486.768 529.803 489.23 530.222 491.659C530.893 495.851 531.762 499.995 532.825 504.069C536.119 516.831 534.752 538.204 530.256 553.569Z" fill="#FFB0B1"/>
<path d="M595.047 571.054C593.23 578.83 594.221 583.21 595.464 585.559V585.608C597.059 588.509 598.168 591.753 598.73 595.161L598.839 595.898L586.022 618.286L579.066 621.561C579.066 621.561 567.882 616.985 569.925 615.675C570.437 615.356 571.237 613.653 572.152 611.304C574.885 604.223 578.657 591.158 578.657 591.158V591.052C579.053 585.657 579.681 580.279 580.378 574.926C581.629 565.291 579.333 541.642 579.333 541.642C579.333 541.642 578.513 512.885 576.737 506.345C575.935 503.019 575.402 499.609 575.145 496.161C574.776 492.068 574.694 488.696 574.694 488.696C574.694 488.696 582.059 476.417 595.56 489.678C596.639 490.736 597.589 491.97 598.382 493.345C607.708 509.242 600.199 544.261 600.199 544.261C600.199 544.261 598.32 556.999 595.047 571.054Z" fill="#FFB0B1"/>
<path opacity="0.1" d="M529.436 484.275C529.554 486.752 529.824 489.214 530.243 491.643C522.549 490.292 515.41 490.963 510.73 491.405V484.112L529.436 484.275Z" fill="#007C98"/>
<path opacity="0.1" d="M599.14 495.384C599.14 495.384 588.208 496.022 575.172 496.153C574.803 492.06 574.721 488.688 574.721 488.688C574.721 488.688 582.086 476.409 595.587 489.67C596.667 490.728 597.617 491.962 598.409 493.337C598.621 494.035 598.865 494.718 599.14 495.384V495.384Z" fill="#007C98"/>
<path d="M599.14 493.91C599.14 493.91 551.259 496.685 536.665 491.782C522.071 486.879 507.607 491.127 505.428 489.989C503.248 488.851 505.018 471.031 506.931 466.619C508.844 462.206 519.338 417.585 519.338 417.585L529.437 354.505L540.074 350.993L540.826 350.74L559.362 344.616L572.945 340.122C572.945 340.122 599.953 466.455 597.637 475.77C596.796 479.337 596.66 483.09 597.241 486.731C597.594 489.218 598.234 491.634 599.14 493.91V493.91Z" fill="#1D2366"/>
<path d="M494.236 311.366C494.236 311.366 484.671 323.644 491.913 330.488C499.156 337.331 503.918 331.143 503.918 331.143L494.236 311.366Z" fill="#C7DAF5"/>
<path opacity="0.1" d="M494.236 311.366C494.236 311.366 484.671 323.644 491.913 330.488C499.156 337.331 503.918 331.143 503.918 331.143L494.236 311.366Z" fill="#007C98"/>
<path d="M571.517 230.637C571.517 230.637 570.396 231.914 568.709 233.796C566.304 236.489 562.744 240.427 559.588 243.726C555.215 248.285 551.607 251.633 552.899 248.776C554.19 245.92 553.944 240.943 553.302 236.285C553.254 235.974 553.213 235.663 553.165 235.36C552.633 231.939 551.928 228.56 551.054 225.242C551.054 225.242 558.119 214.306 562.027 209.992C563.482 208.355 564.5 207.683 564.561 208.821C564.63 210.352 565.586 213.733 566.775 217.318C566.809 217.433 566.844 217.539 566.884 217.654C567.677 220.11 568.572 222.631 569.358 224.808C570.56 228.148 571.517 230.637 571.517 230.637Z" fill="#FFB0B1"/>
<path opacity="0.1" d="M566.884 217.654C566.221 221.932 564.61 225.918 562.22 229.196C559.831 232.473 556.751 234.921 553.302 236.285C552.759 232.548 552.008 228.859 551.054 225.242C551.054 225.242 564.357 204.655 564.561 208.821C564.609 210.401 565.648 213.905 566.884 217.654Z" fill="#007C98"/>
<path opacity="0.1" d="M551.976 241.786L553.698 238.88C553.698 238.88 554.839 247.213 559.034 243.538C563.229 239.862 563.434 271.198 563.434 271.198L558.932 351.853L526.396 349.52L527.318 310.547L531.001 290.901L540.109 262.34L545.527 252.902L551.976 241.786Z" fill="#007C98"/>
<path d="M563.434 271.697L559.335 344.625L558.904 352.352L540.764 351.051L540.081 351.001L526.417 350.019L527.339 311.038L531.022 291.392L540.129 262.832L545.547 253.393L551.997 242.236L553.719 239.338C553.719 239.338 554.86 247.671 559.055 243.996L559.143 243.922C563.243 240.812 563.434 271.697 563.434 271.697Z" fill="#1D2366"/>
<path d="M531.479 284.565C531.479 284.565 529.846 288.658 526.567 287.995C523.287 287.332 523.294 302.729 523.294 302.729C523.294 302.729 521.115 305.185 519.612 303.057C518.109 300.929 514.146 308.124 514.146 308.124L489.317 309.434C489.317 309.434 500.365 315.483 498.199 333.787C498.199 333.787 535.709 331.003 536.938 326.755C538.168 322.507 531.479 284.565 531.479 284.565Z" fill="white"/>
<path opacity="0.03" d="M531.479 284.565C531.479 284.565 529.846 288.658 526.567 287.995C523.287 287.332 523.294 302.729 523.294 302.729C523.294 302.729 521.115 305.185 519.612 303.057C518.109 300.929 514.146 308.124 514.146 308.124L489.317 309.434C489.317 309.434 500.365 315.483 498.199 333.787C498.199 333.787 535.709 331.003 536.938 326.755C538.168 322.507 531.479 284.565 531.479 284.565Z" fill="#007C98"/>
<path d="M459.323 319.052L465.869 325.748L519.748 339.312L513.066 331.143L459.323 319.052Z" fill="white"/>
<path d="M552.079 244.364C551.184 246.001 548.622 254.384 546.483 261.702C544.7 267.8 543.21 273.162 543.21 273.162C543.21 273.162 539.733 300.29 537.956 305.193C536.18 310.097 537.143 329.219 537.143 329.219L530.523 376.443C530.523 376.443 527.523 400.796 522.891 415.342C518.32 429.659 513.23 436.372 513.073 436.585C515.123 433.261 526.294 367.823 526.294 367.823L529.983 285.294C529.983 285.294 530.523 277.452 531.069 270.747C531.616 264.043 542.684 254.891 542.684 254.891L553.357 236.71C554.429 238.43 553.712 241.426 552.079 244.364Z" fill="white"/>
<path d="M524.251 350.428C524.251 350.428 508.536 349.61 500.925 338.657C493.314 327.705 518.518 334.286 518.518 334.286L525.071 336.087L524.251 350.428Z" fill="#FFB0B1"/>
<path opacity="0.1" d="M597.637 475.779C596.796 479.346 596.66 483.099 597.241 486.739C580.098 488.196 561.76 482.646 561.76 482.646C558.344 486.412 549.346 491.962 549.346 491.962L544.44 419.108C541.304 409.285 540.074 357.82 540.074 357.82C540.074 357.82 540.355 355.127 540.758 351.092C540.758 350.993 540.758 350.887 540.792 350.789C542.015 339.517 544.44 318.356 545.629 315.499C547.269 311.57 540.587 301.117 540.587 301.117L543.627 270.052L543.996 266.302C550.405 262.873 555.317 251.92 555.317 251.92L559.089 244.004C563.188 240.853 563.4 271.738 563.4 271.738L559.301 344.666L572.883 340.172C572.883 340.172 599.953 466.463 597.637 475.779Z" fill="#007C98"/>
<path d="M615.23 480.813C596.544 491.929 562.58 481.631 562.58 481.631C559.164 485.397 550.166 490.947 550.166 490.947L545.253 418.093C542.124 408.27 540.894 356.805 540.894 356.805C540.894 356.805 544.843 318.405 546.483 314.484C546.961 313.338 546.729 311.636 546.162 309.802C543.374 301.075 542.349 291.681 543.169 282.388L544.481 269.036L544.843 265.296C551.259 261.857 556.171 250.905 556.171 250.905L559.588 243.734L565.873 230.522L568.852 224.268L569.358 224.816L573.218 229.008C573.218 229.008 574.858 230.645 577.317 233.101C582.667 238.503 591.911 248.015 596.68 253.835C600.875 258.96 602.201 278.892 602.583 293.897C602.836 303.777 602.686 311.521 602.686 311.521C598.457 319.862 609.518 386.831 609.518 386.831C612.094 399.773 615.23 480.813 615.23 480.813Z" fill="white"/>
<path opacity="0.03" d="M579.36 250.741C579.36 250.741 566.536 279.989 568.026 291.106C569.515 302.222 573.751 314.804 571.708 317.742C571.006 318.856 570.099 319.759 569.057 320.383C568.015 321.006 566.867 321.332 565.703 321.336C563.653 321.5 558.187 326.076 558.187 326.567C558.187 327.058 553.138 327.058 548.622 329.35C544.106 331.642 537.437 332.943 537.437 332.943C537.437 332.943 524.456 332.452 523.246 333.926C522.037 335.399 520.794 344.215 523.383 351.247C525.973 358.279 528.849 363.526 531.022 364.484C533.194 365.441 546.982 359.908 558.166 358.598C569.351 357.288 581.492 346.671 581.492 346.671C581.492 346.671 594.863 340.941 597.206 331.306C599.55 321.672 594.344 268.717 594.344 268.717C594.344 268.717 590.408 244.037 579.36 250.741Z" fill="#007C98"/>
<path opacity="0.03" d="M577.721 248.285C577.721 248.285 564.896 277.542 566.399 288.65C567.903 299.758 572.125 312.348 570.075 315.295C569.376 316.409 568.47 317.314 567.429 317.938C566.388 318.561 565.24 318.887 564.076 318.888C562.027 319.052 556.561 323.628 556.561 324.119C556.561 324.61 551.512 324.61 546.996 326.894C542.479 329.178 535.811 330.488 535.811 330.488C535.811 330.488 522.83 329.997 521.627 331.47C520.425 332.943 519.167 341.768 521.764 348.791C524.36 355.815 527.23 361.07 529.402 362.028C531.575 362.986 545.363 357.452 556.547 356.15C567.732 354.849 579.873 344.215 579.873 344.215C579.873 344.215 593.237 338.485 595.553 328.859C597.869 319.232 592.69 266.261 592.69 266.261C592.69 266.261 588.768 241.589 577.721 248.285Z" fill="#007C98"/>
<path d="M578.957 249.268C578.957 249.268 566.133 278.524 567.636 289.632C569.139 300.74 573.362 313.33 571.319 316.269C570.619 317.386 569.713 318.293 568.67 318.918C567.628 319.543 566.479 319.869 565.313 319.871C563.263 320.034 557.798 324.61 557.798 325.093C557.798 325.576 552.755 325.584 548.232 327.876C543.709 330.168 537.048 331.47 537.048 331.47C537.048 331.47 524.066 330.979 522.857 332.452C521.648 333.926 520.404 342.75 522.994 349.774C525.583 356.797 528.459 362.052 530.632 363.01C532.805 363.968 546.592 358.434 557.777 357.124C568.962 355.815 581.103 345.198 581.103 345.198C581.103 345.198 594.473 339.468 596.817 329.833C599.16 320.198 593.988 267.244 593.988 267.244C593.988 267.244 589.998 242.604 578.957 249.268Z" fill="white"/>
<path opacity="0.1" d="M578.677 327.737C578.677 327.737 568.429 325.282 571.995 329.374C575.562 333.467 575.541 337.053 579.907 336.889C584.273 336.725 578.677 327.737 578.677 327.737Z" fill="#007C98"/>
<path opacity="0.1" d="M595.997 415.801C595.997 415.801 591.365 419.558 600.226 428.219C609.088 436.879 595.997 415.801 595.997 415.801Z" fill="#007C98"/>
<path opacity="0.1" d="M587.156 446.686C587.156 447.177 585.516 464.695 591.652 469.074C597.787 473.454 587.156 446.686 587.156 446.686Z" fill="#007C98"/>
<path d="M489.741 309.393C484.794 309.597 474.108 311.406 479.649 323.792C484.548 334.753 492.781 327.426 497.413 321.868C496.283 316.686 493.537 312.221 489.741 309.393V309.393Z" fill="#FFB0B1"/>
<path d="M497.475 321.77L497.68 321.516L497.475 321.77Z" fill="#FFB0B1"/>
<path opacity="0.1" d="M577.317 233.6C572.07 237.897 567.67 241.524 566.809 242.277C564.459 244.364 559.977 256.619 557.087 262.873C554.784 267.907 547.303 269.2 544.481 269.519L544.843 265.778C551.259 262.34 556.171 251.388 556.171 251.388L568.852 224.751L573.218 229.507C573.218 229.507 574.858 231.144 577.317 233.6Z" fill="#007C98"/>
<path d="M577.317 233.109C572.07 237.406 567.67 241.033 566.809 241.794C564.459 243.873 559.977 256.127 557.087 262.381C554.784 267.416 547.303 268.709 544.481 269.028L544.843 265.287C551.259 261.849 556.171 250.897 556.171 250.897L568.852 224.26L573.218 228.999C573.218 228.999 574.858 230.62 577.317 233.109Z" fill="#DCE7FF"/>
<path d="M567.219 212.251C567.222 217.165 565.978 221.964 563.653 226.012C560.906 230.797 556.819 234.245 552.132 235.729C547.445 237.213 542.47 236.635 538.109 234.099C533.747 231.564 530.289 227.24 528.361 221.911C526.433 216.582 526.164 210.602 527.602 205.055C529.039 199.509 532.089 194.763 536.197 191.68C540.305 188.597 545.199 187.38 549.992 188.25C554.785 189.121 559.158 192.021 562.319 196.425C565.48 200.828 567.218 206.443 567.219 212.251V212.251Z" fill="#FFB0B1"/>
<path opacity="0.1" d="M602.583 293.905C599.809 291.86 597.549 288.952 596.045 285.49C594.904 282.789 594.146 279.67 592.198 277.754C590.442 276.035 588.099 275.618 585.913 274.848C578.725 272.303 572.699 264.444 572.473 255.472C572.364 251.249 573.464 247.033 572.965 242.85C572.682 240.482 571.896 238.242 570.683 236.342C570.081 235.434 569.421 234.582 568.709 233.796C567.752 232.716 566.748 231.668 565.873 230.522C565.322 229.812 564.841 229.03 564.439 228.189C564.114 227.501 563.85 226.774 563.653 226.02C562.286 221.01 563.53 215.067 562.027 210L561.945 209.722C561.378 207.921 560.223 206.12 558.617 205.981C557.012 205.842 555.639 207.438 554.108 208.15C550.904 209.64 547.447 207.102 544.775 204.516C542.104 201.929 539.091 198.974 535.695 199.547C533.447 199.931 531.671 201.765 529.6 202.715C529.133 202.931 528.651 203.099 528.159 203.214C529.911 197.979 533.13 193.639 537.263 190.939C541.395 188.238 546.184 187.347 550.806 188.417C555.428 189.487 559.594 192.453 562.589 196.804C565.585 201.155 567.222 206.619 567.219 212.259C567.222 213.962 567.073 215.661 566.775 217.326C566.809 217.441 566.844 217.547 566.885 217.662C567.677 220.118 568.572 222.639 569.358 224.816L573.218 229.008C573.218 229.008 574.858 230.645 577.317 233.101C582.667 238.503 591.911 248.015 596.68 253.835C600.875 258.976 602.187 278.9 602.583 293.905Z" fill="#007C98"/>
<path d="M529.361 187.759C530.338 185.377 530.823 182.708 531.992 180.449C533.707 177.175 536.699 175.079 539.774 173.81C547.802 170.495 564.766 165.682 569.836 173.81C570.834 175.448 571.66 177.265 573.04 178.394C574.093 179.254 575.363 179.622 576.518 180.269C579.75 182.086 581.813 186.048 582.913 190.092C584.013 194.136 584.341 198.474 585.147 202.641C586.179 207.986 587.99 213.053 589.793 218.088C591.918 224.031 594.173 230.195 598.272 234.394C603.868 240.124 605.105 248.236 610.297 254.523C616.446 261.988 616.248 274.308 613.078 284.09C612.661 285.375 612.19 286.718 612.354 288.085C612.518 289.452 613.365 290.696 614.164 291.785L617.526 296.328C609.573 298.628 600.575 293.651 596.872 284.917C595.731 282.216 594.972 279.105 593.018 277.181C591.269 275.462 588.919 275.053 586.739 274.284C579.552 271.73 573.525 263.863 573.3 254.891C573.191 250.676 574.291 246.46 573.792 242.285C573.514 239.902 572.726 237.645 571.503 235.736C569.624 232.798 566.789 230.825 565.258 227.551C562.669 222.074 564.637 214.961 562.771 209.083C562.197 207.282 561.05 205.481 559.444 205.342C557.838 205.203 556.465 206.799 554.928 207.512C551.73 209.001 548.273 206.472 545.602 203.877C542.93 201.282 539.917 198.335 536.515 198.916C534.267 199.293 532.497 201.127 530.427 202.084C528.897 202.788 525.795 203.419 524.456 201.871C521.627 198.753 528.179 190.673 529.361 187.759Z" fill="#591D4B"/>
<path opacity="0.1" d="M598.771 282.216C597.623 279.514 596.872 276.404 594.918 274.488C593.168 272.769 590.818 272.352 588.632 271.582C581.451 269.036 575.425 261.17 575.193 252.198C575.083 247.982 576.183 243.759 575.691 239.584C575.405 237.216 574.617 234.975 573.403 233.076C571.517 230.137 568.681 228.164 567.158 224.89C564.568 219.422 566.536 212.308 564.664 206.423C564.097 204.63 562.942 202.829 561.343 202.682C559.745 202.535 558.358 204.147 556.827 204.859C553.63 206.349 550.166 203.812 547.501 201.225C544.837 198.638 541.81 195.683 538.414 196.256C536.166 196.641 534.39 198.474 532.327 199.424C530.796 200.128 527.687 200.766 526.348 199.219C523.533 195.945 530.086 187.882 531.261 184.984C532.238 182.594 532.723 179.933 533.898 177.674C533.959 177.551 534.028 177.429 534.096 177.306C533.217 178.178 532.458 179.211 531.848 180.367C530.68 182.627 530.195 185.279 529.218 187.677C528.036 190.575 521.484 198.663 524.305 201.912C525.672 203.468 528.746 202.829 530.277 202.125C532.327 201.167 534.117 199.334 536.364 198.957C539.781 198.376 542.787 201.331 545.451 203.918C548.116 206.505 551.601 209.042 554.784 207.552C556.315 206.84 557.654 205.236 559.294 205.383C560.934 205.531 562.027 207.323 562.621 209.124C564.486 215.002 562.519 222.115 565.108 227.591C566.639 230.808 569.474 232.822 571.353 235.777C572.576 237.686 573.364 239.943 573.642 242.326C574.14 246.501 573.04 250.717 573.15 254.932C573.375 263.937 579.401 271.771 586.589 274.325C588.755 275.094 591.119 275.503 592.868 277.222C594.829 279.146 595.601 282.257 596.721 284.958C600.424 293.692 609.423 298.669 617.375 296.369L615.79 294.224C608.897 294.347 601.921 289.648 598.771 282.216Z" fill="#007C98"/>
<path opacity="0.1" d="M551.669 244.855C550.774 246.493 548.212 254.875 546.073 262.193C544.071 261.26 542.254 255.309 542.254 255.309L552.926 237.12C554.019 238.921 553.302 241.909 551.669 244.855Z" fill="#007C98"/>
<path d="M552.079 244.364C551.184 246.001 548.622 254.384 546.483 261.702C544.481 260.777 542.664 254.818 542.664 254.818L553.336 236.637C554.429 238.43 553.712 241.426 552.079 244.364Z" fill="#DCE7FF"/>
<path d="M490.028 327.991L484.111 305.635C484.041 305.374 484.015 305.098 484.034 304.824C484.053 304.55 484.117 304.283 484.222 304.039C484.328 303.795 484.472 303.578 484.648 303.401C484.823 303.224 485.026 303.091 485.245 303.008V303.008C485.685 302.843 486.162 302.893 486.572 303.148C486.981 303.402 487.29 303.84 487.431 304.367L493.348 326.698L492.761 331.372L490.028 327.991Z" fill="#BE8B87"/>
<path opacity="0.1" d="M484.671 303.671C485.112 303.504 485.591 303.553 486.002 303.807C486.413 304.062 486.723 304.502 486.864 305.03L492.781 327.361L492.337 330.864L492.767 331.405L493.355 326.73L487.404 304.399C487.263 303.873 486.954 303.435 486.544 303.181C486.135 302.926 485.658 302.876 485.218 303.041V303.041C484.847 303.185 484.527 303.473 484.309 303.859C484.425 303.784 484.546 303.721 484.671 303.671V303.671Z" fill="white"/>
<path d="M490.028 327.991L493.348 326.73L492.863 330.561L492.761 331.405L491.79 330.193L490.028 327.991Z" fill="#EFC8C4"/>
<path d="M491.79 330.193C491.848 330.106 491.92 330.033 492.002 329.98C492.05 329.944 492.106 329.925 492.163 329.925C492.22 329.925 492.275 329.944 492.323 329.98C492.37 330.048 492.409 330.122 492.439 330.201C492.485 330.292 492.546 330.369 492.619 330.427C492.693 330.485 492.776 330.522 492.863 330.537L492.761 331.355L491.79 330.193Z" fill="#727A9C"/>
<path d="M484.077 313.576C484.077 313.576 495.944 313.494 493.15 319.543C490.355 325.593 485.99 326.321 485.99 326.321L484.077 313.576Z" fill="#FFB0B1"/>
<path d="M410.267 42.0917H409.755C389.367 42.0917 371.336 55.0172 360.965 74.0902C350.593 55.0172 332.563 42.0917 312.175 42.0917H311.663C296.362 42.2664 281.738 49.6685 270.967 62.6896C260.196 75.7106 254.15 93.2983 254.141 111.631C254.141 134.395 262.463 166.697 278.69 193.276C309.606 243.922 360.965 288.232 360.965 288.232C360.965 288.232 412.323 243.93 443.233 193.276C459.467 166.697 467.782 134.395 467.782 111.631C467.773 93.2997 461.728 75.7132 450.958 62.6924C440.189 49.6716 425.566 42.2685 410.267 42.0917ZM402.936 197.173C400.614 197.162 398.349 196.311 396.438 194.73C394.528 193.149 393.061 190.913 392.23 188.316H380.041C379.238 188.31 378.457 188.004 377.807 187.44C377.156 186.877 376.669 186.084 376.413 185.172L372.669 171.657L360.821 221.256C360.591 222.21 360.108 223.05 359.445 223.648C358.782 224.245 357.975 224.569 357.146 224.571H356.906C356.041 224.521 355.216 224.116 354.569 223.425C353.922 222.734 353.493 221.797 353.354 220.773L341.144 132.791L332.221 184.853C332.017 185.842 331.541 186.72 330.871 187.348C330.202 187.976 329.375 188.316 328.525 188.316H311.355C310.841 188.342 310.327 188.243 309.845 188.025C309.363 187.807 308.923 187.474 308.551 187.047C308.179 186.62 307.883 186.107 307.681 185.54C307.479 184.972 307.374 184.361 307.374 183.744C307.374 183.127 307.479 182.516 307.681 181.948C307.883 181.38 308.179 180.868 308.551 180.441C308.923 180.013 309.363 179.681 309.845 179.463C310.327 179.245 310.841 179.146 311.355 179.172H325.519L338.159 109.175C338.366 108.14 338.867 107.224 339.576 106.582C339.576 106.582 341.158 105.615 342.046 105.659C342.933 105.704 343.78 106.116 344.442 106.826C345.104 107.536 345.539 108.499 345.674 109.551L358.143 199.301L368.761 154.926C368.982 153.991 369.449 153.167 370.093 152.577C370.737 151.987 371.523 151.662 372.334 151.651H372.409C373.212 151.652 373.994 151.956 374.645 152.52C375.295 153.085 375.78 153.881 376.03 154.795L382.801 179.197H392.079C392.739 176.795 393.94 174.659 395.549 173.024C397.158 171.389 399.112 170.318 401.197 169.929C403.282 169.541 405.416 169.85 407.364 170.823C409.311 171.796 410.996 173.395 412.233 175.443C413.47 177.491 414.211 179.909 414.373 182.429C414.536 184.95 414.114 187.475 413.154 189.726C412.195 191.977 410.734 193.867 408.935 195.187C407.135 196.507 405.066 197.206 402.956 197.206L402.936 197.173Z" fill="#FF0000"/>
</g>
<defs>
<linearGradient id="paint0_linear_1_7" x1="171.456" y1="634.298" x2="171.456" y2="130.589" gradientUnits="userSpaceOnUse">
<stop stop-color="#808080" stop-opacity="0.25"/>
<stop offset="0.54" stop-color="#808080" stop-opacity="0.12"/>
<stop offset="1" stop-color="#808080" stop-opacity="0.1"/>
</linearGradient>
<linearGradient id="paint1_linear_1_7" x1="152436" y1="380055" x2="152436" y2="121497" gradientUnits="userSpaceOnUse">
<stop stop-color="#808080" stop-opacity="0.25"/>
<stop offset="0.54" stop-color="#808080" stop-opacity="0.12"/>
<stop offset="1" stop-color="#808080" stop-opacity="0.1"/>
</linearGradient>
<clipPath id="clip0_1_7">
<rect width="755" height="640.74" fill="white" transform="translate(-72)"/>
</clipPath>
</defs>
</svg>
