<?xml version="1.0" encoding="UTF-8"?>
<!DOCTYPE svg PUBLIC "-//W3C//DTD SVG 1.1//EN" "http://www.w3.org/Graphics/SVG/1.1/DTD/svg11.dtd">
<!-- Creator: CorelDRAW -->
<svg xmlns="http://www.w3.org/2000/svg" xml:space="preserve" width="2048px" height="2048px" style="shape-rendering:geometricPrecision; text-rendering:geometricPrecision; image-rendering:optimizeQuality; fill-rule:evenodd; clip-rule:evenodd"
viewBox="0 0 2048 2048"
 xmlns:xlink="http://www.w3.org/1999/xlink">
 <defs>
  <style type="text/css">
   <![CDATA[
    .fil2 {fill:none}
    .fil1 {fill:#0288D1}
    .fil0 {fill:#03A9F4}
    .fil3 {fill:#302F2F}
    .fil4 {fill:#383737}
    .fil5 {fill:#333232;fill-rule:nonzero}
    .fil10 {fill:#353535;fill-rule:nonzero}
    .fil17 {fill:#383535;fill-rule:nonzero}
    .fil6 {fill:#3B3B3B;fill-rule:nonzero}
    .fil15 {fill:#3D3B3B;fill-rule:nonzero}
    .fil7 {fill:#424242;fill-rule:nonzero}
    .fil14 {fill:#4D4D4D;fill-rule:nonzero}
    .fil11 {fill:#525050;fill-rule:nonzero}
    .fil19 {fill:#64B5F6;fill-rule:nonzero}
    .fil16 {fill:#666666;fill-rule:nonzero}
    .fil8 {fill:#79D2E8;fill-rule:nonzero}
    .fil9 {fill:#82D8ED;fill-rule:nonzero}
    .fil18 {fill:#8BC34A;fill-rule:nonzero}
    .fil12 {fill:#D50000;fill-rule:nonzero}
    .fil13 {fill:#FFC107;fill-rule:nonzero}
   ]]>
  </style>
   <clipPath id="id0">
    <path d="M1024 -0.0011811c565.541,0 1024,458.461 1024,1024 0,565.541 -458.461,1024 -1024,1024 -565.541,0 -1024,-458.461 -1024,-1024 0,-565.541 458.461,-1024 1024,-1024z"/>
   </clipPath>
 </defs>
 <g id="Layer_x0020_1">
  <metadata id="CorelCorpID_0Corel-Layer"/>
  <path class="fil0" d="M1024 -0.0011811c565.541,0 1024,458.461 1024,1024 0,565.541 -458.461,1024 -1024,1024 -565.541,0 -1024,-458.461 -1024,-1024 0,-565.541 458.461,-1024 1024,-1024z"/>
  <g style="clip-path:url(#id0)">
   <g id="_452501840">
    <path id="_4525177281" class="fil1" d="M529.728 768.615l-0.846851 0 -56.876 0 -24.0059 0 0 24.0059 0 456.232 0 24.0059 1135.88 1135.88 24.0059 0 135.304 0 54.28 54.28 0.158268 0.21378 1.41024 1.35473 1.78937 1.32992 2.15906 1.30512 2.51929 1.27677 2.8689 1.24843 3.21024 1.2189 3.53859 1.18465 3.85866 1.15158 4.16811 1.11614 4.46811 1.07717 4.75748 1.03937 5.03622 0.996851 5.3067 0.955513 5.56536 0.910631 5.81457 0.863386 6.05315 0.816142 6.28347 0.766536 6.50197 0.715749 6.71103 0.661418 6.90945 0.607087 7.09843 0.551575 7.27796 0.491339 7.44568 0.432284 7.60394 0.370866 7.75394 0.307087 7.89095 0.242126 8.02087 0.174803 8.1378 0.106299 8.24646 0.0354331 8.24646 -0.0354331 8.1378 -0.106299 8.02087 -0.174803 7.89095 -0.242126 7.75394 -0.307087 7.60394 -0.370866 7.44568 -0.432284 7.27796 -0.491339 7.09843 -0.551575 6.90945 -0.607087 6.71103 -0.661418 6.50197 -0.715749 6.28347 -0.766536 6.05315 -0.816142 5.81457 -0.863386 5.56536 -0.910631 5.3067 -0.955513 5.03622 -0.996851 4.75748 -1.03937 4.46811 -1.07717 4.16811 -1.11614 3.85866 -1.15158 3.53859 -1.18465 3.21024 -1.2189 2.8689 -1.24843 2.51929 -1.27677 2.15906 -1.30512 1.78937 -1.32992 1.41024 -1.35473 1.01811 -1.37599 0.618898 -1.39606 0.209055 -1.41496 -0.00236221 -0.135827 -0.00472441 -0.134646 -0.00944883 -0.134646 -0.0141732 -0.135827 -0.0165354 -0.134646 -0.0200788 -0.134646 -0.0248032 -0.133465 -0.0283465 -0.134646 0.0283465 -0.124016 0.0248032 -0.125197 0.0200788 -0.124016 0.0165354 -0.125197 0.0141732 -0.124016 0.00944883 -0.125197 0.00472441 -0.125197 0.00236221 -0.125197 -0.100394 -0.90945 -0.3 -0.901182 -0.494882 -0.892914 -0.688583 -0.884646 -0.876379 -0.874016 -43.7681 -43.7681 168.817 0 0.0696851 0 5.6067 0 9.1878 0 14.5488 0 9.1878 0 26.7059 0 10.448 0 68.2158 68.2158 1.96772 1.87087 2.16378 1.69961 2.34685 1.51654 2.51221 1.31929 2.66457 1.10906 2.8004 0.885827 2.92087 0.649607 3.02599 0.399213 3.11575 0.135827 15.5374 -0.0011811 267.965 0 15.5398 0.0011811 3.11575 -0.135827 3.02599 -0.399213 2.92087 -0.649607 2.8004 -0.885827 2.66339 -1.10906 2.51339 -1.31929 2.34567 -1.51654 2.16496 -1.69961 1.96654 -1.87087 1.75394 -2.02795 1.52717 -2.17205 1.28268 -2.30197 1.0252 -2.42126 0.751182 -2.52402 0.461811 -2.61614 0.157087 -2.69292 0 -600.634 -0.157087 -2.69292 -0.461811 -2.61614 -0.751182 -2.5252 -1.0252 -2.42008 -1.28268 -2.30315 -1.52717 -2.17205 -1.75394 -2.02795 -1.96654 -1.87087 -0.829134 -0.650788 4.54961 4.54961 -1135.88 -1135.88c-0.544489,-0.696851 -1.12559,-1.3689 -1.74331,-2.01614l-0.0106299 -0.011811 -0.0141732 -0.0129921c-0.609449,-0.638977 -1.25433,-1.25197 -1.92992,-1.83662l-0.022441 -0.0212599 -0.022441 -0.0177165c-1.37008,-1.1811 -2.8689,-2.25118 -4.47756,-3.19134l-0.0106299 -0.00708662 -0.0106299 -0.00590552c-0.807875,-0.47126 -1.64173,-0.910631 -2.50276,-1.31457 -0.859843,-0.403937 -1.74567,-0.77126 -2.65276,-1.10433l-0.0106299 -0.00472441 -0.011811 -0.00354331c-0.901182,-0.329528 -1.82717,-0.622441 -2.76969,-0.876379l-0.0188977 -0.00590552 -0.0165354 -0.00354331c-0.947245,-0.255118 -1.91339,-0.470079 -2.89607,-0.643701l-0.00826772 -0.00236221 -0.0106299 -0.0011811c-0.981497,-0.172441 -1.97953,-0.304725 -2.99173,-0.394488l-0.0236221 -0.00354331 -0.0200788 -0.0011811c-1.01811,-0.0885827 -2.0504,-0.134646 -3.09567,-0.134646l-15.5398 -0.0011811 -267.965 0 -15.5374 0.0011811c-1.05236,0 -2.09173,0.046063 -3.11575,0.135827 -1.02402,0.0897638 -2.03386,0.223229 -3.02599,0.399213 -0.992127,0.175984 -1.96654,0.392126 -2.92087,0.649607 -0.954331,0.256299 -1.88858,0.552756 -2.8004,0.885827 -0.911812,0.333071 -1.8,0.703938 -2.66457,1.10906 -0.863386,0.405118 -1.70197,0.846851 -2.51221,1.32047 -0.810237,0.473622 -1.59331,0.980316 -2.34685,1.51654 -0.752363,0.537402 -1.4752,1.10315 -2.16378,1.69961 -0.689764,0.596457 -1.34646,1.22008 -1.96772,1.87087 -0.62126,0.650788 -1.20709,1.32756 -1.75394,2.02795 -0.548032,0.700394 -1.05709,1.42441 -1.52717,2.17205 -0.468898,0.746457 -0.897638,1.51536 -1.28268,2.30315 -0.38504,0.787796 -0.72756,1.59449 -1.0252,2.42008 -0.296457,0.82441 -0.548032,1.66772 -0.751182,2.5252 -0.20315,0.857481 -0.357874,1.73032 -0.461811,2.61614 -0.103937,0.885827 -0.157087,1.78347 -0.157087,2.69292l0 92.6292 -47.6989 -47.6989 -24.0059 0 -638.573 0z"/>
   </g>
  </g>
  <path class="fil2" d="M1024 -0.0011811c565.541,0 1024,458.461 1024,1024 0,565.541 -458.461,1024 -1024,1024 -565.541,0 -1024,-458.461 -1024,-1024 0,-565.541 458.461,-1024 1024,-1024z"/>
  <g id="_451908168">
   <ellipse id="_451894680" class="fil3" cx="820.154" cy="1323.17" rx="160.252" ry="27.4949"/>
   <ellipse id="_451890648" class="fil4" cx="820.154" cy="1321.09" rx="160.252" ry="25.4181"/>
   <path id="_451901616" class="fil5" d="M745.268 1312.91l-0.0944883 0 0 -15.5906 0 -62.3575 0 -15.5906 16.663 0 116.634 0 16.663 0 0 15.5906 0 62.3575 0 15.5906 -0.0933072 0c-19.7457,4.12441 -46.0311,6.63898 -74.8867,6.63898 -28.8544,0 -55.1398,-2.51575 -74.8855,-6.63898z"/>
   <path id="_451903464" class="fil6" d="M820.153 1219.38l0.431103 0 57.8859 0 16.663 0 0 15.5906 0 62.3575 0 15.5906 -0.0933072 0c-19.7043,4.11496 -45.9189,6.62835 -74.7024,6.63898l-0.184252 0 0 -100.178z"/>
   <path id="_451905096" class="fil5" d="M745.268 1312.91l-0.0944883 0 0 -15.5906 0 -62.3575 0 -15.5906 16.663 0 58.317 0 0 100.178c-28.8544,0 -55.1398,-2.51575 -74.8855,-6.63898z"/>
   <path id="_451904568" class="fil7" d="M472.005 768.615l696.296 0 24.0059 0 0 24.0059 0 456.232 0 24.0059 -24.0059 0 -696.296 0 -24.0059 0 0 -24.0059 0 -456.232 0 -24.0059 24.0059 0zm672.29 48.0118l-648.284 0 0 408.22 648.284 0 0 -408.22z"/>
   <polygon id="_451908888" class="fil8" points="1144.3,816.627 496.011,816.627 496.011,1224.85 1144.3,1224.85 "/>
   <polygon id="_451903728" class="fil8" points="586.909,816.627 496.011,816.627 496.011,1224.85 1047.72,1224.85 "/>
   <polygon id="_451890744" class="fil9" points="1144.3,816.627 587.69,816.627 586.909,816.627 1047.72,1224.85 1047.84,1224.85 1144.3,1224.85 "/>
   <polygon id="_451885752" class="fil10" points="1147.72,807.185 492.585,807.185 492.585,1227.87 500.165,1227.87 500.165,822.39 1140.14,822.39 1140.14,1230.32 1147.72,1230.32 "/>
   <polygon id="_451893048" class="fil11" points="528.882,768.615 529.728,768.615 1168.3,768.615 1192.31,768.615 1192.31,792.621 1192.31,1248.85 1192.31,1272.86 1168.3,1272.86 1103.06,1272.86 1102.99,1272.86 1048.33,1224.85 1048.47,1224.85 1144.3,1224.85 1144.3,816.627 584.319,816.627 583.547,816.627 "/>
   <polygon id="_451879728" class="fil7" points="472.005,768.615 528.882,768.615 583.547,816.627 496.011,816.627 496.011,1224.85 1048.33,1224.85 1102.99,1272.86 472.005,1272.86 448,1272.86 448,1248.85 448,792.621 448,768.615 "/>
   <path id="_451885056" class="fil12" d="M1141.6 1272.86l-9.1878 0 0 -12.2138c0,-2.52638 2.06693,-4.59331 4.59331,-4.59331l0 0c2.52756,0 4.59449,2.06693 4.59449,4.59331l0 12.2138z"/>
   <path id="_451882464" class="fil13" d="M1117.86 1272.86l-9.1878 0 0 -12.2138c0,-2.52638 2.06693,-4.59331 4.59331,-4.59331l0 0c2.52756,0 4.59449,2.06693 4.59449,4.59331l0 12.2138z"/>
   <path id="_451886136" class="fil14" d="M1600 1324.32c0,14.5488 -13.6441,26.3421 -30.476,26.3421l-299.042 0c-16.8319,0 -30.4772,-11.7933 -30.4772,-26.3421l0 -600.634c0,-14.5488 13.6453,-26.3445 30.4772,-26.3445l299.042 0c16.8319,0 30.476,11.7957 30.476,26.3445l0 600.634z"/>
   <path id="_451885944" class="fil15" d="M1286.02 697.339c1.25669,11.5181 10.8815,20.478 22.5697,20.478l222.828 0c11.6882,0 21.3106,-8.95985 22.5673,-20.478l-267.965 0z"/>
   <path id="_451882800" class="fil15" d="M1286.02 1350.66c1.25669,-11.5181 10.8815,-20.4768 22.5697,-20.4768l222.828 0c11.6882,0 21.3106,8.95867 22.5673,20.4768l-267.965 0z"/>
   <polygon id="_451884000" class="fil16" points="1578.02,831.843 1261.99,831.843 1261.99,754.64 1578.02,754.64 "/>
   <path id="_451882200" class="fil16" d="M1578.01 1065.56l-316.022 0 -3.41811 0 0 -2.95394 0 -77.2016 0 -2.95512 3.41811 0 316.022 0 3.41811 0 0 2.95512 0 77.2016 0 2.95394 -3.41811 0zm-312.605 -5.90788l309.188 0 0 -71.2938 -309.188 0 0 71.2938z"/>
   <polygon id="_451881552" class="fil16" points="1578.02,917.82 1261.99,917.82 1261.99,840.616 1578.02,840.616 "/>
   <polygon id="_451876872" class="fil14" points="1495.71,887.846 1276.54,887.846 1276.54,870.589 1495.71,870.589 "/>
   <polygon id="_451878240" class="fil14" points="1495.71,801.869 1276.54,801.869 1276.54,784.612 1495.71,784.612 "/>
   <polygon id="_451888704" class="fil14" points="1529.58,887.846 1514.89,887.846 1514.89,870.589 1529.58,870.589 "/>
   <polygon id="_451879416" class="fil14" points="1529.58,801.869 1514.89,801.869 1514.89,784.612 1529.58,784.612 "/>
   <polygon id="_451898592" class="fil14" points="1549,887.846 1534.31,887.846 1534.31,870.589 1549,870.589 "/>
   <polygon id="_451905792" class="fil14" points="1549,801.869 1534.31,801.869 1534.31,784.612 1549,784.612 "/>
   <polygon id="_451899120" class="fil14" points="1568.42,887.846 1553.73,887.846 1553.73,870.589 1568.42,870.589 "/>
   <polygon id="_451887672" class="fil14" points="1568.42,801.869 1553.73,801.869 1553.73,784.612 1568.42,784.612 "/>
   <polygon id="_451891776" class="fil17" points="1379.78,1027.5 1362.78,1027.5 1362.78,1020.5 1379.78,1020.5 "/>
   <polygon id="_451898448" class="fil17" points="1441.42,1027.5 1424.42,1027.5 1424.42,1020.5 1441.42,1020.5 "/>
   <path id="_451893576" class="fil12" d="M1398.11 1024c0,3.46772 -2.81339,6.28229 -6.28229,6.28229 -3.47008,0 -6.28465,-2.81457 -6.28465,-6.28229 0,-3.46772 2.81457,-6.28583 6.28465,-6.28583 3.4689,0 6.28229,2.81811 6.28229,6.28583z"/>
   <path id="_451899744" class="fil18" d="M1418.66 1024c0,3.46772 -2.81339,6.28229 -6.28465,6.28229 -3.4689,0 -6.28347,-2.81457 -6.28347,-6.28229 0,-3.4689 2.81457,-6.28583 6.28347,-6.28583 3.47126,0 6.28465,2.81693 6.28465,6.28583z"/>
   <path id="_451895808" class="fil19" d="M1433.41 956.946c0,2.35866 -1.91339,4.26969 -4.26969,4.26969l-18.2693 0c-2.35748,0 -4.26969,-1.91103 -4.26969,-4.26969l0 -18.2669c0,-2.36103 1.91221,-4.26969 4.26969,-4.26969l18.2693 0c2.3563,0 4.26969,1.90866 4.26969,4.26969l0 18.2669z"/>
   <polygon id="_451891272" class="fil16" points="1552.53,1034.34 1450.51,1034.34 1450.51,1013.66 1552.53,1013.66 "/>
   <path id="_451901352" class="fil16" d="M1438.45 1312.19l0 0 0 -3.8752 3.8752 0 0 3.8752 -3.8752 0zm81.5422 -126.186l0 0 3.87402 0 0 3.8752 -3.87402 0 0 -3.8752zm0 8.15552l0 0 3.87402 0 0 3.87402 -3.87402 0 0 -3.87402zm0 8.15079l0 0 3.87402 0 0 3.87874 -3.87402 0 0 -3.87874zm0 8.15552l0 0 3.87402 0 0 3.87402 -3.87402 0 0 -3.87402zm0 8.15434l0 0 3.87402 0 0 3.87166 -3.87402 0 0 -3.87166zm0 8.15906l0 0 3.87402 0 0 3.87166 -3.87402 0 0 -3.87166zm-8.15552 -65.2323l0 0 3.8752 0 0 3.87048 -3.8752 0 0 -3.87048zm0 8.15079l0 0 3.8752 0 0 3.8752 -3.8752 0 0 -3.8752zm0 8.15197l0 0 3.8752 0 0 3.87874 -3.8752 0 0 -3.87874zm0 8.15434l0 0 3.8752 0 0 3.8752 -3.8752 0 0 -3.8752zm0 8.15552l0 0 3.8752 0 0 3.87402 -3.8752 0 0 -3.87402zm0 8.15079l0 0 3.8752 0 0 3.87874 -3.8752 0 0 -3.87874zm0 8.15552l0 0 3.8752 0 0 3.87402 -3.8752 0 0 -3.87402zm0 8.15434l0 0 3.8752 0 0 3.87166 -3.8752 0 0 -3.87166zm0 8.15906l0 0 3.8752 0 0 3.87166 -3.8752 0 0 -3.87166zm0 8.15197l0 0 3.8752 0 0 3.8752 -3.8752 0 0 -3.8752zm0 8.15079l0 0 3.8752 0 0 3.87874 -3.8752 0 0 -3.87874zm0 8.15552l0 0 3.8752 0 0 3.87402 -3.8752 0 0 -3.87402zm-154.928 40.7717l0 0 3.87756 0 0 3.87402 -3.87756 0 0 -3.87402zm8.15552 0l0 0 3.87402 0 0 3.87402 -3.87402 0 0 -3.87402zm8.15552 0l0 0 3.87166 0 0 3.87402 -3.87166 0 0 -3.87402zm8.15197 0l0 0 3.87638 0 0 3.87402 -3.87638 0 0 -3.87402zm8.15316 0l0 0 3.87638 0 0 3.87402 -3.87638 0 0 -3.87402zm8.1567 0l0 0 3.87402 0 0 3.87402 -3.87402 0 0 -3.87402zm8.15197 0l0 0 3.8752 0 0 3.87402 -3.8752 0 0 -3.87402zm8.15552 0l0 0 3.87402 0 0 3.87402 -3.87402 0 0 -3.87402zm8.15316 0l0 0 3.87402 0 0 3.87402 -3.87402 0 0 -3.87402zm8.15197 0l0 0 3.87756 0 0 3.87402 -3.87756 0 0 -3.87402zm8.15552 0l0 0 3.8752 0 0 3.87402 -3.8752 0 0 -3.87402zm8.1567 0l0 0 3.87166 0 0 3.87402 -3.87166 0 0 -3.87402zm8.15197 0l0 0 3.8752 0 0 3.87402 -3.8752 0 0 -3.87402zm8.15316 0l0 0 3.87638 0 0 3.87402 -3.87638 0 0 -3.87402zm8.15552 0l0 0 3.87402 0 0 3.87402 -3.87402 0 0 -3.87402zm8.15197 0l0 0 3.87638 0 0 3.87402 -3.87638 0 0 -3.87402zm12.0307 -4.28622l0 0 -3.87402 0 0 -3.86929 3.87402 0 0 3.86929zm-8.15434 0l0 0 -3.87638 0 0 -3.86929 3.87638 0 0 3.86929zm-8.15434 0l0 0 -3.87402 0 0 -3.86929 3.87402 0 0 3.86929zm-8.15316 0l0 0 -3.87638 0 0 -3.86929 3.87638 0 0 3.86929zm-8.15434 0l0 0 -3.8752 0 0 -3.86929 3.8752 0 0 3.86929zm-8.15552 0l0 0 -3.87166 0 0 -3.86929 3.87166 0 0 3.86929zm-8.15316 0l0 0 -3.8752 0 0 -3.86929 3.8752 0 0 3.86929zm-8.15316 0l0 0 -3.87756 0 0 -3.86929 3.87756 0 0 3.86929zm-8.15552 0l0 0 -3.87402 0 0 -3.86929 3.87402 0 0 3.86929zm-8.15316 0l0 0 -3.87402 0 0 -3.86929 3.87402 0 0 3.86929zm-8.15434 0l0 0 -3.8752 0 0 -3.86929 3.8752 0 0 3.86929zm-8.15316 0l0 0 -3.87402 0 0 -3.86929 3.87402 0 0 3.86929zm-8.15434 0l0 0 -3.87638 0 0 -3.86929 3.87638 0 0 3.86929zm-8.15316 0l0 0 -3.87638 0 0 -3.86929 3.87638 0 0 3.86929zm-8.1567 0l0 0 -3.87166 0 0 -3.86929 3.87166 0 0 3.86929zm-8.15316 0l0 0 -3.87402 0 0 -3.86929 3.87402 0 0 3.86929zm-8.15197 0l0 0 -3.87756 0 0 -3.86929 3.87756 0 0 3.86929zm-8.15552 0l0 0 -3.87402 0 0 -3.86929 3.87402 0 0 3.86929zm20.589 12.4417l0 0 3.87166 0 0 3.87402 -3.87166 0 0 -3.87402zm8.15197 0l0 0 3.87638 0 0 3.87402 -3.87638 0 0 -3.87402zm8.15316 0l0 0 3.87638 0 0 3.87402 -3.87638 0 0 -3.87402zm8.1567 0l0 0 3.87402 0 0 3.87402 -3.87402 0 0 -3.87402zm8.15197 0l0 0 3.8752 0 0 3.87402 -3.8752 0 0 -3.87402zm8.15552 0l0 0 3.87402 0 0 3.87402 -3.87402 0 0 -3.87402zm8.15316 0l0 0 3.87402 0 0 3.87402 -3.87402 0 0 -3.87402zm8.15197 0l0 0 3.87756 0 0 3.87402 -3.87756 0 0 -3.87402zm8.15552 0l0 0 3.8752 0 0 3.87402 -3.8752 0 0 -3.87402zm8.1567 0l0 0 3.87166 0 0 3.87402 -3.87166 0 0 -3.87402zm8.15197 0l0 0 3.8752 0 0 3.87402 -3.8752 0 0 -3.87402zm8.15316 0l0 0 3.87638 0 0 3.87402 -3.87638 0 0 -3.87402zm40.7705 -154.932l0 0 3.87638 0 0 3.87874 -3.87638 0 0 -3.87874zm0 8.15906l0 0 3.87638 0 0 3.87048 -3.87638 0 0 -3.87048zm0 8.15552l0 0 3.87638 0 0 3.87048 -3.87638 0 0 -3.87048zm0 8.15079l0 0 3.87638 0 0 3.8752 -3.87638 0 0 -3.8752zm0 8.15197l0 0 3.87638 0 0 3.87874 -3.87638 0 0 -3.87874zm0 8.15434l0 0 3.87638 0 0 3.8752 -3.87638 0 0 -3.8752zm0 8.15552l0 0 3.87638 0 0 3.87402 -3.87638 0 0 -3.87402zm0 8.15079l0 0 3.87638 0 0 3.87874 -3.87638 0 0 -3.87874zm0 8.15552l0 0 3.87638 0 0 3.87402 -3.87638 0 0 -3.87402zm0 8.15434l0 0 3.87638 0 0 3.87166 -3.87638 0 0 -3.87166zm0 8.15906l0 0 3.87638 0 0 3.87166 -3.87638 0 0 -3.87166zm0 8.15197l0 0 3.87638 0 0 3.8752 -3.87638 0 0 -3.8752zm0 8.15079l0 0 3.87638 0 0 3.87874 -3.87638 0 0 -3.87874zm0 8.15552l0 0 3.87638 0 0 3.87402 -3.87638 0 0 -3.87402zm0 8.15434l0 0 3.87638 0 0 3.8752 -3.87638 0 0 -3.8752zm0 8.15197l0 0 3.87638 0 0 3.87756 -3.87638 0 0 -3.87756zm-8.15316 -130.462l0 0 3.87402 0 0 3.87402 -3.87402 0 0 -3.87402zm0 8.15079l0 0 3.87402 0 0 3.87874 -3.87402 0 0 -3.87874zm0 8.15906l0 0 3.87402 0 0 3.87048 -3.87402 0 0 -3.87048zm0 8.15552l0 0 3.87402 0 0 3.87048 -3.87402 0 0 -3.87048zm0 8.15079l0 0 3.87402 0 0 3.8752 -3.87402 0 0 -3.8752zm0 8.15197l0 0 3.87402 0 0 3.87874 -3.87402 0 0 -3.87874zm0 8.15434l0 0 3.87402 0 0 3.8752 -3.87402 0 0 -3.8752zm0 8.15552l0 0 3.87402 0 0 3.87402 -3.87402 0 0 -3.87402zm0 8.15079l0 0 3.87402 0 0 3.87874 -3.87402 0 0 -3.87874zm0 8.15552l0 0 3.87402 0 0 3.87402 -3.87402 0 0 -3.87402zm0 8.15434l0 0 3.87402 0 0 3.87166 -3.87402 0 0 -3.87166zm0 8.15906l0 0 3.87402 0 0 3.87166 -3.87402 0 0 -3.87166zm0 8.15197l0 0 3.87402 0 0 3.8752 -3.87402 0 0 -3.8752zm0 8.15079l0 0 3.87402 0 0 3.87874 -3.87402 0 0 -3.87874zm0 8.15552l0 0 3.87402 0 0 3.87402 -3.87402 0 0 -3.87402zm0 8.15434l0 0 3.87402 0 0 3.8752 -3.87402 0 0 -3.8752zm0 8.15197l0 0 3.87402 0 0 3.87756 -3.87402 0 0 -3.87756zm3.87402 8.15434l0 0 0 3.8752 -3.87402 0 0 -3.8752 3.87402 0zm-12.0272 -146.767l0 0 3.87402 0 0 3.87048 -3.87402 0 0 -3.87048zm0 8.15079l0 0 3.87402 0 0 3.87402 -3.87402 0 0 -3.87402zm0 8.15079l0 0 3.87402 0 0 3.87874 -3.87402 0 0 -3.87874zm0 8.15906l0 0 3.87402 0 0 3.87048 -3.87402 0 0 -3.87048zm0 8.15552l0 0 3.87402 0 0 3.87048 -3.87402 0 0 -3.87048zm0 8.15079l0 0 3.87402 0 0 3.8752 -3.87402 0 0 -3.8752zm0 8.15197l0 0 3.87402 0 0 3.87874 -3.87402 0 0 -3.87874zm0 8.15434l0 0 3.87402 0 0 3.8752 -3.87402 0 0 -3.8752zm0 8.15552l0 0 3.87402 0 0 3.87402 -3.87402 0 0 -3.87402zm0 8.15079l0 0 3.87402 0 0 3.87874 -3.87402 0 0 -3.87874zm0 8.15552l0 0 3.87402 0 0 3.87402 -3.87402 0 0 -3.87402zm0 8.15434l0 0 3.87402 0 0 3.87166 -3.87402 0 0 -3.87166zm0 8.15906l0 0 3.87402 0 0 3.87166 -3.87402 0 0 -3.87166zm0 8.15197l0 0 3.87402 0 0 3.8752 -3.87402 0 0 -3.8752zm0 8.15079l0 0 3.87402 0 0 3.87874 -3.87402 0 0 -3.87874zm0 8.15552l0 0 3.87402 0 0 3.87402 -3.87402 0 0 -3.87402zm0 8.15434l0 0 3.87402 0 0 3.8752 -3.87402 0 0 -3.8752zm0 8.15197l0 0 3.87402 0 0 3.87756 -3.87402 0 0 -3.87756zm3.87402 8.15434l0 0 0 3.8752 -3.87402 0 0 -3.8752 3.87402 0zm-12.0307 -154.926l0 0 3.87638 0 0 3.87402 -3.87638 0 0 -3.87402zm0 8.15906l0 0 3.87638 0 0 3.87048 -3.87638 0 0 -3.87048zm0 8.15079l0 0 3.87638 0 0 3.87402 -3.87638 0 0 -3.87402zm0 8.15079l0 0 3.87638 0 0 3.87874 -3.87638 0 0 -3.87874zm0 8.15906l0 0 3.87638 0 0 3.87048 -3.87638 0 0 -3.87048zm0 8.15552l0 0 3.87638 0 0 3.87048 -3.87638 0 0 -3.87048zm0 8.15079l0 0 3.87638 0 0 3.8752 -3.87638 0 0 -3.8752zm0 8.15197l0 0 3.87638 0 0 3.87874 -3.87638 0 0 -3.87874zm0 8.15434l0 0 3.87638 0 0 3.8752 -3.87638 0 0 -3.8752zm0 8.15552l0 0 3.87638 0 0 3.87402 -3.87638 0 0 -3.87402zm0 8.15079l0 0 3.87638 0 0 3.87874 -3.87638 0 0 -3.87874zm0 8.15552l0 0 3.87638 0 0 3.87402 -3.87638 0 0 -3.87402zm0 8.15434l0 0 3.87638 0 0 3.87166 -3.87638 0 0 -3.87166zm0 8.15906l0 0 3.87638 0 0 3.87166 -3.87638 0 0 -3.87166zm0 8.15197l0 0 3.87638 0 0 3.8752 -3.87638 0 0 -3.8752zm0 8.15079l0 0 3.87638 0 0 3.87874 -3.87638 0 0 -3.87874zm0 8.15552l0 0 3.87638 0 0 3.87402 -3.87638 0 0 -3.87402zm0 8.15434l0 0 3.87638 0 0 3.8752 -3.87638 0 0 -3.8752zm0 8.15197l0 0 3.87638 0 0 3.87756 -3.87638 0 0 -3.87756zm3.87638 8.15434l0 0 0 3.8752 -3.87638 0 0 -3.8752 3.87638 0zm-12.0284 -154.926l0 0 3.87402 0 0 3.87402 -3.87402 0 0 -3.87402zm0 8.15906l0 0 3.87402 0 0 3.87048 -3.87402 0 0 -3.87048zm0 8.15079l0 0 3.87402 0 0 3.87402 -3.87402 0 0 -3.87402zm0 8.15079l0 0 3.87402 0 0 3.87874 -3.87402 0 0 -3.87874zm0 8.15906l0 0 3.87402 0 0 3.87048 -3.87402 0 0 -3.87048zm0 8.15552l0 0 3.87402 0 0 3.87048 -3.87402 0 0 -3.87048zm0 8.15079l0 0 3.87402 0 0 3.8752 -3.87402 0 0 -3.8752zm0 8.15197l0 0 3.87402 0 0 3.87874 -3.87402 0 0 -3.87874zm0 8.15434l0 0 3.87402 0 0 3.8752 -3.87402 0 0 -3.8752zm0 8.15552l0 0 3.87402 0 0 3.87402 -3.87402 0 0 -3.87402zm0 8.15079l0 0 3.87402 0 0 3.87874 -3.87402 0 0 -3.87874zm0 8.15552l0 0 3.87402 0 0 3.87402 -3.87402 0 0 -3.87402zm0 8.15434l0 0 3.87402 0 0 3.87166 -3.87402 0 0 -3.87166zm0 8.15906l0 0 3.87402 0 0 3.87166 -3.87402 0 0 -3.87166zm0 8.15197l0 0 3.87402 0 0 3.8752 -3.87402 0 0 -3.8752zm0 8.15079l0 0 3.87402 0 0 3.87874 -3.87402 0 0 -3.87874zm0 8.15552l0 0 3.87402 0 0 3.87402 -3.87402 0 0 -3.87402zm0 8.15434l0 0 3.87402 0 0 3.8752 -3.87402 0 0 -3.8752zm0 8.15197l0 0 3.87402 0 0 3.87756 -3.87402 0 0 -3.87756zm3.87402 8.15434l0 0 0 3.8752 -3.87402 0 0 -3.8752 3.87402 0zm-12.0295 -163.082l0 0 3.87638 0 0 3.87874 -3.87638 0 0 -3.87874zm0 8.15552l0 0 3.87638 0 0 3.87402 -3.87638 0 0 -3.87402zm0 8.15906l0 0 3.87638 0 0 3.87048 -3.87638 0 0 -3.87048zm0 8.15079l0 0 3.87638 0 0 3.87402 -3.87638 0 0 -3.87402zm0 8.15079l0 0 3.87638 0 0 3.87874 -3.87638 0 0 -3.87874zm0 8.15906l0 0 3.87638 0 0 3.87048 -3.87638 0 0 -3.87048zm0 8.15552l0 0 3.87638 0 0 3.87048 -3.87638 0 0 -3.87048zm0 8.15079l0 0 3.87638 0 0 3.8752 -3.87638 0 0 -3.8752zm0 8.15197l0 0 3.87638 0 0 3.87874 -3.87638 0 0 -3.87874zm0 8.15434l0 0 3.87638 0 0 3.8752 -3.87638 0 0 -3.8752zm0 8.15552l0 0 3.87638 0 0 3.87402 -3.87638 0 0 -3.87402zm0 8.15079l0 0 3.87638 0 0 3.87874 -3.87638 0 0 -3.87874zm0 8.15552l0 0 3.87638 0 0 3.87402 -3.87638 0 0 -3.87402zm0 8.15434l0 0 3.87638 0 0 3.87166 -3.87638 0 0 -3.87166zm0 8.15906l0 0 3.87638 0 0 3.87166 -3.87638 0 0 -3.87166zm0 8.15197l0 0 3.87638 0 0 3.8752 -3.87638 0 0 -3.8752zm0 8.15079l0 0 3.87638 0 0 3.87874 -3.87638 0 0 -3.87874zm0 8.15552l0 0 3.87638 0 0 3.87402 -3.87638 0 0 -3.87402zm0 8.15434l0 0 3.87638 0 0 3.8752 -3.87638 0 0 -3.8752zm0 8.15197l0 0 3.87638 0 0 3.87756 -3.87638 0 0 -3.87756zm3.87638 8.15434l0 0 0 3.8752 -3.87638 0 0 -3.8752 3.87638 0zm-12.0295 -163.082l0 0 3.8752 0 0 3.87874 -3.8752 0 0 -3.87874zm0 8.15552l0 0 3.8752 0 0 3.87402 -3.8752 0 0 -3.87402zm0 8.15906l0 0 3.8752 0 0 3.87048 -3.8752 0 0 -3.87048zm0 8.15079l0 0 3.8752 0 0 3.87402 -3.8752 0 0 -3.87402zm0 8.15079l0 0 3.8752 0 0 3.87874 -3.8752 0 0 -3.87874zm0 8.15906l0 0 3.8752 0 0 3.87048 -3.8752 0 0 -3.87048zm0 8.15552l0 0 3.8752 0 0 3.87048 -3.8752 0 0 -3.87048zm0 8.15079l0 0 3.8752 0 0 3.8752 -3.8752 0 0 -3.8752zm0 8.15197l0 0 3.8752 0 0 3.87874 -3.8752 0 0 -3.87874zm0 8.15434l0 0 3.8752 0 0 3.8752 -3.8752 0 0 -3.8752zm0 8.15552l0 0 3.8752 0 0 3.87402 -3.8752 0 0 -3.87402zm0 8.15079l0 0 3.8752 0 0 3.87874 -3.8752 0 0 -3.87874zm0 8.15552l0 0 3.8752 0 0 3.87402 -3.8752 0 0 -3.87402zm0 8.15434l0 0 3.8752 0 0 3.87166 -3.8752 0 0 -3.87166zm0 8.15906l0 0 3.8752 0 0 3.87166 -3.8752 0 0 -3.87166zm0 8.15197l0 0 3.8752 0 0 3.8752 -3.8752 0 0 -3.8752zm0 8.15079l0 0 3.8752 0 0 3.87874 -3.8752 0 0 -3.87874zm0 8.15552l0 0 3.8752 0 0 3.87402 -3.8752 0 0 -3.87402zm0 8.15434l0 0 3.8752 0 0 3.8752 -3.8752 0 0 -3.8752zm0 8.15197l0 0 3.8752 0 0 3.87756 -3.8752 0 0 -3.87756zm3.8752 8.15434l0 0 0 3.8752 -3.8752 0 0 -3.8752 3.8752 0zm-12.0272 -163.082l0 0 3.87166 0 0 3.87874 -3.87166 0 0 -3.87874zm0 8.15552l0 0 3.87166 0 0 3.87402 -3.87166 0 0 -3.87402zm0 8.15906l0 0 3.87166 0 0 3.87048 -3.87166 0 0 -3.87048zm0 8.15079l0 0 3.87166 0 0 3.87402 -3.87166 0 0 -3.87402zm0 8.15079l0 0 3.87166 0 0 3.87874 -3.87166 0 0 -3.87874zm0 8.15906l0 0 3.87166 0 0 3.87048 -3.87166 0 0 -3.87048zm0 8.15552l0 0 3.87166 0 0 3.87048 -3.87166 0 0 -3.87048zm0 8.15079l0 0 3.87166 0 0 3.8752 -3.87166 0 0 -3.8752zm0 8.15197l0 0 3.87166 0 0 3.87874 -3.87166 0 0 -3.87874zm0 8.15434l0 0 3.87166 0 0 3.8752 -3.87166 0 0 -3.8752zm0 8.15552l0 0 3.87166 0 0 3.87402 -3.87166 0 0 -3.87402zm0 8.15079l0 0 3.87166 0 0 3.87874 -3.87166 0 0 -3.87874zm0 8.15552l0 0 3.87166 0 0 3.87402 -3.87166 0 0 -3.87402zm0 8.15434l0 0 3.87166 0 0 3.87166 -3.87166 0 0 -3.87166zm0 8.15906l0 0 3.87166 0 0 3.87166 -3.87166 0 0 -3.87166zm0 8.15197l0 0 3.87166 0 0 3.8752 -3.87166 0 0 -3.8752zm0 8.15079l0 0 3.87166 0 0 3.87874 -3.87166 0 0 -3.87874zm0 8.15552l0 0 3.87166 0 0 3.87402 -3.87166 0 0 -3.87402zm0 8.15434l0 0 3.87166 0 0 3.8752 -3.87166 0 0 -3.8752zm0 8.15197l0 0 3.87166 0 0 3.87756 -3.87166 0 0 -3.87756zm3.87166 8.15434l0 0 0 3.8752 -3.87166 0 0 -3.8752 3.87166 0zm-12.0284 -171.233l0 0 3.8752 0 0 3.87874 -3.8752 0 0 -3.87874zm0 8.15079l0 0 3.8752 0 0 3.87874 -3.8752 0 0 -3.87874zm0 8.15552l0 0 3.8752 0 0 3.87402 -3.8752 0 0 -3.87402zm0 8.15906l0 0 3.8752 0 0 3.87048 -3.8752 0 0 -3.87048zm0 8.15079l0 0 3.8752 0 0 3.87402 -3.8752 0 0 -3.87402zm0 8.15079l0 0 3.8752 0 0 3.87874 -3.8752 0 0 -3.87874zm0 8.15906l0 0 3.8752 0 0 3.87048 -3.8752 0 0 -3.87048zm0 8.15552l0 0 3.8752 0 0 3.87048 -3.8752 0 0 -3.87048zm0 8.15079l0 0 3.8752 0 0 3.8752 -3.8752 0 0 -3.8752zm0 8.15197l0 0 3.8752 0 0 3.87874 -3.8752 0 0 -3.87874zm0 8.15434l0 0 3.8752 0 0 3.8752 -3.8752 0 0 -3.8752zm0 8.15552l0 0 3.8752 0 0 3.87402 -3.8752 0 0 -3.87402zm0 8.15079l0 0 3.8752 0 0 3.87874 -3.8752 0 0 -3.87874zm0 8.15552l0 0 3.8752 0 0 3.87402 -3.8752 0 0 -3.87402zm0 8.15434l0 0 3.8752 0 0 3.87166 -3.8752 0 0 -3.87166zm0 8.15906l0 0 3.8752 0 0 3.87166 -3.8752 0 0 -3.87166zm0 8.15197l0 0 3.8752 0 0 3.8752 -3.8752 0 0 -3.8752zm0 8.15079l0 0 3.8752 0 0 3.87874 -3.8752 0 0 -3.87874zm0 8.15552l0 0 3.8752 0 0 3.87402 -3.8752 0 0 -3.87402zm0 8.15434l0 0 3.8752 0 0 3.8752 -3.8752 0 0 -3.8752zm0 8.15197l0 0 3.8752 0 0 3.87756 -3.8752 0 0 -3.87756zm3.8752 8.15434l0 0 0 3.8752 -3.8752 0 0 -3.8752 3.8752 0zm-12.0307 -171.233l0 0 3.87756 0 0 3.87874 -3.87756 0 0 -3.87874zm0 8.15079l0 0 3.87756 0 0 3.87874 -3.87756 0 0 -3.87874zm0 8.15552l0 0 3.87756 0 0 3.87402 -3.87756 0 0 -3.87402zm0 8.15906l0 0 3.87756 0 0 3.87048 -3.87756 0 0 -3.87048zm0 8.15079l0 0 3.87756 0 0 3.87402 -3.87756 0 0 -3.87402zm0 8.15079l0 0 3.87756 0 0 3.87874 -3.87756 0 0 -3.87874zm0 8.15906l0 0 3.87756 0 0 3.87048 -3.87756 0 0 -3.87048zm0 8.15552l0 0 3.87756 0 0 3.87048 -3.87756 0 0 -3.87048zm0 8.15079l0 0 3.87756 0 0 3.8752 -3.87756 0 0 -3.8752zm0 8.15197l0 0 3.87756 0 0 3.87874 -3.87756 0 0 -3.87874zm0 8.15434l0 0 3.87756 0 0 3.8752 -3.87756 0 0 -3.8752zm0 8.15552l0 0 3.87756 0 0 3.87402 -3.87756 0 0 -3.87402zm0 8.15079l0 0 3.87756 0 0 3.87874 -3.87756 0 0 -3.87874zm0 8.15552l0 0 3.87756 0 0 3.87402 -3.87756 0 0 -3.87402zm0 8.15434l0 0 3.87756 0 0 3.87166 -3.87756 0 0 -3.87166zm0 8.15906l0 0 3.87756 0 0 3.87166 -3.87756 0 0 -3.87166zm0 8.15197l0 0 3.87756 0 0 3.8752 -3.87756 0 0 -3.8752zm0 8.15079l0 0 3.87756 0 0 3.87874 -3.87756 0 0 -3.87874zm0 8.15552l0 0 3.87756 0 0 3.87402 -3.87756 0 0 -3.87402zm0 8.15434l0 0 3.87756 0 0 3.8752 -3.87756 0 0 -3.8752zm0 8.15197l0 0 3.87756 0 0 3.87756 -3.87756 0 0 -3.87756zm3.87756 8.15434l0 0 0 3.8752 -3.87756 0 0 -3.8752 3.87756 0zm-12.0295 -171.233l0 0 3.87402 0 0 3.87874 -3.87402 0 0 -3.87874zm0 8.15079l0 0 3.87402 0 0 3.87874 -3.87402 0 0 -3.87874zm0 8.15552l0 0 3.87402 0 0 3.87402 -3.87402 0 0 -3.87402zm0 8.15906l0 0 3.87402 0 0 3.87048 -3.87402 0 0 -3.87048zm0 8.15079l0 0 3.87402 0 0 3.87402 -3.87402 0 0 -3.87402zm0 8.15079l0 0 3.87402 0 0 3.87874 -3.87402 0 0 -3.87874zm0 8.15906l0 0 3.87402 0 0 3.87048 -3.87402 0 0 -3.87048zm0 8.15552l0 0 3.87402 0 0 3.87048 -3.87402 0 0 -3.87048zm0 8.15079l0 0 3.87402 0 0 3.8752 -3.87402 0 0 -3.8752zm0 8.15197l0 0 3.87402 0 0 3.87874 -3.87402 0 0 -3.87874zm0 8.15434l0 0 3.87402 0 0 3.8752 -3.87402 0 0 -3.8752zm0 8.15552l0 0 3.87402 0 0 3.87402 -3.87402 0 0 -3.87402zm0 8.15079l0 0 3.87402 0 0 3.87874 -3.87402 0 0 -3.87874zm0 8.15552l0 0 3.87402 0 0 3.87402 -3.87402 0 0 -3.87402zm0 8.15434l0 0 3.87402 0 0 3.87166 -3.87402 0 0 -3.87166zm0 8.15906l0 0 3.87402 0 0 3.87166 -3.87402 0 0 -3.87166zm0 8.15197l0 0 3.87402 0 0 3.8752 -3.87402 0 0 -3.8752zm0 8.15079l0 0 3.87402 0 0 3.87874 -3.87402 0 0 -3.87874zm0 8.15552l0 0 3.87402 0 0 3.87402 -3.87402 0 0 -3.87402zm0 8.15434l0 0 3.87402 0 0 3.8752 -3.87402 0 0 -3.8752zm0 8.15197l0 0 3.87402 0 0 3.87756 -3.87402 0 0 -3.87756zm3.87402 8.15434l0 0 0 3.8752 -3.87402 0 0 -3.8752 3.87402 0zm-12.0272 -171.233l0 0 3.87402 0 0 3.87874 -3.87402 0 0 -3.87874zm0 8.15079l0 0 3.87402 0 0 3.87874 -3.87402 0 0 -3.87874zm0 8.15552l0 0 3.87402 0 0 3.87402 -3.87402 0 0 -3.87402zm0 8.15906l0 0 3.87402 0 0 3.87048 -3.87402 0 0 -3.87048zm0 8.15079l0 0 3.87402 0 0 3.87402 -3.87402 0 0 -3.87402zm0 8.15079l0 0 3.87402 0 0 3.87874 -3.87402 0 0 -3.87874zm0 8.15906l0 0 3.87402 0 0 3.87048 -3.87402 0 0 -3.87048zm0 8.15552l0 0 3.87402 0 0 3.87048 -3.87402 0 0 -3.87048zm0 8.15079l0 0 3.87402 0 0 3.8752 -3.87402 0 0 -3.8752zm0 8.15197l0 0 3.87402 0 0 3.87874 -3.87402 0 0 -3.87874zm0 8.15434l0 0 3.87402 0 0 3.8752 -3.87402 0 0 -3.8752zm0 8.15552l0 0 3.87402 0 0 3.87402 -3.87402 0 0 -3.87402zm0 8.15079l0 0 3.87402 0 0 3.87874 -3.87402 0 0 -3.87874zm0 8.15552l0 0 3.87402 0 0 3.87402 -3.87402 0 0 -3.87402zm0 8.15434l0 0 3.87402 0 0 3.87166 -3.87402 0 0 -3.87166zm0 8.15906l0 0 3.87402 0 0 3.87166 -3.87402 0 0 -3.87166zm0 8.15197l0 0 3.87402 0 0 3.8752 -3.87402 0 0 -3.8752zm0 8.15079l0 0 3.87402 0 0 3.87874 -3.87402 0 0 -3.87874zm0 8.15552l0 0 3.87402 0 0 3.87402 -3.87402 0 0 -3.87402zm0 8.15434l0 0 3.87402 0 0 3.8752 -3.87402 0 0 -3.8752zm0 8.15197l0 0 3.87402 0 0 3.87756 -3.87402 0 0 -3.87756zm3.87402 8.15434l0 0 0 3.8752 -3.87402 0 0 -3.8752 3.87402 0zm-12.0295 -171.233l0 0 3.8752 0 0 3.87874 -3.8752 0 0 -3.87874zm0 8.15079l0 0 3.8752 0 0 3.87874 -3.8752 0 0 -3.87874zm0 8.15552l0 0 3.8752 0 0 3.87402 -3.8752 0 0 -3.87402zm0 8.15906l0 0 3.8752 0 0 3.87048 -3.8752 0 0 -3.87048zm0 8.15079l0 0 3.8752 0 0 3.87402 -3.8752 0 0 -3.87402zm0 8.15079l0 0 3.8752 0 0 3.87874 -3.8752 0 0 -3.87874zm0 8.15906l0 0 3.8752 0 0 3.87048 -3.8752 0 0 -3.87048zm0 8.15552l0 0 3.8752 0 0 3.87048 -3.8752 0 0 -3.87048zm0 8.15079l0 0 3.8752 0 0 3.8752 -3.8752 0 0 -3.8752zm0 8.15197l0 0 3.8752 0 0 3.87874 -3.8752 0 0 -3.87874zm0 8.15434l0 0 3.8752 0 0 3.8752 -3.8752 0 0 -3.8752zm0 8.15552l0 0 3.8752 0 0 3.87402 -3.8752 0 0 -3.87402zm0 8.15079l0 0 3.8752 0 0 3.87874 -3.8752 0 0 -3.87874zm0 8.15552l0 0 3.8752 0 0 3.87402 -3.8752 0 0 -3.87402zm0 8.15434l0 0 3.8752 0 0 3.87166 -3.8752 0 0 -3.87166zm0 8.15906l0 0 3.8752 0 0 3.87166 -3.8752 0 0 -3.87166zm0 8.15197l0 0 3.8752 0 0 3.8752 -3.8752 0 0 -3.8752zm0 8.15079l0 0 3.8752 0 0 3.87874 -3.8752 0 0 -3.87874zm0 8.15552l0 0 3.8752 0 0 3.87402 -3.8752 0 0 -3.87402zm0 8.15434l0 0 3.8752 0 0 3.8752 -3.8752 0 0 -3.8752zm0 8.15197l0 0 3.8752 0 0 3.87756 -3.8752 0 0 -3.87756zm3.8752 8.15434l0 0 0 3.8752 -3.8752 0 0 -3.8752 3.8752 0zm-12.0272 -171.233l0 0 3.87402 0 0 3.87874 -3.87402 0 0 -3.87874zm0 8.15079l0 0 3.87402 0 0 3.87874 -3.87402 0 0 -3.87874zm0 8.15552l0 0 3.87402 0 0 3.87402 -3.87402 0 0 -3.87402zm0 8.15906l0 0 3.87402 0 0 3.87048 -3.87402 0 0 -3.87048zm0 8.15079l0 0 3.87402 0 0 3.87402 -3.87402 0 0 -3.87402zm0 8.15079l0 0 3.87402 0 0 3.87874 -3.87402 0 0 -3.87874zm0 8.15906l0 0 3.87402 0 0 3.87048 -3.87402 0 0 -3.87048zm0 8.15552l0 0 3.87402 0 0 3.87048 -3.87402 0 0 -3.87048zm0 8.15079l0 0 3.87402 0 0 3.8752 -3.87402 0 0 -3.8752zm0 8.15197l0 0 3.87402 0 0 3.87874 -3.87402 0 0 -3.87874zm0 8.15434l0 0 3.87402 0 0 3.8752 -3.87402 0 0 -3.8752zm0 8.15552l0 0 3.87402 0 0 3.87402 -3.87402 0 0 -3.87402zm0 8.15079l0 0 3.87402 0 0 3.87874 -3.87402 0 0 -3.87874zm0 8.15552l0 0 3.87402 0 0 3.87402 -3.87402 0 0 -3.87402zm0 8.15434l0 0 3.87402 0 0 3.87166 -3.87402 0 0 -3.87166zm0 8.15906l0 0 3.87402 0 0 3.87166 -3.87402 0 0 -3.87166zm0 8.15197l0 0 3.87402 0 0 3.8752 -3.87402 0 0 -3.8752zm0 8.15079l0 0 3.87402 0 0 3.87874 -3.87402 0 0 -3.87874zm0 8.15552l0 0 3.87402 0 0 3.87402 -3.87402 0 0 -3.87402zm0 8.15434l0 0 3.87402 0 0 3.8752 -3.87402 0 0 -3.8752zm0 8.15197l0 0 3.87402 0 0 3.87756 -3.87402 0 0 -3.87756zm3.87402 8.15434l0 0 0 3.8752 -3.87402 0 0 -3.8752 3.87402 0zm-12.0307 -163.082l0 0 3.87638 0 0 3.87874 -3.87638 0 0 -3.87874zm0 8.15552l0 0 3.87638 0 0 3.87402 -3.87638 0 0 -3.87402zm0 8.15906l0 0 3.87638 0 0 3.87048 -3.87638 0 0 -3.87048zm0 8.15079l0 0 3.87638 0 0 3.87402 -3.87638 0 0 -3.87402zm0 8.15079l0 0 3.87638 0 0 3.87874 -3.87638 0 0 -3.87874zm0 8.15906l0 0 3.87638 0 0 3.87048 -3.87638 0 0 -3.87048zm0 8.15552l0 0 3.87638 0 0 3.87048 -3.87638 0 0 -3.87048zm0 8.15079l0 0 3.87638 0 0 3.8752 -3.87638 0 0 -3.8752zm0 8.15197l0 0 3.87638 0 0 3.87874 -3.87638 0 0 -3.87874zm0 8.15434l0 0 3.87638 0 0 3.8752 -3.87638 0 0 -3.8752zm0 8.15552l0 0 3.87638 0 0 3.87402 -3.87638 0 0 -3.87402zm0 8.15079l0 0 3.87638 0 0 3.87874 -3.87638 0 0 -3.87874zm0 8.15552l0 0 3.87638 0 0 3.87402 -3.87638 0 0 -3.87402zm0 8.15434l0 0 3.87638 0 0 3.87166 -3.87638 0 0 -3.87166zm0 8.15906l0 0 3.87638 0 0 3.87166 -3.87638 0 0 -3.87166zm0 8.15197l0 0 3.87638 0 0 3.8752 -3.87638 0 0 -3.8752zm0 8.15079l0 0 3.87638 0 0 3.87874 -3.87638 0 0 -3.87874zm0 8.15552l0 0 3.87638 0 0 3.87402 -3.87638 0 0 -3.87402zm0 8.15434l0 0 3.87638 0 0 3.8752 -3.87638 0 0 -3.8752zm0 8.15197l0 0 3.87638 0 0 3.87756 -3.87638 0 0 -3.87756zm3.87638 8.15434l0 0 0 3.8752 -3.87638 0 0 -3.8752 3.87638 0zm-12.0295 -163.082l0 0 3.87638 0 0 3.87874 -3.87638 0 0 -3.87874zm0 8.15552l0 0 3.87638 0 0 3.87402 -3.87638 0 0 -3.87402zm0 8.15906l0 0 3.87638 0 0 3.87048 -3.87638 0 0 -3.87048zm0 8.15079l0 0 3.87638 0 0 3.87402 -3.87638 0 0 -3.87402zm0 8.15079l0 0 3.87638 0 0 3.87874 -3.87638 0 0 -3.87874zm0 8.15906l0 0 3.87638 0 0 3.87048 -3.87638 0 0 -3.87048zm0 8.15552l0 0 3.87638 0 0 3.87048 -3.87638 0 0 -3.87048zm0 8.15079l0 0 3.87638 0 0 3.8752 -3.87638 0 0 -3.8752zm0 8.15197l0 0 3.87638 0 0 3.87874 -3.87638 0 0 -3.87874zm0 8.15434l0 0 3.87638 0 0 3.8752 -3.87638 0 0 -3.8752zm0 8.15552l0 0 3.87638 0 0 3.87402 -3.87638 0 0 -3.87402zm0 8.15079l0 0 3.87638 0 0 3.87874 -3.87638 0 0 -3.87874zm0 8.15552l0 0 3.87638 0 0 3.87402 -3.87638 0 0 -3.87402zm0 8.15434l0 0 3.87638 0 0 3.87166 -3.87638 0 0 -3.87166zm0 8.15906l0 0 3.87638 0 0 3.87166 -3.87638 0 0 -3.87166zm0 8.15197l0 0 3.87638 0 0 3.8752 -3.87638 0 0 -3.8752zm0 8.15079l0 0 3.87638 0 0 3.87874 -3.87638 0 0 -3.87874zm0 8.15552l0 0 3.87638 0 0 3.87402 -3.87638 0 0 -3.87402zm0 8.15434l0 0 3.87638 0 0 3.8752 -3.87638 0 0 -3.8752zm0 8.15197l0 0 3.87638 0 0 3.87756 -3.87638 0 0 -3.87756zm3.87638 8.15434l0 0 0 3.8752 -3.87638 0 0 -3.8752 3.87638 0zm-12.0284 -163.082l0 0 3.87166 0 0 3.87874 -3.87166 0 0 -3.87874zm0 8.15552l0 0 3.87166 0 0 3.87402 -3.87166 0 0 -3.87402zm0 8.15906l0 0 3.87166 0 0 3.87048 -3.87166 0 0 -3.87048zm0 8.15079l0 0 3.87166 0 0 3.87402 -3.87166 0 0 -3.87402zm0 8.15079l0 0 3.87166 0 0 3.87874 -3.87166 0 0 -3.87874zm0 8.15906l0 0 3.87166 0 0 3.87048 -3.87166 0 0 -3.87048zm0 8.15552l0 0 3.87166 0 0 3.87048 -3.87166 0 0 -3.87048zm0 8.15079l0 0 3.87166 0 0 3.8752 -3.87166 0 0 -3.8752zm0 8.15197l0 0 3.87166 0 0 3.87874 -3.87166 0 0 -3.87874zm0 8.15434l0 0 3.87166 0 0 3.8752 -3.87166 0 0 -3.8752zm0 8.15552l0 0 3.87166 0 0 3.87402 -3.87166 0 0 -3.87402zm0 8.15079l0 0 3.87166 0 0 3.87874 -3.87166 0 0 -3.87874zm0 8.15552l0 0 3.87166 0 0 3.87402 -3.87166 0 0 -3.87402zm0 8.15434l0 0 3.87166 0 0 3.87166 -3.87166 0 0 -3.87166zm0 8.15906l0 0 3.87166 0 0 3.87166 -3.87166 0 0 -3.87166zm0 8.15197l0 0 3.87166 0 0 3.8752 -3.87166 0 0 -3.8752zm0 8.15079l0 0 3.87166 0 0 3.87874 -3.87166 0 0 -3.87874zm0 8.15552l0 0 3.87166 0 0 3.87402 -3.87166 0 0 -3.87402zm0 8.15434l0 0 3.87166 0 0 3.8752 -3.87166 0 0 -3.8752zm0 8.15197l0 0 3.87166 0 0 3.87756 -3.87166 0 0 -3.87756zm3.87166 8.15434l0 0 0 3.8752 -3.87166 0 0 -3.8752 3.87166 0zm-12.0272 -154.926l0 0 3.87402 0 0 3.87402 -3.87402 0 0 -3.87402zm0 8.15906l0 0 3.87402 0 0 3.87048 -3.87402 0 0 -3.87048zm0 8.15079l0 0 3.87402 0 0 3.87402 -3.87402 0 0 -3.87402zm0 8.15079l0 0 3.87402 0 0 3.87874 -3.87402 0 0 -3.87874zm0 8.15906l0 0 3.87402 0 0 3.87048 -3.87402 0 0 -3.87048zm0 8.15552l0 0 3.87402 0 0 3.87048 -3.87402 0 0 -3.87048zm0 8.15079l0 0 3.87402 0 0 3.8752 -3.87402 0 0 -3.8752zm0 8.15197l0 0 3.87402 0 0 3.87874 -3.87402 0 0 -3.87874zm0 8.15434l0 0 3.87402 0 0 3.8752 -3.87402 0 0 -3.8752zm0 8.15552l0 0 3.87402 0 0 3.87402 -3.87402 0 0 -3.87402zm0 8.15079l0 0 3.87402 0 0 3.87874 -3.87402 0 0 -3.87874zm0 8.15552l0 0 3.87402 0 0 3.87402 -3.87402 0 0 -3.87402zm0 8.15434l0 0 3.87402 0 0 3.87166 -3.87402 0 0 -3.87166zm0 8.15906l0 0 3.87402 0 0 3.87166 -3.87402 0 0 -3.87166zm0 8.15197l0 0 3.87402 0 0 3.8752 -3.87402 0 0 -3.8752zm0 8.15079l0 0 3.87402 0 0 3.87874 -3.87402 0 0 -3.87874zm0 8.15552l0 0 3.87402 0 0 3.87402 -3.87402 0 0 -3.87402zm0 8.15434l0 0 3.87402 0 0 3.8752 -3.87402 0 0 -3.8752zm0 8.15197l0 0 3.87402 0 0 3.87756 -3.87402 0 0 -3.87756zm3.87402 8.15434l0 0 0 3.8752 -3.87402 0 0 -3.8752 3.87402 0zm-12.0295 -154.926l0 0 3.87756 0 0 3.87402 -3.87756 0 0 -3.87402zm0 8.15906l0 0 3.87756 0 0 3.87048 -3.87756 0 0 -3.87048zm0 8.15079l0 0 3.87756 0 0 3.87402 -3.87756 0 0 -3.87402zm0 8.15079l0 0 3.87756 0 0 3.87874 -3.87756 0 0 -3.87874zm0 8.15906l0 0 3.87756 0 0 3.87048 -3.87756 0 0 -3.87048zm0 8.15552l0 0 3.87756 0 0 3.87048 -3.87756 0 0 -3.87048zm0 8.15079l0 0 3.87756 0 0 3.8752 -3.87756 0 0 -3.8752zm0 8.15197l0 0 3.87756 0 0 3.87874 -3.87756 0 0 -3.87874zm0 8.15434l0 0 3.87756 0 0 3.8752 -3.87756 0 0 -3.8752zm0 8.15552l0 0 3.87756 0 0 3.87402 -3.87756 0 0 -3.87402zm0 8.15079l0 0 3.87756 0 0 3.87874 -3.87756 0 0 -3.87874zm0 8.15552l0 0 3.87756 0 0 3.87402 -3.87756 0 0 -3.87402zm0 8.15434l0 0 3.87756 0 0 3.87166 -3.87756 0 0 -3.87166zm0 8.15906l0 0 3.87756 0 0 3.87166 -3.87756 0 0 -3.87166zm0 8.15197l0 0 3.87756 0 0 3.8752 -3.87756 0 0 -3.8752zm0 8.15079l0 0 3.87756 0 0 3.87874 -3.87756 0 0 -3.87874zm0 8.15552l0 0 3.87756 0 0 3.87402 -3.87756 0 0 -3.87402zm0 8.15434l0 0 3.87756 0 0 3.8752 -3.87756 0 0 -3.8752zm0 8.15197l0 0 3.87756 0 0 3.87756 -3.87756 0 0 -3.87756zm3.87756 8.15434l0 0 0 3.8752 -3.87756 0 0 -3.8752 3.87756 0zm-12.0295 -146.767l0 0 3.87402 0 0 3.87048 -3.87402 0 0 -3.87048zm0 8.15079l0 0 3.87402 0 0 3.87402 -3.87402 0 0 -3.87402zm0 8.15079l0 0 3.87402 0 0 3.87874 -3.87402 0 0 -3.87874zm0 8.15906l0 0 3.87402 0 0 3.87048 -3.87402 0 0 -3.87048zm0 8.15552l0 0 3.87402 0 0 3.87048 -3.87402 0 0 -3.87048zm0 8.15079l0 0 3.87402 0 0 3.8752 -3.87402 0 0 -3.8752zm0 8.15197l0 0 3.87402 0 0 3.87874 -3.87402 0 0 -3.87874zm0 8.15434l0 0 3.87402 0 0 3.8752 -3.87402 0 0 -3.8752zm0 8.15552l0 0 3.87402 0 0 3.87402 -3.87402 0 0 -3.87402zm0 8.15079l0 0 3.87402 0 0 3.87874 -3.87402 0 0 -3.87874zm0 8.15552l0 0 3.87402 0 0 3.87402 -3.87402 0 0 -3.87402zm0 8.15434l0 0 3.87402 0 0 3.87166 -3.87402 0 0 -3.87166zm0 8.15906l0 0 3.87402 0 0 3.87166 -3.87402 0 0 -3.87166zm0 8.15197l0 0 3.87402 0 0 3.8752 -3.87402 0 0 -3.8752zm0 8.15079l0 0 3.87402 0 0 3.87874 -3.87402 0 0 -3.87874zm0 8.15552l0 0 3.87402 0 0 3.87402 -3.87402 0 0 -3.87402zm0 8.15434l0 0 3.87402 0 0 3.8752 -3.87402 0 0 -3.8752zm0 8.15197l0 0 3.87402 0 0 3.87756 -3.87402 0 0 -3.87756zm3.87402 8.15434l0 0 0 3.8752 -3.87402 0 0 -3.8752 3.87402 0zm-12.0272 -138.617l0 0 3.87402 0 0 3.87402 -3.87402 0 0 -3.87402zm0 8.15079l0 0 3.87402 0 0 3.87874 -3.87402 0 0 -3.87874zm0 8.15906l0 0 3.87402 0 0 3.87048 -3.87402 0 0 -3.87048zm0 8.15552l0 0 3.87402 0 0 3.87048 -3.87402 0 0 -3.87048zm0 8.15079l0 0 3.87402 0 0 3.8752 -3.87402 0 0 -3.8752zm0 8.15197l0 0 3.87402 0 0 3.87874 -3.87402 0 0 -3.87874zm0 8.15434l0 0 3.87402 0 0 3.8752 -3.87402 0 0 -3.8752zm0 8.15552l0 0 3.87402 0 0 3.87402 -3.87402 0 0 -3.87402zm0 8.15079l0 0 3.87402 0 0 3.87874 -3.87402 0 0 -3.87874zm0 8.15552l0 0 3.87402 0 0 3.87402 -3.87402 0 0 -3.87402zm0 8.15434l0 0 3.87402 0 0 3.87166 -3.87402 0 0 -3.87166zm0 8.15906l0 0 3.87402 0 0 3.87166 -3.87402 0 0 -3.87166zm0 8.15197l0 0 3.87402 0 0 3.8752 -3.87402 0 0 -3.8752zm0 8.15079l0 0 3.87402 0 0 3.87874 -3.87402 0 0 -3.87874zm0 8.15552l0 0 3.87402 0 0 3.87402 -3.87402 0 0 -3.87402zm0 8.15434l0 0 3.87402 0 0 3.8752 -3.87402 0 0 -3.8752zm0 8.15197l0 0 3.87402 0 0 3.87756 -3.87402 0 0 -3.87756zm3.87402 8.15434l0 0 0 3.8752 -3.87402 0 0 -3.8752 3.87402 0zm-12.0307 -130.466l0 0 3.87638 0 0 3.87874 -3.87638 0 0 -3.87874zm0 8.15906l0 0 3.87638 0 0 3.87048 -3.87638 0 0 -3.87048zm0 8.15552l0 0 3.87638 0 0 3.87048 -3.87638 0 0 -3.87048zm0 8.15079l0 0 3.87638 0 0 3.8752 -3.87638 0 0 -3.8752zm0 8.15197l0 0 3.87638 0 0 3.87874 -3.87638 0 0 -3.87874zm0 8.15434l0 0 3.87638 0 0 3.8752 -3.87638 0 0 -3.8752zm0 8.15552l0 0 3.87638 0 0 3.87402 -3.87638 0 0 -3.87402zm0 8.15079l0 0 3.87638 0 0 3.87874 -3.87638 0 0 -3.87874zm0 8.15552l0 0 3.87638 0 0 3.87402 -3.87638 0 0 -3.87402zm0 8.15434l0 0 3.87638 0 0 3.87166 -3.87638 0 0 -3.87166zm0 8.15906l0 0 3.87638 0 0 3.87166 -3.87638 0 0 -3.87166zm0 8.15197l0 0 3.87638 0 0 3.8752 -3.87638 0 0 -3.8752zm0 8.15079l0 0 3.87638 0 0 3.87874 -3.87638 0 0 -3.87874zm0 8.15552l0 0 3.87638 0 0 3.87402 -3.87638 0 0 -3.87402zm0 8.15434l0 0 3.87638 0 0 3.8752 -3.87638 0 0 -3.8752zm0 8.15197l0 0 3.87638 0 0 3.87756 -3.87638 0 0 -3.87756zm-8.15316 -105.997l0 0 3.87638 0 0 3.87048 -3.87638 0 0 -3.87048zm0 8.15079l0 0 3.87638 0 0 3.8752 -3.87638 0 0 -3.8752zm0 8.15197l0 0 3.87638 0 0 3.87874 -3.87638 0 0 -3.87874zm0 8.15434l0 0 3.87638 0 0 3.8752 -3.87638 0 0 -3.8752zm0 8.15552l0 0 3.87638 0 0 3.87402 -3.87638 0 0 -3.87402zm0 8.15079l0 0 3.87638 0 0 3.87874 -3.87638 0 0 -3.87874zm0 8.15552l0 0 3.87638 0 0 3.87402 -3.87638 0 0 -3.87402zm0 8.15434l0 0 3.87638 0 0 3.87166 -3.87638 0 0 -3.87166zm0 8.15906l0 0 3.87638 0 0 3.87166 -3.87638 0 0 -3.87166zm0 8.15197l0 0 3.87638 0 0 3.8752 -3.87638 0 0 -3.8752zm0 8.15079l0 0 3.87638 0 0 3.87874 -3.87638 0 0 -3.87874zm0 8.15552l0 0 3.87638 0 0 3.87402 -3.87638 0 0 -3.87402zm-8.15434 -65.2335l0 0 3.87638 0 0 3.8752 -3.87638 0 0 -3.8752zm0 8.15552l0 0 3.87638 0 0 3.87402 -3.87638 0 0 -3.87402zm0 8.15079l0 0 3.87638 0 0 3.87874 -3.87638 0 0 -3.87874zm0 8.15552l0 0 3.87638 0 0 3.87402 -3.87638 0 0 -3.87402zm0 8.15434l0 0 3.87638 0 0 3.87166 -3.87638 0 0 -3.87166zm0 8.15906l0 0 3.87638 0 0 3.87166 -3.87638 0 0 -3.87166zm81.5422 85.4103l0 0 0 -3.8752 3.87402 0 0 3.8752 -3.87402 0zm8.15197 0l0 0 0 -3.8752 3.8752 0 0 3.8752 -3.8752 0zm8.15552 0l0 0 0 -3.8752 3.87402 0 0 3.8752 -3.87402 0zm8.15316 0l0 0 0 -3.8752 3.87402 0 0 3.8752 -3.87402 0zm8.15197 0l0 0 0 -3.8752 3.87756 0 0 3.8752 -3.87756 0z"/>
  </g>
 </g>
</svg>
