<svg width="442" height="103" viewBox="0 0 442 103" fill="none" xmlns="http://www.w3.org/2000/svg">
<path d="M8.70339 69.0007C8.40209 68.996 8.10312 68.8407 7.80649 68.5348L7.01908 68.2965L6.79136 68.406L7.02258 68.0706C7.02607 67.8446 6.87717 67.7293 6.57588 67.7246C6.27458 67.72 6.04861 67.7165 5.89796 67.7141C5.98144 67.188 5.68422 66.9197 5.0063 66.9092C4.40371 66.8999 4.14241 66.7452 4.22239 66.445L3.77219 66.3251C3.7027 65.9473 3.48197 65.6048 3.11001 65.2977C3.26299 65.1494 3.30357 64.9617 3.23174 64.7345C3.15875 64.5827 3.12283 64.4691 3.124 64.3938C2.97335 64.3915 2.82387 64.3138 2.67555 64.1608L2.56781 63.8201C2.41716 63.8178 2.19235 63.739 1.89339 63.5837C1.89572 63.433 1.86039 63.2818 1.78739 63.13C1.78972 62.9793 1.79147 62.8663 1.79264 62.791L1.67965 62.7893C1.60899 62.4868 1.49833 62.3344 1.34769 62.3321C1.27236 62.3309 1.15996 62.2915 1.01047 62.2138C0.86915 61.6089 0.838481 61.1564 0.918468 60.8563C0.998455 60.5561 1.00487 60.1418 0.9377 59.6134L1.05418 59.3892C1.4413 58.7171 1.63485 58.381 1.63485 58.381C1.86082 58.3845 2.04564 58.6134 2.18929 59.0677C2.33295 59.522 2.47835 59.8633 2.6255 60.0916C2.69966 60.1681 2.81148 60.2451 2.96097 60.3228C3.11045 60.4005 3.14695 60.4764 3.07046 60.5505L2.95048 61.0007L3.1782 60.8912C3.17354 61.1925 3.24536 61.4197 3.39368 61.5726C3.46434 61.8751 3.60741 62.367 3.8229 63.0485C4.03955 63.6546 4.41209 63.924 4.94052 63.8569C4.93703 64.0828 5.04652 64.3105 5.26899 64.54C5.56679 64.7707 5.82926 64.8501 6.0564 64.7782C6.12939 64.93 6.31596 65.0459 6.61609 65.1259C6.91622 65.2059 7.14103 65.2847 7.29051 65.3624C7.6683 65.2929 8.0455 65.2611 8.42212 65.2669C8.8729 65.3492 9.28719 65.3556 9.66498 65.2861L12.1577 64.8726C12.2342 64.7985 12.6137 64.616 13.2963 64.3252C13.9789 64.0344 14.4731 63.7407 14.7791 63.444L14.8921 63.4458C15.2687 63.4516 15.6465 63.3821 16.0254 63.2373C16.4809 63.0183 16.8604 62.8358 17.164 62.6898C17.3912 62.618 17.5812 62.5079 17.7342 62.3596C17.8884 62.136 18.079 61.9882 18.3061 61.9164L19.3318 61.3672C19.5601 61.2201 19.7866 61.1859 20.0114 61.2647C20.3127 61.2694 20.5787 61.1228 20.8093 60.825C21.0376 60.6779 21.2289 60.4925 21.383 60.2688C21.6125 60.0463 21.8037 59.861 21.9567 59.7126L22.2956 59.7179C22.5274 59.3448 22.6828 59.0458 22.7616 58.821L24.9206 58.0633C25.0735 57.915 25.1889 57.7661 25.2665 57.6166C25.4207 57.393 25.5366 57.2064 25.6142 57.0569C25.7672 56.9086 25.9572 56.7985 26.1844 56.7267C26.4127 56.5795 26.5292 56.3553 26.5338 56.054C26.9128 55.9092 27.2547 55.7261 27.5595 55.5048C27.9396 55.2847 28.2073 55.0251 28.3626 54.7262C28.5144 54.6532 28.9716 54.3212 29.7342 53.7303C30.4979 53.064 31.3758 52.3242 32.3678 51.5107C33.3599 50.6973 34.2372 49.9951 34.9997 49.4042C35.7635 48.7379 36.1836 48.3677 36.2601 48.2936L36.719 47.8486L33.2374 46.4386C31.2906 45.655 29.2662 45.021 27.1641 44.5364C25.1385 43.9776 22.9223 43.5666 20.5154 43.3034C19.9893 43.2199 19.615 43.0634 19.3925 42.8339C19.2465 42.5303 19.1794 42.0019 19.191 41.2486C19.2062 40.2694 19.5927 39.635 20.3506 39.3453C21.1097 38.9804 21.9788 38.8055 22.958 38.8206C24.0126 38.8369 24.84 38.9251 25.4403 39.0851C26.1158 39.2462 27.0556 39.3738 28.2597 39.4677C28.4103 39.4701 28.9735 39.5918 29.9492 39.8329C30.9261 39.9987 31.9783 40.1657 33.1059 40.3338C33.2565 40.3361 33.8585 40.3831 34.9119 40.4748C36.0406 40.5676 37.0192 40.6204 37.8478 40.6332C38.8282 40.573 39.8456 40.5511 40.9002 40.5674C41.9547 40.5838 43.0093 40.6001 44.0638 40.6164L45.903 38.6106C46.5926 37.8679 47.2445 37.1245 47.8588 36.3806C48.5484 35.6379 49.275 34.9333 50.0387 34.2671C50.2682 34.0446 50.4971 33.8598 50.7254 33.7126C51.029 33.5667 51.2962 33.3448 51.5268 33.047L52.5629 31.8198C52.7159 31.6715 52.8683 31.5609 53.0201 31.4879C53.2472 31.416 53.3991 31.3431 53.4755 31.2689C53.7815 30.9723 54.0504 30.6374 54.2822 30.2643C54.514 29.8911 54.7075 29.5551 54.8629 29.2561C55.0135 29.2585 55.2806 29.0366 55.6643 28.5904C56.0479 28.1443 56.2785 27.8465 56.3562 27.697C56.7351 27.5522 57.0022 27.3303 57.1576 27.0314C57.3894 26.6582 57.5835 26.2845 57.74 25.9102C57.9683 25.7631 58.1966 25.6159 58.4249 25.4688C58.7297 25.2475 58.9591 25.025 59.1133 24.8013C59.2674 24.5777 59.3845 24.3158 59.4645 24.0157C59.6198 23.7167 59.8487 23.5319 60.1511 23.4612C60.3864 22.8622 60.8865 22.1918 61.6514 21.4502C62.4928 20.6345 62.9535 20.0765 63.0335 19.7764C63.4113 19.7069 63.7538 19.4862 64.0609 19.1142C64.3692 18.6669 64.6751 18.3703 64.9788 18.2243C65.2929 17.4004 65.8689 16.6936 66.7068 16.1038C67.5458 15.4387 68.0088 14.7301 68.0958 13.978C68.1735 13.8286 68.2882 13.7173 68.44 13.6443C68.5918 13.5713 68.706 13.4978 68.7825 13.4236C69.0108 13.2764 69.1644 13.0905 69.2432 12.8657C69.3985 12.5667 69.5909 12.306 69.8203 12.0835C69.898 11.934 69.9751 11.8222 70.0516 11.748C70.2034 11.675 70.3175 11.6015 70.394 11.5273C70.3187 11.5261 70.0562 11.4467 69.6066 11.2891C69.456 11.2868 69.1547 11.2821 68.7027 11.2751C68.2519 11.1928 67.7629 11.1475 67.2356 11.1394C65.5032 11.1126 64.3345 11.1698 63.7296 11.3112C62.2972 11.3643 61.0526 11.4581 59.9958 11.5924C59.0142 11.7279 57.8426 11.9735 56.4809 12.3291C56.4809 12.3291 56.4439 12.2909 56.3697 12.2144C56.2956 12.1379 56.2208 12.0991 56.1455 12.0979L56.0342 11.9832C55.8094 11.9044 55.7712 11.9414 55.9195 12.0944C56.0678 12.2474 56.0284 12.3598 55.8013 12.4316C55.3482 12.5 54.8192 12.6048 54.2142 12.7461C53.6846 12.8886 53.1939 12.9563 52.7419 12.9494C52.5148 13.0212 52.2882 13.0553 52.0622 13.0518C51.8374 12.973 51.612 12.9319 51.3861 12.9284C50.6317 12.992 49.8743 13.244 49.1141 13.6843C48.4304 14.0504 47.7107 14.303 46.9551 14.442L45.594 14.76C45.0644 14.9025 44.6478 15.0467 44.3442 15.1927C44.1171 15.2645 43.701 15.3711 43.0961 15.5124L42.074 15.8356C41.8468 15.9075 41.582 15.9787 41.2796 16.0494C41.0524 16.1212 40.7876 16.1924 40.4852 16.2631C39.8791 16.4798 39.2347 16.7335 38.5522 17.0243C37.9449 17.3163 37.3388 17.5329 36.7339 17.6742L34.6914 18.2077C34.4642 18.2795 34.1247 18.3119 33.6728 18.3049C33.0702 18.2956 32.657 18.2139 32.4334 18.0597C32.1344 17.9044 31.7642 17.4843 31.3228 16.7994C30.9578 16.0403 30.8153 15.5107 30.8953 15.2106C31.3577 14.5397 32.2698 14.0264 33.6315 13.6708C35.0696 13.241 35.9776 12.9913 36.3554 12.9218C36.4319 12.8477 36.7726 12.7399 37.3775 12.5986C38.0589 12.3831 38.7021 12.2047 39.307 12.0634C39.9119 11.9221 40.2132 11.9267 40.2109 12.0774C40.2851 12.1539 39.8661 12.4487 38.9541 12.962C38.0432 13.4 37.5495 13.656 37.473 13.7302C37.4718 13.8055 37.3948 13.9173 37.2418 14.0657C37.1641 14.2151 37.1635 14.2528 37.24 14.1786L39.8492 13.5409C40.001 13.4679 40.3029 13.435 40.7548 13.4419L41.5458 13.4542C42.073 13.4623 42.4131 13.3923 42.5661 13.2439C42.7214 12.945 42.8744 12.7967 43.0251 12.799C43.404 12.6542 43.9707 12.5499 44.7251 12.4863C45.556 12.3484 46.0856 12.2059 46.3139 12.0588C46.6917 11.9893 47.1066 11.958 47.5585 11.965C48.0116 11.8967 48.4277 11.7901 48.8066 11.6453C49.0337 11.5735 49.7893 11.4345 51.0733 11.2283C52.4327 11.0233 53.792 10.8183 55.1513 10.6134C56.5107 10.4084 57.2657 10.307 57.4163 10.3094L57.5293 10.3111C57.9059 10.3169 58.2831 10.2851 58.6609 10.2156C59.0399 10.0708 59.2635 10.2249 59.3318 10.678C59.4072 10.6792 59.4442 10.7175 59.4431 10.7928C59.4431 10.7928 59.4807 10.7934 59.5561 10.7945C60.008 10.8015 60.4252 10.6196 60.8077 10.2488C60.9595 10.1758 61.3373 10.1063 61.941 10.0403C62.5448 9.97433 62.922 9.9425 63.0726 9.94483C63.6764 9.87883 64.1666 9.84875 64.5432 9.85457C64.9198 9.8604 65.2588 9.86565 65.5601 9.87031C66.1627 9.87963 66.6894 9.92546 67.1401 10.0078C67.6674 10.0159 68.3071 10.0635 69.0592 10.1505C69.3593 10.2305 69.7353 10.274 70.1873 10.281C70.7146 10.2891 71.1659 10.3338 71.5414 10.4149L72.0021 9.85698C72.534 9.56384 72.9883 9.42018 73.3649 9.42601C73.6662 9.43067 73.8145 9.58366 73.8098 9.88495C73.797 10.7135 73.3711 11.4604 72.532 12.1255C72.4555 12.1996 72.2655 12.3097 71.9618 12.4557C71.6594 12.5263 71.4693 12.6364 71.3917 12.7859C70.9999 13.7593 70.2327 14.6515 69.09 15.4626C68.0226 16.2748 67.4484 16.8687 67.3672 17.2442C67.0636 17.3901 66.7211 17.6109 66.3398 17.9063C65.9586 18.2018 65.7279 18.4996 65.6479 18.7997C65.2643 19.2459 64.9554 19.7308 64.7213 20.2546C64.4883 20.703 64.1424 21.1497 63.6835 21.5947C63.454 21.8172 63.0704 22.2633 62.5326 22.933C61.9948 23.6028 61.4571 24.2726 60.9193 24.9423C60.3827 25.5367 60.0014 25.8322 59.7755 25.8287C59.546 26.0512 59.4307 26.2001 59.4295 26.2754C59.5037 26.3519 59.3507 26.5002 58.9706 26.7204C58.5881 27.0912 58.2804 27.5008 58.0475 27.9492C57.5943 28.0176 57.2131 28.313 56.9036 28.8356C56.6706 29.2841 56.4383 29.6949 56.2065 30.068C55.8993 30.44 55.5551 30.7737 55.1738 31.0692C54.8679 31.3658 54.5613 31.7001 54.2542 32.072C53.9518 32.1427 53.6075 32.4764 53.2216 33.0732C52.9121 33.5958 52.6803 33.9689 52.5262 34.1926C52.0661 34.7128 51.6454 35.1207 51.2641 35.4162C50.9582 35.7128 50.7993 36.2378 50.7877 36.991C50.6347 37.1393 50.4052 37.3618 50.0993 37.6584C49.7933 37.9551 49.6009 38.2158 49.5221 38.4406C49.3668 38.7396 49.1367 38.9997 48.832 39.221C48.6025 39.4435 48.4101 39.7042 48.2548 40.0032L47.9123 40.2239L47.7958 40.4481C48.6997 40.4621 49.6036 40.4761 50.5075 40.4901C51.4114 40.5041 52.2782 40.4798 53.108 40.4173L56.84 40.249C56.9907 40.2514 57.2149 40.3678 57.5127 40.5985C57.887 40.755 58.1124 40.7961 58.1889 40.722C58.4148 40.7255 58.4919 40.6136 58.4201 40.3865C58.3494 40.084 58.4647 39.9351 58.766 39.9398C59.4451 39.875 60.2748 39.8125 61.2552 39.7523C62.3121 39.618 63.3319 39.4454 64.3146 39.2346L65.3804 36.0867L66.448 32.8258C66.6068 32.3009 66.838 31.9654 67.1417 31.8194C67.4453 31.6734 67.6371 31.4504 67.7171 31.1502C67.7947 31.0007 67.7212 30.8866 67.4964 30.8078C67.2727 30.6536 67.2762 30.4277 67.5069 30.1299C68.2174 28.0313 69.1163 25.9356 70.2035 23.8428C71.2906 21.7501 72.2242 19.8433 73.0043 18.1225L73.006 18.0095C73.2367 17.7117 73.4285 17.4886 73.5815 17.3403C73.8098 17.1932 73.9633 17.0072 74.0422 16.7824C73.968 16.7059 73.9692 16.6306 74.0456 16.5564C74.1221 16.4822 74.0856 16.4063 73.9362 16.3287C74.4716 15.8096 74.7834 15.1363 74.8715 14.3089L76.0381 11.9537L77.7749 9.26823C77.8537 9.04342 78.0461 8.7827 78.352 8.48607C78.9651 7.81747 79.4976 7.48667 79.9496 7.49366C80.6275 7.50415 80.6587 7.91902 80.0433 8.73826L79.8086 9.2997L79.002 10.3043L78.5308 11.5402C77.7566 12.8844 77.0183 14.3421 76.3159 15.9134C75.6135 17.4848 74.8346 19.1302 73.9792 20.8499L73.9722 21.3018C73.9664 21.6785 73.8493 21.9403 73.621 22.0875C73.468 22.2358 73.1644 22.3818 72.7101 22.5255C72.9291 22.9809 72.9592 23.4711 72.8004 23.996L71.9745 26.2435C71.6616 26.9921 71.2333 27.8896 70.6897 28.936C70.1461 29.9823 69.832 30.8062 69.7473 31.4077C68.9568 33.8064 68.3563 36.095 67.9459 38.2736C68.173 38.2018 68.4002 38.13 68.6273 38.0581C68.8545 37.9863 69.0439 37.9139 69.1957 37.8409C69.5747 37.6961 69.8395 37.6248 69.9902 37.6272C70.2161 37.6307 70.518 37.5977 70.8958 37.5282C71.3501 37.3845 71.8049 37.2032 72.2604 36.9842C72.4887 36.8371 72.7911 36.7664 73.1678 36.7722C73.5444 36.7781 73.7309 36.894 73.7274 37.1199C73.7228 37.4212 73.3786 37.755 72.6948 38.1211L70.3011 39.4402C69.6962 39.5815 69.2054 39.6493 68.8288 39.6434C68.6782 39.6411 68.3004 39.7106 67.6954 39.8519L67.2033 42.4436L67.2901 44.1402C67.2112 44.365 66.8705 44.4727 66.2679 44.4634C65.7407 44.4552 65.6601 44.793 66.0262 45.4768C66.3217 45.8581 66.5059 46.1246 66.5789 46.2764C66.6531 46.3529 66.6102 46.6913 66.4502 47.2916C66.1349 48.1908 65.8526 49.3919 65.6033 50.8949C65.4294 52.399 65.2972 53.6401 65.2067 54.6182C65.2055 54.6935 65.1273 54.8807 64.972 55.1796C64.892 55.4798 64.8132 55.7046 64.7355 55.8541C64.7343 55.9294 64.7714 55.9676 64.8467 55.9688C64.9974 55.9711 65.0716 56.0476 65.0692 56.1983C65.1954 57.7824 65.1727 59.2512 65.001 60.6047L64.7348 63.1999C64.7337 63.2753 64.656 63.4247 64.5019 63.6484C64.3477 63.872 64.3072 64.0597 64.3802 64.2116C64.1414 65.0366 63.7183 65.5952 63.1111 65.8871C62.5027 66.2544 61.8971 66.4334 61.2946 66.4241C60.1647 66.4066 59.4144 66.2066 59.0436 65.8242L58.4856 65.3635L58.5241 62.8778C58.078 62.4942 57.6319 62.1106 57.1857 61.7269C56.7396 61.3433 56.2929 60.9974 55.8456 60.6891C55.0264 60.0737 54.206 59.5336 53.3844 59.0688C52.6393 58.5299 51.8572 57.9527 51.0379 57.3373C50.1445 56.6454 49.2517 55.9158 48.3595 55.1486C47.5425 54.3825 46.6497 53.653 45.681 52.9599C44.6381 52.1903 43.5564 51.4955 42.4359 50.8754C41.3165 50.18 40.196 49.56 39.0742 49.0152C38.7683 49.3118 38.1946 49.868 37.3532 50.6838C36.513 51.4242 35.7104 52.1652 34.9455 52.9068C34.1818 53.573 33.724 53.9427 33.5722 54.0157C33.4946 54.1652 33.3792 54.3141 33.2263 54.4624C33.1486 54.6119 33.0333 54.7608 32.8803 54.9091C32.7285 54.9821 32.5008 55.0916 32.1971 55.2375C31.9688 55.3847 31.8535 55.5336 31.8512 55.6842C31.6982 55.8326 31.4699 55.9797 31.1663 56.1257C30.9391 56.1975 30.7856 56.3835 30.7056 56.6836L30.8168 56.7984C30.5144 56.869 30.3626 56.942 30.3614 57.0174C30.4355 57.0938 30.4709 57.2451 30.4674 57.471C30.3909 57.5452 30.1249 57.6918 29.6695 57.9108C29.2894 58.1309 29.0234 58.2775 28.8716 58.3505C28.1878 58.7166 27.6936 59.0103 27.3888 59.2316C27.1593 59.4541 26.851 59.9014 26.4639 60.5735C26.2356 60.7206 25.7413 61.0143 24.9811 61.4546C24.2209 61.8949 23.8396 62.1904 23.8372 62.341C23.5348 62.4117 23.3441 62.5594 23.2653 62.7842C23.1865 63.0091 23.0706 63.1956 22.9176 63.3439C22.84 63.4934 22.6876 63.6041 22.4604 63.6759C22.2333 63.7477 22.0803 63.896 22.0015 64.1209L21.7738 64.2303L21.6608 64.2286C21.4348 64.2251 21.2071 64.3346 20.9776 64.5571C20.8235 64.7807 20.6699 64.9667 20.5169 65.115C19.6872 65.1775 19.0434 65.3936 18.5857 65.7632C18.202 66.2093 17.6689 66.5778 16.9864 66.8686C16.0766 67.2312 15.1293 67.5933 14.1442 67.9547C13.1592 68.3162 12.1382 68.5641 11.0813 68.6984C10.7777 68.8444 10.55 68.9539 10.3982 69.0269C10.3205 69.1764 10.0946 69.1729 9.72027 69.0164C9.87441 68.7928 9.8385 68.6792 9.61252 68.6757C9.30773 68.897 9.00468 69.0053 8.70339 69.0007ZM58.7728 61.4125L58.778 61.0735C58.7815 60.8475 58.898 60.6233 59.1275 60.4008C59.0545 60.249 58.9803 60.1725 58.905 60.1714C58.9062 60.096 58.9073 60.0207 58.9085 59.9454L61.4543 48.7964C61.7766 47.4453 62.1365 46.0947 62.5341 44.7447C63.0082 43.3205 63.4823 41.8963 63.9564 40.4722C63.8046 40.5452 63.6534 40.5805 63.5027 40.5782C63.1249 40.6477 62.823 40.6807 62.5971 40.6772C62.3711 40.6737 61.9933 40.7432 61.4637 40.8856C60.7081 41.0246 59.8384 41.2372 58.8545 41.5233C57.946 41.8107 56.9638 41.9838 55.9081 42.0428C55.1537 42.1065 54.5511 42.0972 54.1004 42.0149C53.7249 41.9337 53.16 41.925 52.4056 41.9886C52.0278 42.0581 51.4234 42.1618 50.5925 42.2996C49.7628 42.3621 49.122 42.3899 48.67 42.3829L45.1604 42.7806C45.1604 42.7806 45.1222 42.8177 45.0457 42.8919C45.0445 42.9672 45.0434 43.0425 45.0422 43.1178C44.8892 43.2661 44.5838 43.5251 44.1261 43.8948C43.7448 44.1902 43.5142 44.488 43.4342 44.7882L43.0935 44.8959C43.017 44.9701 42.8634 45.156 42.6328 45.4538C42.4786 45.6775 42.3627 45.864 42.2851 46.0135C41.9826 46.0842 41.7161 46.2684 41.4854 46.5662C41.2548 46.864 41.0618 47.1624 40.9065 47.4614C40.6052 47.4567 40.3781 47.5285 40.2251 47.6768C42.0177 48.684 43.622 49.6883 45.0381 50.6897C45.3359 50.9203 45.5583 51.1498 45.7055 51.3781C45.8526 51.6064 46.0751 51.8359 46.3729 52.0665C47.0438 52.5289 47.6783 52.9155 48.2762 53.2261C48.9506 53.4625 49.548 53.8108 50.0682 54.2709L56.88 59.575C57.1036 59.7291 57.4009 59.9974 57.7716 60.3799C58.1436 60.687 58.4773 61.0312 58.7728 61.4125ZM38.0958 46.5138C38.7078 45.9205 39.3197 45.3272 39.9316 44.734C40.5435 44.1407 41.1554 43.5474 41.7673 42.9541L32.6067 43.3775C31.551 43.4365 30.7972 43.4625 30.3452 43.4555C29.9686 43.4496 29.4025 43.5162 28.6469 43.6552C29.6226 43.8963 30.5601 44.1746 31.4594 44.4898C32.3597 44.7298 33.2596 45.0074 34.1588 45.3227C34.5331 45.4792 34.8697 45.6351 35.1687 45.7904C35.4676 45.9457 35.7666 46.101 36.0656 46.2563C36.2151 46.334 36.3663 46.2986 36.5193 46.1503C36.6734 45.9267 36.7876 45.8531 36.8617 45.9296L38.0958 46.5138ZM102.63 71.2452C102.102 71.2371 101.69 71.08 101.394 70.774C101.171 70.5446 100.832 70.577 100.375 70.8713C100.15 70.7925 99.8509 70.6748 99.4766 70.5183C99.1764 70.4384 98.9145 70.3213 98.6909 70.1671L96.6799 68.6668C96.1584 68.2821 95.5993 67.8967 95.0026 67.5108C94.48 67.2013 94.0327 66.893 93.6607 66.5859L93.3287 66.1287C91.7458 66.1795 90.0933 65.8526 88.3713 65.1479C86.7235 64.5196 85.045 63.4389 83.3359 61.9056C82.8851 61.8233 82.5126 61.5538 82.2183 61.0972C81.9251 60.5653 81.6302 60.1463 81.3336 59.8403C80.8075 59.7569 80.4715 59.5633 80.3255 59.2597C80.2548 58.9572 80.1476 58.5788 80.004 58.1246C79.9287 58.1234 79.8539 58.0846 79.7798 58.0081C79.7809 57.9328 79.7815 57.8951 79.7815 57.8951L79.2236 57.4344L79.2253 57.3214C78.9334 56.7142 78.7515 56.297 78.6796 56.0698C78.6078 55.8427 78.3117 55.4991 77.7915 55.039C77.6431 54.886 77.5337 54.6583 77.463 54.3558C77.3935 53.978 77.2846 53.7126 77.1363 53.5597C76.2627 51.5872 75.5021 49.6166 74.8545 47.6476C74.2069 45.6787 73.8994 43.6397 73.932 41.5306C73.9425 40.8527 74.1384 40.366 74.5197 40.0706C74.9021 39.6998 75.3193 39.5179 75.7713 39.5249C76.7505 39.54 77.3832 40.0395 77.6693 41.0234C77.8165 41.2517 77.9624 41.5553 78.1073 41.9343C78.2533 42.2379 78.3616 42.541 78.4322 42.8434L78.5295 43.862C78.5955 44.4658 78.8822 45.412 79.3897 46.7007C79.9725 47.9905 80.6306 49.2815 81.364 50.5737C82.1727 51.867 82.9485 52.8585 83.6912 53.5481L85.3476 56.06C85.7102 56.9697 86.2241 57.8441 86.8892 58.6832C87.5554 59.4469 88.1493 60.0212 88.6707 60.4059L92.3468 63.8532L93.3497 64.7729C95.3082 64.8032 97.2053 63.9284 99.041 62.1486C100.798 60.5936 102.335 58.6585 103.651 56.3432C104.968 54.028 106.136 51.5974 107.155 49.0516C108.249 46.5069 109.228 44.111 110.091 41.8641L110.552 41.3062C110.785 40.8578 110.944 40.2952 111.03 39.6184C111.116 38.9416 111.201 38.3402 111.284 37.8141C111.668 37.368 112.015 36.846 112.325 36.248C112.636 35.6501 112.758 35.0493 112.692 34.4455L112.812 33.9953C113.039 33.9235 113.041 33.8105 112.818 33.6563C112.594 33.5022 112.709 33.391 113.162 33.3226C113.625 32.5764 113.901 31.7895 113.989 30.9621C114.077 30.1347 114.237 29.5345 114.469 29.1614C114.7 28.8636 114.893 28.5652 115.048 28.2662C115.279 27.9684 115.322 27.5924 115.179 27.1381C115.259 26.838 115.495 26.1635 115.888 25.1148C116.281 24.0661 116.713 22.9427 117.183 21.7445C117.73 20.4721 118.162 19.3863 118.477 18.4871C118.869 17.5137 119.065 16.9893 119.066 16.914C119.146 16.6139 119.151 16.3126 119.08 16.0101C119.086 15.6335 119.13 15.2575 119.211 14.882L119.569 13.6444C117.911 13.6941 116.213 13.8562 114.476 14.1307C112.74 14.3298 111.079 14.5678 109.492 14.8446C108.661 14.9825 108.246 15.0137 108.248 14.9384C108.325 14.7889 108.441 14.64 108.594 14.4917C108.823 14.2692 108.749 14.1551 108.373 14.1492L108.034 14.144C107.507 14.1358 107.015 14.2412 106.56 14.4602C106.181 14.605 105.99 14.7528 105.988 14.9034C105.908 15.2036 105.339 15.4584 104.281 15.6681C103.298 15.8789 102.731 15.9832 102.581 15.9808C101.599 16.1163 100.693 16.253 99.8621 16.3908C99.0312 16.5286 98.2762 16.63 97.5971 16.6948C97.37 16.7666 97.1463 16.6125 96.9262 16.2324C96.7814 15.8534 96.7125 15.438 96.7194 14.986C96.7264 14.5341 96.8082 14.121 96.9647 13.7467C97.1976 13.2982 97.3906 12.9998 97.5436 12.8515C97.5447 12.7762 97.6206 12.7397 97.7713 12.742L97.8843 12.7438L100.827 12.4503C101.432 12.309 102.224 12.2459 103.203 12.261C104.258 12.2773 105.164 12.1407 105.922 11.851L110.445 11.695C111.35 11.6337 112.405 11.6123 113.61 11.631C114.817 11.5743 115.834 11.5524 116.663 11.5652C117.039 11.571 117.189 11.611 117.113 11.6852C117.036 11.7593 117.149 11.7987 117.45 11.8034C117.902 11.8104 118.204 11.7774 118.356 11.7044C118.508 11.6314 118.847 11.599 119.374 11.6071L120.391 11.6229L120.623 11.2874C121.008 10.6907 121.43 10.2451 121.886 9.95082C122.343 9.65651 122.985 9.55343 123.812 9.64158C124.641 9.6544 125.238 10.0027 125.604 10.6864C125.679 10.7629 125.677 10.8759 125.599 11.0254C125.598 11.1007 125.635 11.1766 125.709 11.2531C125.708 11.3284 125.779 11.5932 125.922 12.0475C126.073 12.0498 126.223 12.0898 126.373 12.1675C126.599 12.171 126.749 12.1733 126.825 12.1745C126.974 12.2521 127.011 12.328 126.934 12.4022C126.858 12.4764 126.856 12.5517 126.931 12.6282C127.155 12.707 127.306 12.7093 127.382 12.6352C127.535 12.4869 127.725 12.4144 127.951 12.4179C128.403 12.4249 128.703 12.5049 128.851 12.6579L130.202 13.0178C130.726 13.252 130.984 13.595 130.977 14.047C130.971 14.4236 130.706 14.5325 130.181 14.3737L129.282 14.0207L128.154 13.8903C127.854 13.8103 127.478 13.7668 127.026 13.7598C126.575 13.6775 126.124 13.6328 125.672 13.6258L125.081 15.3119C124.687 16.4359 124.367 17.6364 124.121 18.9135C123.95 20.1916 123.182 21.1592 121.816 21.8161C121.736 22.1163 121.462 22.7901 120.993 23.8377C120.602 24.8111 120.21 25.7844 119.818 26.7578C119.427 27.6559 119.156 28.1791 119.003 28.3274C118.772 28.6252 118.541 28.923 118.311 29.2208C118.157 29.4444 118.039 29.744 117.958 30.1194C117.871 30.8715 117.591 31.8843 117.12 33.1578C116.649 34.356 116.14 35.5913 115.593 36.8637C115.046 38.136 114.578 39.1459 114.19 39.8933C113.809 40.1888 113.466 40.4095 113.163 40.5555C112.934 40.7027 113.042 41.0434 113.486 41.5776C113.252 42.1014 113.022 42.3615 112.796 42.358C112.571 42.2792 112.271 42.1992 111.895 42.1181C112.041 42.4217 112.151 42.6494 112.224 42.8012C112.373 42.8789 112.483 43.1066 112.552 43.4844C112.005 44.7568 111.341 46.291 110.56 48.0871C109.854 49.8844 109.079 51.3039 108.234 52.3457C107.703 52.5635 107.285 52.783 106.98 53.0043C106.751 53.2268 106.782 53.6793 107.072 54.3619C106.764 54.8092 106.608 55.1835 106.603 55.4848L105.793 56.7154C105.488 56.9367 105.183 57.1957 104.877 57.4923C104.647 57.7148 104.529 58.052 104.522 58.504L103.828 59.5104C103.449 59.6552 103.108 59.8382 102.803 60.0595C102.498 60.2809 102.342 60.6552 102.333 61.1824C100.034 63.7085 97.5232 65.2895 94.8011 65.9254L95.6945 66.6174C95.8451 66.6197 96.1441 66.775 96.5914 67.0833C97.114 67.3927 97.4118 67.6234 97.4848 67.7752C98.3782 68.4671 99.0868 68.9301 99.6105 69.1642C100.21 69.3995 100.773 69.5213 101.3 69.5294C101.903 69.5388 102.771 69.4392 103.904 69.2307L104.469 69.2394C104.996 69.2476 105.258 69.3647 105.255 69.5906C105.326 69.8178 105.209 70.0797 104.903 70.3763C104.827 70.4504 104.675 70.5611 104.446 70.7083C104.292 70.9319 104.177 71.0431 104.102 71.042C103.876 71.0385 103.649 71.0726 103.422 71.1445C103.195 71.2163 102.931 71.2499 102.63 71.2452ZM90.6468 64.166L90.3113 63.9347C90.0923 63.4793 89.6468 63.058 88.9747 62.6709C88.378 62.285 87.82 61.8243 87.3009 61.2888C86.7818 60.7534 86.3003 60.2186 85.8566 59.6843C85.4893 59.0759 85.1202 58.5804 84.7494 58.198C84.6023 57.9697 84.3068 57.5884 83.863 57.0541C83.4957 56.4457 83.0902 55.8744 82.6464 55.3401C82.3498 55.0342 82.1667 54.6923 82.0972 54.3145C82.103 53.9379 82.0312 53.7107 81.8817 53.6331C81.5862 53.2518 81.2902 52.9082 80.9936 52.6022C80.6981 52.2209 80.4038 51.7643 80.1106 51.2324C79.8187 50.6251 79.4902 49.942 79.1252 49.1829C78.7603 48.4238 78.2817 47.7007 77.6896 47.0134L75.6943 44.4963C76.6871 48.5048 78.2141 52.0695 80.2754 55.1904C82.3367 58.3114 84.5232 60.6431 86.835 62.1857C87.5059 62.6482 88.1397 63.0724 88.7365 63.4583C89.4098 63.7701 90.0465 64.006 90.6468 64.166ZM155.656 73.5349C154.827 73.5221 154.191 73.2862 153.746 72.8273C153.005 71.9871 152.641 71.1903 152.652 70.4371C152.658 70.0605 152.778 69.6479 153.011 69.1995C153.167 68.8252 153.439 68.302 153.826 67.6299C154.288 66.959 154.674 66.3622 154.984 65.8396C155.216 65.4665 155.483 65.2069 155.787 65.0609C156.091 64.915 156.32 64.7301 156.474 64.5065C156.55 64.4323 156.858 63.9851 157.399 63.1646C157.94 62.2689 158.52 61.2608 159.141 60.1402C159.837 58.9455 160.457 57.8627 160.999 56.8916C161.541 55.9205 161.89 55.3232 162.044 55.0996C162.498 54.9559 162.766 54.6963 162.847 54.3209C163.004 53.9466 163.122 53.6094 163.202 53.3093C163.359 52.8596 163.744 52.3382 164.356 51.7449C164.968 51.1517 165.393 50.4425 165.632 49.6174C165.412 49.2373 165.414 49.0866 165.639 49.1655C165.939 49.2455 166.053 49.1719 165.982 48.9447L166.215 48.4963C166.748 48.1278 167.132 47.644 167.367 47.045C167.678 46.447 167.875 45.885 167.958 45.3589C168.342 44.9128 168.763 44.4672 169.222 44.0223C169.681 43.5773 170.028 43.093 170.262 42.5692C170.339 42.4197 170.341 42.3067 170.267 42.2302C170.269 42.0796 170.309 41.9672 170.385 41.893L170.387 41.78C171.701 39.6155 173.018 37.3002 174.337 34.8343C175.731 32.3696 176.9 29.8637 177.844 27.3167C178.788 24.6943 179.279 22.2156 179.315 19.8806C179.348 17.7715 178.848 15.9932 177.815 14.5457C177.589 14.5422 177.363 14.5387 177.137 14.5352C176.913 14.4564 176.725 14.4158 176.574 14.4135C176.274 14.3335 175.71 14.2494 174.883 14.1613C174.131 14.0743 173.379 13.9497 172.628 13.7874C171.953 13.6262 171.577 13.5451 171.502 13.5439C171.202 13.4639 170.863 13.421 170.487 13.4152C170.111 13.334 169.698 13.29 169.246 13.283C168.718 13.2748 168.153 13.3037 167.549 13.3697C167.021 13.4369 166.529 13.5423 166.075 13.686L163.019 13.9777C162.794 13.8989 162.381 13.8548 161.778 13.8455C160.196 13.821 158.384 14.0567 156.343 14.5525C154.302 14.973 152.938 15.4416 152.252 15.9584L151.453 16.5111C151.224 16.6582 150.921 16.7665 150.544 16.836C150.166 16.9055 149.825 17.0133 149.521 17.1593C148.764 17.4489 148.087 17.3631 147.491 16.9018C146.971 16.4417 146.715 15.9104 146.725 15.3078C146.734 14.7052 147.043 14.1826 147.653 13.7399C149.33 12.4851 151.116 11.4956 153.011 10.7715C154.907 9.97205 156.876 9.32444 158.917 8.82864C159.069 8.75564 159.259 8.68323 159.486 8.61141C159.788 8.54074 160.053 8.50716 160.279 8.51066C161.107 8.52348 161.634 8.53164 161.86 8.53514C162.087 8.46331 162.541 8.35732 163.221 8.21715L163.336 8.10592C163.637 8.11058 163.863 8.15174 164.012 8.22939L164.351 8.23464C164.73 8.08982 165.072 7.94442 165.375 7.79843C165.754 7.65361 166.129 7.77242 166.5 8.15487L168.083 8.06636C168.611 8.07452 169.023 8.19392 169.321 8.42455C173.679 9.17007 176.854 10.9144 178.846 13.6576C179.147 13.6622 179.374 13.6281 179.526 13.5551C180.052 13.6385 180.614 13.7979 181.214 14.0332C181.813 14.2685 182.374 14.5032 182.898 14.7374C183.424 14.8209 183.875 14.9032 184.25 14.9843C184.626 15.0655 185.001 15.1843 185.375 15.3408L186.944 16.1562C187.088 16.6104 187.272 16.877 187.497 16.9558C187.722 17.0346 188.02 17.2276 188.392 17.5347C188.691 17.69 188.876 17.9189 188.947 18.2214C189.094 18.4497 189.24 18.7157 189.386 19.0193C189.461 19.0958 189.495 19.2847 189.491 19.586C189.487 19.8119 189.485 19.9626 189.484 20.0379C189.324 20.6382 189.131 20.9366 188.905 20.9331C188.528 20.9272 188.194 20.6207 187.902 20.0134C187.167 18.7966 186.578 17.921 186.134 17.3868C185.69 16.8525 184.568 16.3454 182.767 15.8655C182.692 15.8643 182.354 15.7838 181.754 15.6238C181.154 15.4638 180.817 15.3456 180.742 15.2691C180.516 15.2656 180.179 15.185 179.729 15.0274C180.604 16.9245 181.024 19.0029 180.989 21.2626C180.983 21.6392 180.939 22.0529 180.856 22.5037C180.849 22.9557 180.805 23.407 180.723 23.8578C180.266 24.1521 180.035 24.4876 180.029 24.8642C180.027 25.0148 180.024 25.2032 180.02 25.4291C180.093 25.5809 180.166 25.7704 180.237 25.9976C180.234 26.2235 180.193 26.4489 180.114 26.6737C180.112 26.8244 180.071 27.0121 179.992 27.2369C179.687 27.4582 179.494 27.7566 179.413 28.1321C179.332 28.5075 179.326 28.8841 179.396 29.2619L178.923 30.6108C178.54 30.9816 178.309 31.3547 178.227 31.7302C177.546 31.9456 177.202 32.2417 177.197 32.6183C177.191 32.9949 177.297 33.411 177.516 33.8664C177.195 35.1423 176.532 36.6388 175.526 38.3561C174.595 40.0746 173.818 41.5694 173.196 42.8406C172.893 42.9113 172.667 42.9455 172.516 42.9431C172.366 42.9408 172.101 43.012 171.722 43.1569C171.944 43.3863 172.167 43.5781 172.391 43.7323C172.615 43.8864 172.572 44.2248 172.262 44.7474L172.036 44.7439C171.509 44.7358 171.242 44.92 171.237 45.2966C171.307 45.5991 171.34 45.9386 171.334 46.3152C171.021 47.0638 170.553 48.0737 169.931 49.3449C169.31 50.5408 168.651 51.6984 167.956 52.8178C167.26 53.9371 166.644 54.794 166.108 55.3885C165.802 55.6851 165.609 55.9835 165.529 56.2836C165.524 56.5849 165.481 56.9233 165.4 57.2987C165.398 57.4494 165.126 57.9726 164.585 58.8683C164.119 59.7652 163.615 60.6992 163.072 61.6703C162.53 62.6413 162.143 63.2757 161.913 63.5735C161.983 63.876 162.015 64.2532 162.008 64.7052C161.991 65.835 161.599 66.8084 160.833 67.6253C160.141 68.5187 159.525 69.3756 158.985 70.196C158.754 70.4938 158.447 70.9035 158.062 71.4249C157.752 71.9475 157.406 72.3942 157.024 72.765L156.113 73.203C156.038 73.2018 155.962 73.2383 155.885 73.3124C155.884 73.3878 155.808 73.4619 155.656 73.5349ZM151.161 13.4552L152.63 13.4779C152.931 13.4826 153.195 13.4866 153.421 13.4901C153.647 13.4936 153.911 13.4601 154.213 13.3894C155.044 13.2516 155.875 13.1137 156.706 12.9759C157.613 12.7639 158.407 12.6255 159.086 12.5607C159.313 12.4889 159.539 12.4547 159.765 12.4582C159.991 12.4617 160.18 12.4646 160.33 12.4669C160.632 12.4716 160.895 12.4757 161.121 12.4792C161.423 12.4838 161.723 12.5262 162.023 12.6061C162.174 12.6085 162.401 12.5366 162.705 12.3907C163.085 12.1705 163.463 12.0634 163.84 12.0692C164.518 12.0797 165.196 12.0525 165.875 11.9877C166.554 11.9228 167.045 11.8927 167.346 11.8974L171.413 11.9604C172.167 11.972 172.88 12.1337 173.553 12.4455C174.228 12.682 174.829 12.7666 175.358 12.6995C175.508 12.7018 175.658 12.7418 175.808 12.8194C174.764 12.1252 173.454 11.5399 171.879 11.0635C169.93 10.4306 167.901 10.0978 165.792 10.0652C161.122 9.99289 156.245 11.1229 151.161 13.4552ZM196.777 67.2774C196.174 67.2681 195.762 67.111 195.541 66.8062C195.394 66.5779 195.324 66.2378 195.331 65.7859C195.334 65.5599 195.338 65.2962 195.343 64.9949C195.424 64.6195 195.467 64.2811 195.471 63.9798C195.48 63.4525 195.413 62.8864 195.272 62.2815C195.13 61.6766 194.763 61.1058 194.168 60.5692C193.877 59.8867 193.394 59.5025 192.717 59.4166C192.422 58.96 192.125 58.7294 191.823 58.7247L191.71 58.723C191.56 58.7207 191.411 58.5677 191.265 58.2641C191.121 57.8851 190.898 57.6933 190.596 57.6886C190.443 57.837 190.441 57.9876 190.589 58.1406C190.44 58.0629 190.29 57.9853 190.141 57.9076C189.991 57.83 189.803 57.827 189.576 57.8989C189.277 57.7436 189.127 57.6659 189.127 57.6659L189.014 57.6642C188.719 57.2829 188.308 57.0505 187.782 56.967C187.332 56.8094 186.918 56.803 186.539 56.9478L185.189 56.5878C184.666 56.2784 184.179 56.0825 183.729 56.0002C183.503 55.9967 183.35 56.1073 183.271 56.3321C183.194 56.4816 182.968 56.4781 182.593 56.3216C182.07 56.0875 181.618 56.0429 181.239 56.1877C180.486 56.176 179.733 56.1644 178.98 56.1527C178.303 56.0669 177.587 56.0558 176.833 56.1195L175.814 56.2167L174.909 56.3157C174.606 56.3864 174.304 56.4194 174.003 56.4147C173.702 56.4101 173.4 56.4054 173.099 56.4008C172.346 56.3891 171.894 56.3444 171.745 56.2668C171.221 56.0327 170.663 55.6096 170.069 54.9977C169.477 54.3105 169.185 53.7032 169.194 53.1759C169.199 52.7993 169.244 52.348 169.327 51.8219C169.411 51.2957 169.681 50.8855 170.138 50.5912C171.739 49.3352 173.482 48.7218 175.365 48.7509C177.097 48.7777 178.376 48.9105 179.201 49.1493C180.026 49.3881 180.774 49.7387 181.445 50.2011C182.192 50.5894 183.203 51.0194 184.476 51.4912C185.751 51.8876 187.029 52.0958 188.309 52.1156C189.213 52.1296 190.118 52.1059 191.023 52.0446C192.004 51.9091 192.91 51.8101 193.74 51.7476C194.193 51.6792 194.683 51.6491 195.21 51.6573C195.739 51.5901 196.229 51.5224 196.682 51.4541L197.021 51.4593C197.247 51.4628 197.435 51.5034 197.585 51.581C197.809 51.6598 198.073 51.6639 198.375 51.5933C198.526 51.5956 198.791 51.5244 199.17 51.3795C199.55 51.1594 199.815 51.0505 199.966 51.0528C200.117 51.0551 200.23 51.0569 200.305 51.0581C200.457 50.9851 200.608 50.9497 200.759 50.9521L201.23 49.7162C201.388 49.2666 201.545 48.817 201.703 48.3674C201.862 47.8424 201.945 47.3163 201.953 46.789L201.955 46.6761C202.031 46.6019 202.111 46.3018 202.195 45.7757C202.355 45.1754 202.435 44.8753 202.435 44.8753L203.612 41.8421L203.963 41.0565L204.09 40.1543C204.245 39.8553 204.324 39.6305 204.327 39.4799C204.723 38.2052 205.232 36.9699 205.853 35.7741C206.55 34.5794 207.059 33.3441 207.38 32.0682L207.62 31.1678L207.969 30.4952L207.971 30.3822C208.124 30.2339 208.163 30.1215 208.089 30.045C208.091 29.8943 208.093 29.7813 208.094 29.706C208.019 29.7049 207.944 29.666 207.87 29.5895C207.871 29.5142 207.872 29.4765 207.872 29.4765C208.481 29.0339 208.979 28.5519 209.363 28.0305C209.749 27.4337 209.835 26.7569 209.621 26.0002L209.623 25.8872L210.214 24.2011L210.454 23.3008C210.608 23.0771 210.836 22.93 211.139 22.8593C211.518 22.7145 211.634 22.4903 211.488 22.1866C210.889 21.9513 210.782 21.5353 211.168 20.9385C211.245 20.8644 211.358 20.8285 211.509 20.8308C211.81 20.8354 212.188 20.8036 212.641 20.7353C213.094 20.667 213.473 20.4845 213.779 20.1878L213.784 19.8489C213.564 19.4688 213.191 19.2746 212.663 19.2665C212.213 19.1841 211.991 18.917 211.998 18.4651L212.229 18.1296L212.471 17.1162C212.714 15.9899 213.518 15.1359 214.884 14.5542C216.25 13.8973 217.498 13.5776 218.628 13.5951C219.23 13.6044 219.718 13.725 220.091 13.9568C220.465 14.1886 220.534 14.5663 220.3 15.0901L218.309 19.5799C218.08 19.8023 217.887 20.1007 217.73 20.475C217.575 20.774 217.382 21.0724 217.151 21.3702C217.074 21.5196 216.921 21.6303 216.694 21.7021C216.544 21.6998 216.429 21.7734 216.352 21.9228C216.273 22.1477 216.309 22.2612 216.459 22.2636C216.611 22.1906 216.648 22.2665 216.569 22.4913C216.41 23.0162 216.099 23.6518 215.635 24.3981C215.248 25.0701 214.901 25.6298 214.592 26.0771C214.517 26.076 214.441 26.1125 214.365 26.1866C214.063 26.1819 213.915 25.9913 213.921 25.6147C213.927 25.2381 213.818 25.0103 213.593 24.9315C213.592 25.0068 213.553 25.0816 213.476 25.1557C213.475 25.2311 213.473 25.3441 213.471 25.4947C213.466 25.796 213.499 26.0979 213.57 26.4003C213.716 26.704 213.749 27.0435 213.667 27.419C213.516 27.492 213.437 27.7168 213.431 28.0934C213.427 28.3194 213.312 28.4683 213.085 28.5401C212.859 28.5366 212.706 28.6849 212.626 28.985L210.425 32.4544L209.959 33.3513C209.804 33.6503 209.611 33.9487 209.38 34.2465C209.15 34.5443 208.918 34.8797 208.687 35.2528C208.455 35.626 208.338 35.8502 208.337 35.9255C208.337 35.9255 208.221 36.1121 207.989 36.4852C207.912 36.6347 207.833 36.8595 207.753 37.1596C207.673 37.4598 207.556 37.7216 207.402 37.9453C207.402 37.9453 207.252 37.9053 206.952 37.8253C206.651 37.7453 206.501 37.743 206.5 37.8183C206.345 38.042 206.266 38.3044 206.261 38.6057C206.259 38.7564 206.256 38.9447 206.253 39.1707C206.326 39.3225 206.397 39.5873 206.466 39.9651C206.462 40.2664 206.421 40.4541 206.345 40.5282C206.189 40.8272 206.111 41.052 206.108 41.2027C206.106 41.3533 205.913 41.6517 205.529 42.0978C205.147 42.4686 204.954 42.7293 204.952 42.88C204.714 43.6297 204.593 44.1552 204.589 44.4565C204.585 44.6825 204.427 45.1698 204.114 45.9184L203.526 47.3785C203.526 47.3785 203.524 47.5291 203.519 47.8304C203.515 48.1317 203.475 48.2818 203.399 48.2806C203.245 48.5042 203.052 48.8403 202.819 49.2887C202.662 49.663 202.505 50.075 202.347 50.5246C202.802 50.3809 203.218 50.2744 203.596 50.2049C203.975 50.06 204.239 49.9888 204.39 49.9911C204.843 49.9228 205.22 49.9286 205.52 50.0086C205.896 50.0144 206.235 50.0197 206.537 50.0244C206.763 50.0278 206.952 49.9554 207.105 49.8071C207.333 49.66 207.485 49.587 207.561 49.5881C207.788 49.5163 207.975 49.5569 208.124 49.7099C208.273 49.7875 208.348 49.8264 208.348 49.8264C208.348 49.8264 208.346 49.9393 208.343 50.1653C208.34 50.316 208.263 50.4654 208.11 50.6138C208.033 50.6879 207.883 50.6856 207.658 50.6068C207.433 50.5279 207.245 50.525 207.093 50.598C206.564 50.6652 205.885 50.7677 205.054 50.9055C204.223 51.0433 203.392 51.1812 202.561 51.319C202.335 51.3155 202.146 51.3502 201.995 51.4232C201.758 52.0977 201.636 52.6985 201.628 53.2258L201.273 54.2374C201.194 54.4622 201.115 54.7247 201.035 55.0248C200.956 55.2496 200.878 55.4368 200.8 55.5863L200.678 56.1494L200.564 56.2607C200.484 56.5608 200.48 56.7868 200.553 56.9386C200.626 57.0904 200.622 57.354 200.541 57.7295L200.52 59.0853C201.108 59.9986 201.398 60.7565 201.389 61.3591C201.379 61.9617 201.221 62.4866 200.912 62.9339C200.604 63.3812 200.406 63.9808 200.319 64.7329C200.236 65.259 199.888 65.8187 199.276 66.412C198.74 67.0064 197.906 67.2949 196.777 67.2774ZM197.443 60.7329C197.594 60.7353 197.747 60.5493 197.904 60.175C198.135 59.8019 198.41 59.128 198.726 58.1535L198.853 57.2513C198.931 57.1018 199.01 56.8394 199.091 56.4639C199.249 56.0143 199.366 55.7524 199.442 55.6783L199.444 55.5653C199.828 55.1192 200.06 54.7084 200.141 54.3329C200.224 53.8821 200.269 53.3931 200.277 52.8658L200.284 52.4139L200.522 51.6265C200.144 51.696 199.615 51.8385 198.933 52.054C198.252 52.2694 197.496 52.4084 196.667 52.4709C195.309 52.6006 193.836 52.8038 192.25 53.0807C190.739 53.3586 189.38 53.526 188.173 53.5827C187.948 53.5792 187.683 53.6127 187.381 53.6834C187.08 53.6787 186.854 53.6376 186.705 53.5599C186.481 53.4058 186.37 53.2534 186.373 53.1027C186.302 52.8003 186.115 52.6844 185.813 52.755C185.586 52.8269 185.472 52.8628 185.472 52.8628C185.397 52.8616 185.283 52.9352 185.13 53.0835C185.053 53.1577 184.94 53.1936 184.789 53.1912C184.488 53.1866 184.224 53.2202 183.996 53.292C183.845 53.365 183.618 53.3992 183.317 53.3945C183.017 53.3145 182.717 53.2345 182.416 53.1545C182.116 53.0745 181.853 53.0328 181.627 53.0293C181.325 53.1 180.985 53.17 180.607 53.2395C180.306 53.2349 179.966 53.2673 179.588 53.3368C179.513 53.3356 179.438 53.3345 179.362 53.3333C179.363 53.258 179.326 53.2197 179.251 53.2186C178.874 53.2127 178.683 53.3981 178.677 53.7748C178.669 54.302 179.006 54.4579 179.687 54.2424L182.394 54.6234L183.185 54.6356L183.296 54.7503C183.445 54.828 183.595 54.9056 183.744 54.9833C183.969 55.0621 184.194 55.1409 184.419 55.2198C185.018 55.4551 185.806 55.6179 186.784 55.7084C187.838 55.8001 188.626 55.9629 189.15 56.1971L190.384 56.7812C190.684 56.8612 190.91 56.9024 191.06 56.9047C191.211 56.9071 191.436 56.9482 191.737 57.0282L192.291 57.7149C192.591 57.7948 192.779 57.7978 192.856 57.7236C192.932 57.6494 193.083 57.6894 193.306 57.8436L194.426 58.539C194.646 58.9191 194.943 59.1874 195.317 59.3439C195.691 59.5004 195.916 59.5792 195.992 59.5803C196.366 59.7368 196.626 59.9669 196.772 60.2705C196.993 60.5753 197.217 60.7294 197.443 60.7329ZM216.951 67.8156C215.294 67.79 213.832 67.3153 212.565 66.3916C211.375 65.3937 210.798 63.7273 210.835 61.3922C210.847 60.5636 211.016 59.3984 211.341 57.8966C211.665 56.3948 212.179 54.8206 212.883 53.1739C213.274 52.2759 213.701 51.416 214.166 50.5945C214.706 49.7741 215.208 48.9907 215.672 48.2445C215.748 48.1703 215.973 48.2491 216.346 48.4809C216.794 48.7139 217.057 48.7933 217.133 48.7191C217.211 48.5697 217.1 48.4173 216.801 48.262C216.579 48.0325 216.506 47.8807 216.582 47.8065C216.735 47.6582 216.85 47.5846 216.925 47.5858C217.077 47.5128 217.191 47.4016 217.269 47.2521C217.347 47.1026 217.387 46.9525 217.389 46.8019C217.393 46.5759 217.283 46.3858 217.059 46.2317C216.911 46.0787 216.989 45.8539 217.295 45.5573C217.68 45.0358 218.102 44.5526 218.561 44.1077C219.096 43.5886 219.555 43.1436 219.938 42.7728C220.091 42.6245 220.283 42.4015 220.513 42.1036C220.745 41.7305 220.899 41.5069 220.976 41.4327L221.205 41.2102C221.282 41.1361 221.358 41.0619 221.435 40.9878C221.436 40.9124 221.436 40.8748 221.436 40.8748C221.512 40.876 221.55 40.8389 221.551 40.7635C221.555 40.5376 221.332 40.3081 220.884 40.0751C220.435 39.8422 220.212 39.688 220.213 39.6127C220.214 39.5374 220.177 39.4615 220.103 39.385C220.029 39.3085 219.955 39.1943 219.882 39.0425C219.958 39.0437 220.034 38.9695 220.112 38.82C220.266 38.5964 220.381 38.4852 220.456 38.4863C220.531 38.4875 220.681 38.5652 220.905 38.7193C221.129 38.7981 221.279 38.8381 221.355 38.8393C221.43 38.8404 221.468 38.8034 221.47 38.728C221.546 38.6539 221.622 38.6174 221.697 38.6186C221.848 38.6209 222.185 38.7391 222.709 38.9732C223.234 39.1321 223.534 39.212 223.609 39.2132C223.685 39.2144 223.913 39.0296 224.296 38.6588C224.678 38.288 224.908 38.0655 224.984 37.9913C225.137 37.843 225.253 37.6941 225.33 37.5446C225.409 37.3198 225.601 37.0591 225.907 36.7625L226.02 36.7642C226.097 36.6901 226.136 36.6153 226.137 36.54C226.138 36.4647 226.139 36.427 226.139 36.427C226.292 36.2787 226.406 36.1675 226.483 36.0933C226.636 35.945 226.751 35.8337 226.827 35.7596C226.904 35.6854 226.942 35.6483 226.942 35.6483C227.017 35.6495 227.055 35.6501 227.055 35.6501C227.132 35.5006 227.21 35.3888 227.286 35.3146C227.438 35.2416 227.552 35.1681 227.628 35.0939L227.861 34.6455C228.014 34.4971 228.547 34.1663 229.459 33.653C230.371 33.1398 231.053 32.8866 231.505 32.8936L232.07 32.9024C232.07 32.9024 232.069 32.94 232.068 33.0153C232.068 33.0153 232.106 33.0159 232.181 33.0171C232.256 33.0183 232.332 33.0194 232.407 33.0206C232.484 32.9464 232.56 32.9099 232.635 32.9111C232.635 32.9111 232.746 33.0258 232.969 33.2553C233.043 33.3318 233.117 33.3706 233.193 33.3718C233.269 33.2976 233.345 33.2611 233.421 33.2623C233.495 33.3388 233.531 33.4147 233.53 33.49C233.529 33.5653 233.566 33.6036 233.641 33.6048C233.792 33.6071 233.83 33.6077 233.754 33.6065C233.755 33.5312 233.794 33.4941 233.869 33.4953C233.944 33.4964 233.981 33.5723 233.978 33.723C233.976 33.8736 234.011 34.0249 234.084 34.1767C234.006 34.4015 233.926 34.664 233.846 34.9641C233.843 35.1901 233.802 35.3778 233.725 35.5273C233.033 36.4207 232.498 36.8645 232.122 36.8586C232.121 36.934 232.005 37.0829 231.776 37.3053C231.55 37.3018 231.285 37.3731 230.981 37.5191C230.678 37.6651 230.374 37.811 230.07 37.957L230.065 38.296C230.061 38.5973 229.945 38.7462 229.719 38.7427C229.57 38.665 229.417 38.7757 229.262 39.0747L229.26 39.1876C229.407 39.4159 229.669 39.533 230.046 39.5388L230.835 39.6641C230.986 39.6664 231.062 39.6299 231.063 39.5546C231.139 39.4804 231.215 39.4439 231.291 39.4451C231.366 39.4462 231.403 39.4845 231.402 39.5598C231.402 39.5598 231.439 39.5604 231.515 39.5616C231.665 39.5639 231.779 39.528 231.856 39.4538C231.932 39.3797 232.008 39.3432 232.083 39.3443L233.098 39.4731C232.878 39.0929 232.77 38.7899 232.773 38.5639C232.779 38.1873 233.122 37.9666 233.801 37.9017C234.855 37.9181 235.753 38.3087 236.495 39.0736C236.647 39.0006 236.835 39.0035 237.06 39.0823C237.285 39.1611 237.511 39.1646 237.738 39.0928L238.308 38.7626L238.419 38.8773C238.723 38.7313 238.912 38.6589 238.988 38.6601C239.138 38.6624 239.175 38.7007 239.099 38.7748C239.099 38.7748 239.137 38.7754 239.212 38.7766C239.212 38.7766 239.288 38.7024 239.441 38.5541C239.517 38.5553 239.591 38.5941 239.666 38.6706C239.816 38.6729 239.93 38.637 240.006 38.5628L240.35 38.2291L241.706 38.2501L241.821 38.1389C241.973 38.0659 242.162 37.9935 242.389 37.9216C242.693 37.7756 242.958 37.7044 243.184 37.7079C243.185 37.6326 243.261 37.5961 243.412 37.5984C243.563 37.5254 243.677 37.4895 243.752 37.4907L243.978 37.4942C244.355 37.5 244.541 37.6159 244.538 37.8419C244.534 38.0678 244.419 38.2544 244.19 38.4015C244.114 38.4757 244 38.5116 243.85 38.5093C243.7 38.4316 243.549 38.4293 243.398 38.5023C243.092 38.7989 242.863 38.9461 242.713 38.9438C242.637 38.9426 242.6 38.942 242.6 38.942C242.601 38.8667 242.564 38.8284 242.488 38.8273C242.413 38.8261 242.261 38.9368 242.031 39.1592L241.239 39.26L241.126 39.2582C240.975 39.2559 240.899 39.3301 240.896 39.4807C240.595 39.476 240.293 39.509 239.991 39.5797C239.689 39.575 239.387 39.608 239.085 39.6787L238.97 39.7899C238.895 39.7888 238.819 39.8253 238.742 39.8994C238.667 39.8983 238.554 39.8965 238.403 39.8942C238.252 39.9672 237.837 39.9984 237.159 39.9879C237.602 40.5975 237.894 41.1671 238.037 41.6967C238.181 42.0757 238.285 42.68 238.348 43.5098C238.487 44.2653 238.515 44.8308 238.434 45.2063C238.431 45.4323 238.354 45.5064 238.205 45.4288C238.057 45.2758 237.981 45.2746 237.979 45.4253C237.975 45.6513 238.048 45.8031 238.198 45.8807C238.424 45.8842 238.534 46.0743 238.528 46.4509C238.525 46.6769 238.482 46.9776 238.401 47.353C238.321 47.6532 238.241 47.991 238.159 48.3664C238.077 48.8172 237.957 49.3051 237.798 49.83C237.715 50.2808 237.52 50.7298 237.212 51.1771L236.864 51.7368L236.854 52.4147C236.844 53.0173 236.65 53.4287 236.269 53.6488C235.965 53.8701 235.735 54.1303 235.579 54.4292C235.422 54.8788 235.304 55.1784 235.226 55.3279C235.224 55.4785 235.069 55.7775 234.76 56.2248C233.758 57.7161 232.568 59.1292 231.191 60.4641C229.815 61.7989 228.477 63.0214 227.179 64.1314C226.034 65.0932 224.476 65.9732 222.505 66.7714C220.61 67.4955 218.759 67.8436 216.951 67.8156ZM218.112 65.7993C218.338 65.8028 218.791 65.7722 219.47 65.7073C220.15 65.5672 220.871 65.2393 221.632 64.7237C221.784 64.6507 221.934 64.6907 222.083 64.8437C222.231 64.9966 222.381 65.0366 222.533 64.9636C222.912 64.8188 223.064 64.7082 222.99 64.6317C222.916 64.5552 223.03 64.4816 223.332 64.4109L223.445 64.4127C223.897 64.4197 224.086 64.3849 224.012 64.3084C224.014 64.1578 224.055 63.9701 224.134 63.7453C224.137 63.5193 224.253 63.3327 224.481 63.1856C224.71 63.0384 224.9 62.9283 225.052 62.8554C225.891 62.1903 226.925 61.0761 228.155 59.513C229.386 57.8745 230.616 56.236 231.847 54.5975C231.925 54.448 232.038 54.4121 232.188 54.4898C232.337 54.5674 232.45 54.5692 232.527 54.495C232.603 54.4209 232.645 54.1955 232.65 53.8188C232.654 53.5929 232.772 53.2557 233.005 52.8072C233.239 52.2834 233.472 51.8726 233.702 51.5748C233.781 51.35 233.938 50.9381 234.173 50.339C234.41 49.6646 234.607 49.0649 234.766 48.5399C235.002 47.9409 235.044 47.6401 234.893 47.6378C234.744 47.5602 234.67 47.4837 234.671 47.4083C234.673 47.2577 234.901 47.1105 235.356 46.9669C235.81 46.8232 235.774 46.7097 235.248 46.6262C235.098 46.5485 235.138 46.3985 235.368 46.176C235.597 45.9535 235.487 45.8011 235.036 45.7188C234.661 45.6376 234.512 45.5223 234.589 45.3728C234.742 45.2245 234.857 45.1133 234.933 45.0391C235.163 44.8166 235.279 44.5924 235.283 44.3664C235.293 43.6885 235.116 43.0077 234.749 42.3239C234.459 41.6414 234.129 41.0335 233.761 40.5004C233.304 40.7947 233.076 40.9419 233.076 40.9419C233 40.9407 232.963 40.9401 232.963 40.9401C232.964 40.8648 232.889 40.826 232.738 40.8236C232.663 40.8225 232.625 40.8219 232.625 40.8219C232.627 40.7466 232.59 40.7083 232.514 40.7072C232.439 40.706 232.363 40.7425 232.286 40.8167C232.21 40.8908 232.172 40.9279 232.172 40.9279C232.095 41.0021 231.944 41.0374 231.718 41.0339C231.567 41.0316 231.454 41.0298 231.379 41.0286C231.304 41.0275 231.229 40.9886 231.155 40.9122C231.156 40.8368 231.119 40.7986 231.044 40.7974C230.968 40.7963 230.854 40.8698 230.701 41.0182C230.624 41.1676 230.509 41.2412 230.359 41.2389C230.283 41.2377 230.246 41.1995 230.247 41.1241C230.249 41.0488 230.174 41.01 230.023 41.0077C229.948 41.0065 229.872 41.043 229.796 41.1172C229.794 41.1925 229.756 41.2296 229.681 41.2284C229.605 41.2272 229.457 41.1119 229.234 40.8824L229.121 40.8807C229.114 41.3326 228.998 41.5569 228.772 41.5534C228.696 41.5522 228.585 41.4751 228.436 41.3221C227.599 41.8366 226.187 43.0579 224.198 44.986C222.21 46.8388 220.444 48.9964 218.899 51.4588C218.589 52.0567 218.201 52.7665 217.736 53.5881C217.347 54.4108 216.993 55.3471 216.676 56.397C216.593 56.8478 216.362 57.1832 215.982 57.4034C215.677 57.6247 215.447 57.8848 215.292 58.1838C215.212 58.4839 215.247 58.6728 215.396 58.7505C215.545 58.8281 215.657 58.9429 215.73 59.0947C215.725 59.396 215.643 59.8091 215.485 60.334C215.401 60.8601 215.356 61.3492 215.349 61.8011C215.327 63.2323 215.575 64.2532 216.092 64.864C216.686 65.4759 217.359 65.7877 218.112 65.7993ZM251.685 67.788C251.61 67.7869 251.498 67.7098 251.35 67.5568C251.2 67.4792 251.088 67.4397 251.013 67.4386C250.71 67.5092 250.446 67.5428 250.22 67.5393C249.994 67.5358 249.768 67.5323 249.542 67.5288C249.467 67.5277 249.392 67.4888 249.318 67.4124C249.319 67.337 249.282 67.2988 249.207 67.2976C249.131 67.2965 249.094 67.2959 249.094 67.2959C249.168 67.3724 249.167 67.41 249.092 67.4089C249.092 67.4089 249.017 67.37 248.868 67.2924C248.718 67.2147 248.606 67.1753 248.53 67.1741L248.419 67.0594C248.269 67.0571 248.156 67.0177 248.082 66.9412C248.083 66.8659 248.046 66.8276 247.971 66.8264L247.856 66.9377L247.745 66.8229C247.595 66.7453 247.371 66.6665 247.07 66.5865C246.847 66.4323 246.66 66.3164 246.511 66.2388C246.36 66.2365 246.173 66.1206 245.951 65.8911L245.725 65.8876C245.578 65.6593 245.317 65.5046 244.941 65.4234C244.942 65.3481 244.906 65.2722 244.832 65.1957L244.719 65.1939C244.571 64.9656 244.46 64.8886 244.383 64.9627C244.31 64.8109 244.199 64.6962 244.049 64.6185C243.976 64.4667 243.865 64.352 243.716 64.2743C243.72 63.973 243.647 63.8212 243.497 63.8189C243.499 63.6682 243.352 63.4399 243.055 63.1339C242.834 62.8292 242.687 62.5632 242.616 62.336L242.504 62.2213C242.208 61.9154 241.989 61.4222 241.849 60.742C241.779 60.4395 241.705 60.3254 241.628 60.3995C241.627 60.4749 241.593 60.286 241.524 59.8329C241.525 59.7575 241.527 59.6446 241.529 59.4939C241.608 59.2691 241.611 59.1184 241.536 59.042C241.538 58.9666 241.501 58.9284 241.425 58.9272C241.426 58.8519 241.428 58.7766 241.429 58.7012C241.355 58.6248 241.317 58.5865 241.317 58.5865C241.394 58.5124 241.432 58.4753 241.432 58.4753C241.435 58.3246 241.398 58.2487 241.323 58.2476C241.324 58.1722 241.325 58.0969 241.326 58.0216L241.33 57.7956C241.336 57.419 241.415 57.1565 241.568 57.0082C241.57 56.8576 241.61 56.7451 241.686 56.671C241.763 56.5968 241.801 56.5221 241.803 56.4468C241.805 56.2961 241.881 56.222 242.032 56.2243C242.183 56.2266 242.259 56.1901 242.26 56.1148C242.262 55.9642 242.301 55.8894 242.376 55.8906C242.528 55.8176 242.642 55.744 242.719 55.6698C242.72 55.5945 242.759 55.5198 242.835 55.4456C242.987 55.3726 243.064 55.2985 243.065 55.2231C243.445 55.003 243.861 54.8964 244.313 54.9034C245.217 54.9174 245.665 55.1504 245.658 55.6023C245.656 55.753 245.426 56.0131 244.968 56.3827C244.889 56.6075 244.849 56.7576 244.848 56.8329C244.923 56.8341 244.885 56.9088 244.732 57.0572C244.803 57.2843 244.836 57.5862 244.831 57.9628C244.755 57.9616 244.716 58.074 244.712 58.3C244.785 58.4518 244.822 58.5277 244.822 58.5277C244.821 58.6031 244.855 58.8296 244.924 59.2074C245.069 59.5863 245.179 59.8141 245.253 59.8906C245.253 59.8906 245.325 60.08 245.47 60.459C245.616 60.7626 245.688 60.9521 245.687 61.0274L245.684 61.2534C245.831 61.4817 245.904 61.6335 245.903 61.7088C245.978 61.71 246.277 61.8653 246.8 62.1748C246.874 62.2513 247.024 62.2912 247.25 62.2947C247.623 62.5265 247.884 62.7189 248.032 62.8719C248.256 63.0261 248.781 63.1849 249.607 63.3483C249.907 63.4283 250.019 63.5054 249.942 63.5796C249.942 63.5796 250.093 63.5819 250.394 63.5866C250.394 63.5866 250.394 63.6242 250.392 63.6995C250.392 63.6995 250.43 63.7001 250.505 63.7013C250.657 63.6283 250.808 63.6306 250.957 63.7083C251.108 63.7106 251.259 63.6753 251.411 63.6023L251.863 63.6093C252.39 63.6174 252.956 63.5509 253.561 63.4095L255.263 62.9838C255.792 62.9166 256.283 62.7736 256.739 62.5546C257.194 62.3356 257.612 62.1161 257.992 61.8959C258.068 61.8971 258.295 61.7876 258.675 61.5674C259.057 61.272 259.513 60.9777 260.045 60.6845C259.973 60.4574 259.94 60.1555 259.946 59.7789C259.95 59.5529 260.064 59.4417 260.29 59.4452C260.518 59.3733 260.67 59.2627 260.748 59.1132C260.524 58.9591 260.224 58.8791 259.847 58.8732C259.546 58.8686 259.435 58.7538 259.514 58.529C259.238 56.8672 258.809 55.3538 258.228 53.9886C257.721 52.6246 257.104 51.1082 256.377 49.4394C256.305 49.2123 256.16 48.8333 255.942 48.3026C255.725 47.7718 255.58 47.3552 255.51 47.0527C255.511 46.9774 255.586 46.9786 255.736 47.0562C255.886 47.0585 255.924 47.0215 255.85 46.945C255.781 46.5672 255.711 46.1894 255.642 45.8116C255.648 45.435 255.615 45.0955 255.545 44.793C255.472 44.6412 255.549 44.5294 255.776 44.4575C256.003 44.3857 256.08 44.2739 256.007 44.1221C255.934 43.9702 255.784 43.9303 255.557 44.0021C255.33 44.0739 255.18 44.0339 255.107 43.8821L254.789 42.521C254.794 42.1444 254.723 41.9173 254.573 41.8396C254.499 41.7631 254.577 41.6136 254.806 41.3912C254.958 41.3182 255.035 41.2063 255.037 41.0557C255.041 40.8297 255.081 40.6797 255.157 40.6055C255.537 40.3854 255.692 40.124 255.622 39.8216C255.552 39.4438 255.633 39.106 255.863 38.8082C256.094 38.5104 256.286 38.2497 256.44 38.026C256.596 37.7271 256.825 37.5423 257.127 37.4716C257.355 37.3244 257.43 37.3633 257.351 37.5881C257.272 37.8129 257.271 37.9259 257.346 37.927C257.723 37.9329 257.876 37.7469 257.807 37.3691C257.737 36.9913 257.855 36.6541 258.161 36.3575C258.696 35.9137 259.492 35.5493 260.552 35.2643C261.611 34.9793 262.405 34.8033 262.933 34.7361C263.084 34.7384 263.197 34.7402 263.272 34.7413C263.424 34.6684 263.537 34.6324 263.613 34.6336C263.989 34.6394 264.365 34.6829 264.741 34.7641C265.192 34.8464 265.605 34.9281 265.98 35.0093C266.28 35.0893 266.728 35.3976 267.322 35.9342C267.918 36.3954 268.368 36.5154 268.673 36.2941C269.36 35.702 270.084 35.1858 270.844 34.7455C271.679 34.3064 272.21 34.1262 272.434 34.205C273.036 34.2897 273.56 34.4862 274.008 34.7945C274.456 35.0274 274.595 35.783 274.424 37.0612C274.342 37.512 274.148 37.8857 273.842 38.1823C273.613 38.4048 273.382 38.7026 273.15 39.0757L272.342 40.1933C272.032 40.7159 271.648 41.2374 271.187 41.7577C270.803 42.2791 270.458 42.6128 270.155 42.7588C269.851 42.9048 269.546 43.1638 269.239 43.5357C269.008 43.8335 268.702 44.1302 268.321 44.4256C267.94 44.7211 267.522 44.9407 267.067 45.0843C266.69 45.1538 266.425 45.225 266.273 45.298C266.046 45.3699 265.706 45.4023 265.254 45.3953C264.879 45.3141 264.768 45.1617 264.922 44.9381C265.074 44.8651 265.113 44.7904 265.039 44.7139C264.966 44.5621 264.93 44.4485 264.931 44.3732C264.934 44.2225 265.011 44.1107 265.162 44.0377C265.39 43.9659 265.542 43.8552 265.62 43.7057C265.696 43.6316 265.889 43.3709 266.197 42.9236C266.58 42.4775 266.735 42.2162 266.661 42.1397C266.664 41.9137 266.743 41.7265 266.896 41.5782C266.898 41.4276 266.9 41.3146 266.901 41.2393C266.903 41.0886 266.98 40.9768 267.132 40.9038C267.435 40.8331 267.587 40.7225 267.589 40.5718L267.61 39.216C267.615 38.9147 267.582 38.6128 267.511 38.3104C267.516 38.0091 267.445 37.7443 267.298 37.516C266.707 36.7534 265.733 36.3616 264.377 36.3406C263.398 36.3255 262.453 36.5369 261.542 36.9749C260.556 37.4116 259.716 38.1521 259.022 39.1961C258.483 39.9412 258.207 40.728 258.194 41.5566C258.185 42.1592 258.288 42.7635 258.505 43.3696C258.797 43.9769 259.052 44.5459 259.27 45.0767C259.487 45.6074 259.779 46.2523 260.144 47.0114C260.584 47.7717 260.914 48.3795 261.133 48.8349C261.5 49.4434 261.903 50.1653 262.342 51.0009C262.783 51.7611 263.111 52.482 263.326 53.1634C263.4 53.2399 263.324 53.314 263.097 53.3859C262.946 53.3835 262.907 53.4583 262.98 53.6101C263.053 53.7619 263.165 53.839 263.316 53.8413C263.466 53.8436 263.578 53.9207 263.651 54.0725C263.798 54.3008 263.795 54.4891 263.642 54.6375C263.565 54.7869 263.561 55.0129 263.632 55.3154C263.631 55.3907 263.705 55.4672 263.854 55.5448C264.004 55.6225 264.078 55.699 264.077 55.7743C264.438 56.7594 264.614 57.5532 264.605 58.1558C265.289 57.7896 266.049 57.3494 266.886 56.8349C267.722 56.3205 268.182 55.8378 268.264 55.3871C268.342 55.2376 268.455 55.2017 268.605 55.2793C268.831 55.2828 268.943 55.3599 268.94 55.5105C268.857 56.0366 268.206 56.7423 266.986 57.6276C265.843 58.514 264.966 59.1408 264.358 59.5081C264.432 59.5846 264.392 59.7723 264.236 60.0713C264.081 60.3703 264.04 60.5957 264.113 60.7475C264.112 60.8228 264.072 60.9352 263.995 61.0847C263.918 61.1588 263.841 61.2707 263.763 61.4201C263.759 61.7214 263.68 61.9462 263.527 62.0946L263.523 62.3205L263.181 62.5413C263.104 62.6154 262.989 62.802 262.833 63.101C262.754 63.3258 262.638 63.5123 262.486 63.6606L262.147 63.6554C261.994 63.8037 261.915 63.9909 261.912 64.2168C261.758 64.4405 261.415 64.6989 260.883 64.992C260.352 65.2098 260.009 65.4305 259.855 65.6542C259.855 65.6542 259.818 65.6536 259.742 65.6524C259.667 65.6513 259.553 65.7248 259.4 65.8732L259.061 65.8679C258.986 65.8668 258.909 65.9409 258.831 66.0904C258.755 66.1646 258.678 66.2387 258.602 66.3129C258.376 66.3094 258.262 66.383 258.26 66.5336C257.958 66.5289 257.732 66.5631 257.58 66.6361L256.447 66.8446C256.141 67.1412 255.875 67.2878 255.649 67.2843L255.537 67.1696C255.384 67.3179 255.27 67.3915 255.195 67.3903L254.743 67.3833C254.668 67.3821 254.592 67.4186 254.515 67.4928C254.439 67.5669 254.363 67.6034 254.288 67.6023L254.062 67.5988C253.986 67.5976 253.911 67.5964 253.836 67.5953C253.834 67.6706 253.759 67.7071 253.608 67.7048C253.382 67.7013 253.043 67.696 252.591 67.689C252.214 67.6832 251.912 67.7162 251.685 67.788ZM250.571 66.7537C250.571 66.7537 250.647 66.7548 250.797 66.7572C251.024 66.6853 251.176 66.65 251.251 66.6512C251.628 66.657 251.966 66.6999 252.266 66.7799C252.567 66.7846 252.869 66.7892 253.17 66.7939C253.321 66.7962 253.397 66.7221 253.399 66.5714L253.625 66.5749C253.855 66.3524 253.968 66.3165 253.966 66.4672C254.039 66.619 254.152 66.6207 254.305 66.4724C254.456 66.4747 254.532 66.4382 254.533 66.3629L254.988 66.1439C255.064 66.1451 255.101 66.1457 255.101 66.1457C255.102 66.0704 255.141 66.0333 255.216 66.0344L255.442 66.0379C255.593 66.0403 255.744 65.9673 255.897 65.819C256.05 65.6706 256.127 65.5965 256.127 65.5965C256.127 65.5965 256.242 65.4853 256.471 65.2628C256.471 65.2628 256.509 65.2634 256.584 65.2645C256.66 65.1904 256.736 65.1539 256.812 65.155C256.965 65.0067 257.116 64.9337 257.267 64.9361C257.268 64.8607 257.345 64.7866 257.497 64.7136C257.65 64.5653 257.726 64.4911 257.726 64.4911C257.803 64.4169 257.878 64.3804 257.954 64.3816C258.106 64.3086 258.182 64.2345 258.183 64.1591C258.334 64.1615 258.639 63.9025 259.099 63.3822C259.56 62.8619 259.871 62.2263 260.033 61.4754C260.035 61.3248 259.808 61.4343 259.35 61.8039C258.893 62.0982 258.665 62.2454 258.665 62.2454C258.438 62.3172 258.21 62.4643 257.98 62.6868C257.752 62.834 257.562 62.9064 257.412 62.904C257.336 62.9029 257.222 62.9765 257.069 63.1248C256.993 63.1989 256.917 63.2354 256.841 63.2343C256.766 63.2331 256.728 63.2702 256.727 63.3455C256.727 63.3455 256.652 63.3067 256.502 63.229C256.425 63.3785 256.197 63.5257 255.818 63.6705C255.439 63.8153 255.174 63.8865 255.023 63.8842L254.684 63.879L254.569 63.9902C254.569 63.9902 254.531 64.0273 254.455 64.1014C254.379 64.1003 254.304 64.0991 254.229 64.0979L253.436 64.1987L253.323 64.1969C253.248 64.1958 253.172 64.2323 253.095 64.3064C252.794 64.3018 252.455 64.3342 252.077 64.4037C251.699 64.4732 251.472 64.5073 251.397 64.5062L251.284 64.5044C251.285 64.4291 251.248 64.3909 251.173 64.3897L251.171 64.5027L250.606 64.4939C250.38 64.4904 250.117 64.4487 249.817 64.3687C249.593 64.2146 249.406 64.1363 249.256 64.134C249.18 64.1328 249.142 64.1699 249.141 64.2452C249.141 64.2452 249.103 64.2447 249.028 64.2435L248.802 64.24C248.727 64.2388 248.689 64.2006 248.691 64.1253L248.126 64.1165C248.129 63.8905 248.054 63.8517 247.902 64L247.789 63.9983C247.487 63.9936 247.225 63.8766 247.003 63.6471C246.856 63.4188 246.594 63.3017 246.217 63.2959L245.883 62.9517C245.882 63.027 245.843 63.1017 245.767 63.1759C245.767 63.1759 245.766 63.2136 245.765 63.2889C245.765 63.2889 245.802 63.3648 245.875 63.5166C246.024 63.5943 246.098 63.6708 246.097 63.7461L246.316 64.2015L246.759 64.7735L246.982 65.0029C247.056 65.0794 247.093 65.1177 247.093 65.1177C247.168 65.1188 247.243 65.1953 247.316 65.3471C247.466 65.3495 247.54 65.4636 247.536 65.6896C248.806 66.3873 249.818 66.742 250.571 66.7537ZM243.226 99.3009C242.096 99.2834 241.119 99.1553 240.293 98.9165C239.769 98.7577 239.244 98.5612 238.72 98.3271C238.197 98.093 237.636 97.8206 237.038 97.51L236.814 97.3935C236.515 97.2382 236.179 97.0069 235.807 96.6998C235.434 96.468 235.06 96.2739 234.686 96.1174C234.386 96.0374 233.975 95.805 233.454 95.4203C233.082 95.1131 232.86 94.8083 232.79 94.5059C232.644 94.2022 232.684 94.0145 232.912 93.9427C232.987 93.9439 233.099 93.9833 233.249 94.0609C233.397 94.2139 233.546 94.3292 233.695 94.4069C233.845 94.4845 234.031 94.6004 234.255 94.7546C234.403 94.9076 234.552 95.0229 234.702 95.1005C235.076 95.257 235.413 95.3752 235.713 95.4552C235.937 95.6094 236.198 95.7641 236.497 95.9194C237.171 96.2312 237.657 96.4271 237.957 96.5071C238.258 96.5871 238.708 96.6694 239.31 96.754L240.777 96.8897C243.411 97.0812 245.676 96.7772 247.572 95.9778C249.468 95.1783 251.179 94.1124 252.707 92.7798C254.158 91.5215 255.496 90.2237 256.723 88.8865C256.958 88.2874 257.23 87.7265 257.54 87.2039C257.774 86.6802 258.043 86.3076 258.348 86.0863C258.425 86.0122 258.499 86.051 258.572 86.2028C258.644 86.4299 258.718 86.5064 258.795 86.4323C258.949 86.2086 259.068 85.8337 259.151 85.3076C259.234 84.8569 259.352 84.5197 259.506 84.296C259.659 84.1477 259.809 84.1877 259.956 84.416C260.028 84.6431 260.102 84.7196 260.179 84.6455C260.332 84.4971 260.412 84.197 260.419 83.7451C260.424 83.3684 260.466 83.1054 260.544 82.9559C261.389 81.9142 262.119 80.946 262.736 80.0515C263.353 79.1569 264.047 78.1129 264.819 76.9193C265.205 76.3226 265.705 75.6522 266.319 74.9083C266.858 74.1632 267.397 73.4181 267.936 72.673C268.558 71.4019 269.252 70.3578 270.019 69.5409L270.022 69.3149C270.027 69.0136 270.107 68.7135 270.262 68.4145C270.417 68.1156 270.534 67.8537 270.613 67.6289C270.773 67.0286 270.93 66.6543 271.083 66.506C271.236 66.3577 271.355 65.9451 271.441 65.2684L271.554 65.2701C271.191 64.3604 271.128 63.5683 271.365 62.8939C271.52 62.595 271.789 62.2601 272.171 61.8893C272.63 61.4443 272.975 61.073 273.206 60.7752C273.362 60.4009 273.403 60.1755 273.329 60.099L273.334 59.76C273.342 59.2328 273.462 58.7826 273.694 58.4094C274.001 58.0375 274.272 57.5896 274.506 57.0658C274.586 56.7657 274.739 56.6174 274.965 56.6209L275.304 56.6261C275.455 56.6285 275.532 56.5166 275.535 56.2907C275.538 56.14 275.503 55.9511 275.431 55.724C275.436 55.4227 275.403 55.1208 275.332 54.8183C275.415 54.2922 275.647 53.9568 276.026 53.812L276.252 53.8155C276.417 52.8386 276.579 52.163 276.735 51.7887C276.893 51.3391 277.087 50.9654 277.317 50.6676L278.355 49.3275L278.713 48.0899C278.869 47.7909 279.023 47.5673 279.176 47.4189C279.33 47.1953 279.484 47.0093 279.637 46.861L279.638 46.748C279.717 46.5232 279.833 46.3366 279.986 46.1883C280.14 45.9647 280.256 45.7781 280.334 45.6286L280.8 44.7317C280.802 44.5811 280.958 44.2445 281.267 43.7218C281.577 43.1992 281.77 42.9009 281.846 42.8267C282.311 42.0051 282.659 41.4454 282.889 41.1476C283.195 40.851 283.655 40.3307 284.27 39.5868C284.425 39.2878 284.657 38.9147 284.965 38.4674C285.35 37.946 285.696 37.4616 286.005 37.0143L284.192 37.3253C284.04 37.3983 283.963 37.4725 283.962 37.5478C283.962 37.5478 283.887 37.5466 283.736 37.5443C283.584 37.6173 283.357 37.6891 283.055 37.7598C282.752 37.8305 282.526 37.8646 282.375 37.8623C282.149 37.8588 281.848 37.8541 281.471 37.8483C281.096 37.7672 280.72 37.7237 280.343 37.7178C280.268 37.7167 280.194 37.6402 280.121 37.4884C280.048 37.3365 279.935 37.2971 279.783 37.3701C279.708 37.369 279.556 37.442 279.328 37.5891C279.1 37.7363 278.91 37.8463 278.758 37.9193C278.682 37.9182 278.607 37.917 278.532 37.9158C278.458 37.8393 278.382 37.8382 278.306 37.9123C278.231 37.9112 278.117 37.9471 277.965 38.0201C277.889 38.0942 277.775 38.1678 277.623 38.2408C277.245 38.3103 276.829 38.4169 276.375 38.5605C275.921 38.6289 275.43 38.7719 274.899 38.9897L274.673 38.9863C274.447 38.9828 274.336 38.868 274.339 38.642C274.346 38.1901 274.576 37.93 275.029 37.8616C275.559 37.7191 276.203 37.5031 276.961 37.2134C277.718 36.9238 278.475 36.7095 279.231 36.5705C279.457 36.574 279.646 36.5392 279.797 36.4662C280.025 36.3944 280.213 36.3597 280.364 36.362C280.59 36.3655 280.779 36.3307 280.931 36.2577C281.158 36.1859 281.384 36.1518 281.61 36.1553C281.763 36.0069 281.878 35.9334 281.953 35.9345C282.556 35.9439 283.16 35.8025 283.768 35.5106C284.376 35.1433 285.06 34.7771 285.819 34.4122C286.273 34.2685 286.692 33.9736 287.076 33.5275C287.535 33.0825 287.84 32.8236 287.992 32.7506C288.145 32.6023 288.26 32.4534 288.338 32.3039C288.491 32.1556 288.719 32.0084 289.023 31.8624C289.331 31.4151 289.715 30.9314 290.175 30.4111C290.711 29.892 291.393 29.6012 292.223 29.5387C292.524 29.5433 293.05 29.6268 293.801 29.7891C294.629 29.8773 295.08 29.9219 295.155 29.9231C295.456 30.0031 295.602 30.269 295.595 30.721C295.584 31.4742 295.312 31.9974 294.78 32.2906C294.628 32.3635 294.549 32.5884 294.543 32.965C294.614 33.2674 294.573 33.4928 294.42 33.6411L292.711 34.5188C292.256 34.7378 291.913 34.9585 291.684 35.181C291.531 35.3293 291.189 35.4747 290.66 35.6172C290.509 35.6149 290.283 35.649 289.98 35.7197C289.753 35.7915 289.526 35.8634 289.299 35.9352C289.066 36.3836 288.796 36.7562 288.49 37.0528C288.261 37.2753 287.953 37.7226 287.566 38.3947C286.794 39.5882 286.406 40.2979 286.402 40.5239C286.4 40.6746 286.283 40.9365 286.051 41.3096C285.975 41.3837 285.897 41.5709 285.817 41.871C285.738 42.0958 285.659 42.283 285.582 42.4325L283.963 44.7807C283.962 44.856 283.809 45.042 283.503 45.3386C283.198 45.5599 283.007 45.7453 282.929 45.8948C282.851 46.0443 282.812 46.1567 282.811 46.232C282.885 46.3085 282.921 46.3844 282.92 46.4598C282.917 46.6857 282.801 46.8346 282.574 46.9065C282.422 46.9794 282.346 47.0536 282.345 47.1289C282.268 47.2031 282.192 47.2396 282.117 47.2384C282.118 47.1631 282.042 47.1996 281.889 47.3479C281.813 47.4221 281.734 47.6469 281.653 48.0223C281.648 48.3236 281.608 48.5114 281.531 48.5855C281.068 49.3318 280.792 50.0809 280.705 50.833C280.619 51.5098 280.306 52.2583 279.766 53.0787C279.299 54.051 279.179 54.5388 279.405 54.5423C279.631 54.5458 279.744 54.5476 279.744 54.5476C280.815 53.5093 282.345 51.9885 284.335 49.9851C286.401 47.9075 288.503 45.9434 290.642 44.0929C290.871 43.8705 291.102 43.5727 291.334 43.1995C291.565 42.8264 291.795 42.5663 292.024 42.4191C292.559 41.9 293.131 41.4945 293.738 41.2025C294.346 40.8352 294.918 40.4297 295.452 39.9859C295.833 39.6904 296.175 39.5073 296.477 39.4367C296.855 39.3672 297.197 39.2218 297.501 39.0005C297.653 38.9275 297.692 38.8527 297.618 38.7762C297.545 38.6244 297.584 38.512 297.736 38.439C298.572 37.9999 299.028 37.7433 299.104 37.6691C299.181 37.5949 299.484 37.4866 300.013 37.3441C300.846 37.0557 301.79 36.9196 302.845 36.9359C303.523 36.9464 303.937 36.9905 304.086 37.0681C304.459 37.2999 304.871 37.4946 305.32 37.6523C305.77 37.8099 305.989 38.2654 305.977 39.0186C305.971 39.3952 306.005 39.6218 306.08 39.6983C306.155 39.6994 306.188 39.9637 306.18 40.4909C306.174 40.8675 306.09 41.469 305.926 42.2952C305.838 43.1226 305.753 43.7617 305.671 44.2125L305.175 47.0302C305.096 47.255 305.093 47.4809 305.165 47.7081C305.236 47.9352 305.233 48.1612 305.154 48.386C305.078 48.4601 304.963 48.5714 304.81 48.7197C304.657 48.868 304.542 49.0169 304.464 49.1664C303.935 49.2336 303.555 49.4914 303.322 49.9398C303.165 50.3141 303.351 50.4677 303.88 50.4005C303.803 50.4747 303.651 50.5853 303.423 50.7325C303.27 50.8808 303.154 51.0297 303.077 51.1792C303 51.2533 303.037 51.3292 303.186 51.4069C303.337 51.4092 303.257 51.6717 302.948 52.1943C302.716 52.5674 302.482 53.0535 302.247 53.6526C302.012 54.2517 301.778 54.7379 301.547 55.111C301.316 55.4088 301.087 55.5936 300.86 55.6654C300.708 55.7384 300.517 55.9238 300.286 56.2216C300.209 56.3711 300.169 56.5212 300.166 56.6718C300.164 56.8225 300.086 56.9719 299.933 57.1203C299.856 57.2697 299.703 57.3804 299.476 57.4522C299.324 57.5252 299.172 57.6359 299.019 57.7842C296.564 60.6092 293.586 63.1624 290.085 65.4439C286.66 67.7265 283.021 69.1394 279.17 69.6825C278.944 69.679 278.718 69.6755 278.492 69.672C278.341 69.745 278.189 69.7803 278.039 69.778C276.834 69.7594 275.897 69.4435 275.228 68.8304C274.635 68.2185 274.08 67.5695 273.563 66.8834C273.404 67.4084 273.246 67.8956 273.088 68.3453C272.93 68.8702 272.771 69.3951 272.612 69.9201C272.453 70.445 272.331 71.0459 272.245 71.7226C272.235 72.4005 272.04 72.8119 271.661 72.9567C271.434 73.0285 271.247 72.9126 271.101 72.609C270.955 72.3054 270.876 72.5679 270.863 73.3964C271.012 73.4741 271.048 73.6253 270.969 73.8501C270.815 74.0738 270.737 74.2609 270.734 74.4116C270.807 74.5634 270.841 74.7899 270.837 75.0912C270.831 75.4678 270.713 75.8051 270.482 76.1029C270.176 76.3995 269.945 76.735 269.788 77.1092C269.71 77.3341 269.557 77.4447 269.331 77.4412C269.256 77.44 269.143 77.4006 268.994 77.323C268.844 77.2453 268.732 77.2059 268.657 77.2047C268.581 77.2036 268.543 77.2783 268.54 77.429C268.538 77.5796 268.643 78.1086 268.855 79.016C268.848 79.468 268.618 79.6904 268.166 79.6835L267.827 79.6782C267.739 80.5056 267.617 81.1065 267.46 81.4807C267.303 81.9304 267.109 82.2664 266.88 82.4889L266.08 83.0416C265.318 83.6325 264.777 84.4906 264.458 85.6158C264.379 85.8406 264.226 86.0266 263.997 86.1737C263.694 86.3197 263.465 86.5045 263.311 86.7282C263.31 86.8035 263.309 86.8412 263.309 86.8412C263.234 86.84 263.195 86.8771 263.194 86.9524C263.18 87.8563 262.79 88.7544 262.022 89.6466C261.18 90.5377 260.339 91.3157 259.5 91.9808C259.345 92.2798 259.152 92.5782 258.921 92.876C258.69 93.1738 258.423 93.4333 258.118 93.6547C257.736 94.0255 257.318 94.245 256.865 94.3133C256.336 94.3805 255.843 94.5989 255.385 94.9685C255.234 95.0415 255.193 95.2293 255.264 95.5317C255.333 95.9095 255.292 96.1349 255.14 96.2079C253.391 97.2356 251.421 97.9962 249.228 98.4897C247.034 99.0585 245.034 99.3289 243.226 99.3009ZM279.543 67.541C280.221 67.5515 281.202 67.416 282.487 67.1345C283.774 66.7777 284.949 66.3062 286.013 65.7199C286.391 65.5751 286.733 65.392 287.038 65.1707C287.419 64.8752 287.763 64.5792 288.069 64.2826C288.375 63.9859 288.568 63.6875 288.648 63.3874C288.956 62.9401 289.416 62.4575 290.027 61.9396L290.597 61.6093C290.903 61.3127 291.212 60.7901 291.525 60.0415L291.751 60.045C292.053 59.9744 292.244 59.8266 292.323 59.6018L292.891 59.3846C292.895 59.1586 292.973 58.9715 293.126 58.8231C293.281 58.5242 293.55 58.1893 293.933 57.8185C294.316 57.3724 294.51 56.9987 294.515 56.6974C294.516 56.6221 294.443 56.5079 294.294 56.3549C294.372 56.2054 294.527 55.9441 294.759 55.571C295.067 55.1237 295.26 54.8253 295.338 54.6759L296.017 54.5734L296.367 53.9007L296.37 53.6747C297.349 53.6899 297.769 53.3197 297.63 52.5641L298.455 50.4296C298.615 49.8293 298.847 49.4185 299.152 49.1972C299.156 48.8959 299.197 48.7082 299.273 48.634C299.35 48.5599 299.428 48.4104 299.506 48.1856C299.742 47.5865 299.98 46.7991 300.221 45.8234C300.538 44.8488 300.696 44.3615 300.696 44.3615L300.367 43.6784C300.37 43.5277 300.26 43.3 300.039 42.9952C299.893 42.6916 299.859 42.4274 299.938 42.2025C300.097 41.6776 300.366 41.3427 300.745 41.1979C301.199 41.0543 301.276 40.9424 300.976 40.8624L300.863 40.8607C300.637 40.8572 300.373 40.8908 300.07 40.9614C299.843 41.0333 299.54 41.1416 299.161 41.2864C298.707 41.4301 298.292 41.4613 297.917 41.3802C297.541 41.299 297.239 41.332 297.011 41.4792C296.254 41.6935 295.457 42.0579 294.621 42.5723C293.785 43.0114 292.871 43.6377 291.879 44.4511C291.803 44.5253 291.688 44.6742 291.533 44.8978C291.379 45.1215 291.226 45.3075 291.073 45.4558C290.996 45.5299 290.845 45.5653 290.619 45.5618C290.468 45.5594 290.317 45.6324 290.164 45.7807C290.087 45.8549 290.085 45.9679 290.158 46.1197C290.231 46.2715 290.229 46.4222 290.151 46.5716C289.999 46.6446 289.848 46.7176 289.696 46.7906C289.544 46.8636 289.392 46.9743 289.239 47.1226L288.891 47.6823C287.588 49.0936 285.982 50.651 284.072 52.3543C282.238 54.0588 280.667 55.7297 279.361 57.367L295.727 51.4045C296.183 51.1855 296.599 51.0789 296.975 51.0848C297.127 51.0118 297.314 51.09 297.537 51.3195C297.61 51.4713 297.532 51.6208 297.304 51.7679C297.151 51.9163 297.037 51.9522 296.963 51.8757L296.4 51.7539C296.323 51.8281 296.171 51.9388 295.943 52.0859C295.79 52.2342 295.638 52.3072 295.487 52.3049L294.919 52.5221C294.842 52.5963 294.691 52.6316 294.465 52.6281C294.239 52.6246 294.088 52.66 294.011 52.7341C293.86 52.8071 293.745 52.8807 293.669 52.9548C293.594 52.9537 293.479 53.0272 293.327 53.1756C291.582 53.902 289.686 54.7391 287.637 55.6868C285.589 56.5593 283.692 57.434 281.946 58.3111C279.743 59.4825 278.218 60.6267 277.372 61.7437C276.527 62.7855 276.098 63.7206 276.085 64.5492C276.075 65.2271 276.254 65.8326 276.622 66.3657C276.992 66.8235 277.439 67.1318 277.964 67.2906C278.489 67.4494 279.015 67.5329 279.543 67.541ZM324.466 33.202C324.24 33.1985 324.015 33.1197 323.792 32.9655C323.643 32.8125 323.42 32.6207 323.123 32.3901C322.973 32.3124 322.786 32.2342 322.561 32.1554C322.413 32.0024 322.341 31.7753 322.346 31.474C322.272 31.3975 322.121 31.3575 321.895 31.354C321.519 31.3482 321.335 31.0816 321.343 30.5543C321.352 29.9517 321.66 29.5421 322.266 29.3255L322.838 28.8823L322.836 28.9953L323.297 28.4373L323.523 28.4408C323.975 28.4478 324.279 28.2265 324.437 27.7769C324.67 27.3284 325.127 27.0341 325.807 26.894C326.261 26.7503 326.637 26.7938 326.935 27.0244C327.233 27.2551 327.608 27.3739 328.06 27.3809C328.512 27.3879 329.004 27.2448 329.536 26.9517L331.236 26.6389C331.462 26.6424 331.573 26.7195 331.571 26.8701C331.569 27.0208 331.34 27.2056 330.884 27.4246C330.504 27.6447 330.238 27.829 330.085 27.9773L329.97 28.0885L329.853 28.3127L329.393 28.8707C328.933 29.391 328.396 30.0231 327.781 30.767C327.244 31.4367 326.67 31.9929 326.06 32.4355C325.374 32.9523 324.843 33.2078 324.466 33.202ZM306.742 68.527C306.29 68.52 306.068 68.2528 306.076 67.7256C306.082 67.3489 306.202 66.8988 306.436 66.375C307.058 65.1038 307.764 63.3065 308.553 60.9831C309.418 58.6609 310.466 56.6805 311.697 55.042C312.551 53.3977 313.329 51.7899 314.032 50.2186C314.811 48.5731 315.552 46.927 316.255 45.2804C316.255 45.2804 316.181 45.2416 316.031 45.1639C315.958 45.0121 315.923 44.8609 315.925 44.7102C315.478 44.4019 314.995 43.9801 314.476 43.4446C314.033 42.835 314.005 42.2319 314.391 41.6351C314.543 41.4868 314.658 41.4132 314.733 41.4144C314.808 41.4155 314.846 41.4161 314.846 41.4161C314.847 41.3408 314.81 41.3025 314.735 41.3014C314.736 41.2261 314.736 41.1884 314.736 41.1884C314.741 40.8871 314.895 40.7011 315.197 40.6305C315.5 40.5598 315.652 40.4491 315.654 40.2985C315.821 39.2463 316.737 38.4694 318.403 37.9677C320.068 37.4661 321.541 37.2252 322.821 37.245C324.102 37.2648 324.739 37.463 324.733 37.8397C324.731 37.9903 324.501 38.2505 324.043 38.6201C323.815 38.7672 323.433 39.1004 322.898 39.6195C322.362 40.1386 321.863 40.7713 321.399 41.5175L320.474 42.8594C320.397 43.0089 320.281 43.1954 320.127 43.4191C320.049 43.5685 319.934 43.7174 319.781 43.8658C318.542 46.0315 317.534 47.8618 316.757 49.3566C315.981 50.8515 315.047 52.7583 313.956 55.077C313.799 55.5266 313.719 55.8267 313.717 55.9774C313.708 56.5047 314.006 56.7729 314.608 56.7823C315.06 56.7893 315.514 56.6833 315.969 56.4643L317.106 56.0298C318.94 54.4007 320.844 53.0363 322.82 51.9368C322.895 51.9379 322.933 51.9385 322.933 51.9385C323.01 51.8643 323.086 51.8278 323.161 51.829C323.387 51.8325 323.535 51.9855 323.606 52.2879C323.678 52.5151 323.599 52.7022 323.371 52.8494C321.168 54.0208 319.11 55.5335 317.198 57.3874C317.12 57.5369 317.043 57.6864 316.965 57.8359C316.888 57.9854 316.772 58.1343 316.619 58.2826C316.466 58.4309 316.236 58.691 315.929 59.063C315.697 59.4361 315.581 59.6603 315.58 59.7357C315.501 59.9605 315.387 60.034 315.237 59.9564C315.163 59.8799 314.935 59.9894 314.554 60.2849C314.477 60.359 314.4 60.5085 314.321 60.7333C314.318 60.9593 314.277 61.147 314.199 61.2965C314.12 61.5213 313.967 61.7073 313.739 61.8544C313.587 61.9274 313.51 62.0016 313.509 62.0769C313.429 62.377 313.276 62.563 313.048 62.6348C312.898 62.6325 312.746 62.7055 312.593 62.8538C312.517 62.928 312.515 63.041 312.588 63.1928C312.661 63.3446 312.621 63.4947 312.468 63.643C312.389 63.8678 312.312 63.9796 312.237 63.9784C312.162 63.902 312.049 63.9379 311.896 64.0862C311.59 64.3828 311.362 64.53 311.211 64.5276C310.757 64.6713 310.567 64.7814 310.641 64.8579C310.79 64.9355 310.902 65.0126 310.976 65.0891C311.127 65.0914 311.012 65.2026 310.632 65.4228C310.48 65.4958 310.326 65.7194 310.17 66.0937C310.014 66.3927 309.86 66.6163 309.707 66.7646C309.479 66.9118 309.251 67.0213 309.024 67.0931C308.872 67.1661 308.682 67.3138 308.452 67.5363C307.764 68.2037 307.193 68.534 306.742 68.527ZM329.451 68.8784C328.999 68.8714 328.777 68.6042 328.785 68.077C328.791 67.7004 328.911 67.2502 329.145 66.7264C329.768 65.4552 330.473 63.6579 331.263 61.3345C332.128 59.0123 333.175 57.0319 334.406 55.3934L340.236 43.8432C339.784 43.8362 339.33 43.9422 338.874 44.1612C338.494 44.3814 338.303 44.5668 338.301 44.7174C338.296 45.0187 337.877 45.3136 337.044 45.6021C336.211 45.8905 335.756 46.0719 335.679 46.146C334.545 46.4298 333.485 46.7525 332.5 47.1139C331.734 47.9309 330.968 48.7478 330.202 49.5647C329.511 50.3828 328.858 51.2014 328.243 52.0207C328.166 52.0948 328.09 52.1313 328.015 52.1301C327.325 52.8729 326.752 53.4291 326.294 53.7987C325.836 54.1683 325.341 54.4997 324.809 54.7929C324.505 55.0142 324.202 55.0848 323.902 55.0049C323.528 54.8484 323.492 54.6971 323.796 54.5512C324.175 54.4063 324.786 53.8884 325.628 52.9973C326.471 52.1063 327.121 51.4382 327.58 50.9933C327.961 50.7731 328.074 50.7749 327.919 50.9985C327.841 51.2233 327.954 51.1874 328.26 50.8908L331.141 47.3189L331.255 47.2077C330.882 46.9759 330.703 46.3704 330.718 45.3912C330.73 44.6379 330.89 44.0377 331.198 43.5904C331.2 43.5151 331.275 43.4786 331.426 43.4809L333.809 42.8397C334.035 42.8432 334.187 42.8079 334.263 42.7337C334.416 42.5854 334.57 42.3994 334.724 42.1758C334.954 41.878 335.224 41.5054 335.532 41.0581L336.916 39.2713L337.839 38.0425C337.843 37.8165 337.997 37.5552 338.303 37.2586C338.686 36.8878 338.991 36.6288 339.219 36.4816C339.528 36.0344 339.721 35.6983 339.8 35.4735C339.955 35.1745 340.187 34.8014 340.495 34.3541C340.497 34.2788 340.61 34.2429 340.836 34.2464C341.063 34.1746 341.177 34.101 341.179 34.0257C341.266 33.2736 341.384 32.9364 341.533 33.014C341.759 33.0175 341.874 32.9063 341.877 32.6803C341.881 32.4543 342.035 32.2684 342.338 32.1224L342.914 31.4532C342.915 31.3779 343.03 31.229 343.26 31.0065L343.261 30.8935C343.264 30.7429 343.267 30.5545 343.27 30.3286C343.274 30.1026 343.352 29.8778 343.506 29.6541C343.659 29.5058 343.774 29.4323 343.849 29.4334C343.924 29.4346 343.962 29.4352 343.962 29.4352C343.963 29.3598 343.926 29.3216 343.851 29.3204C343.852 29.2451 343.852 29.2074 343.852 29.2074C343.857 28.9062 344.011 28.7202 344.313 28.6495C344.616 28.5788 344.768 28.4682 344.77 28.3175C344.937 27.2653 345.853 26.4884 347.519 25.9868C349.184 25.4852 350.657 25.2443 351.937 25.2641C353.218 25.2839 353.855 25.4821 353.849 25.8587C353.847 26.0094 353.617 26.2695 353.159 26.6391C352.932 26.711 352.55 27.0441 352.014 27.6385C351.478 28.1576 350.979 28.7903 350.515 29.5366L349.59 30.8784C349.513 31.0279 349.397 31.2145 349.243 31.4381C349.165 31.5876 349.05 31.7365 348.897 31.8848C348.355 32.7805 347.62 34.05 346.69 35.6931C345.837 37.2621 344.906 39.0183 343.897 40.9615L346.839 40.668C347.065 40.6715 347.14 40.7104 347.064 40.7845C347.063 40.8598 347.176 40.8616 347.403 40.7898C347.779 40.7956 348.044 40.762 348.195 40.689C348.348 40.5407 348.614 40.4318 348.991 40.3623C349.595 40.2963 350.274 40.2691 351.027 40.2808C351.857 40.2183 352.498 40.1905 352.949 40.1975C353.251 40.2022 353.627 40.208 354.079 40.215C354.531 40.222 354.87 40.2649 355.094 40.3437C355.245 40.3461 355.282 40.422 355.204 40.5714C355.203 40.6468 355.24 40.685 355.315 40.6862C355.466 40.6885 355.579 40.6526 355.656 40.5784C355.808 40.5054 355.959 40.4701 356.11 40.4724C356.186 40.3983 356.299 40.4 356.449 40.4777C356.675 40.4812 356.825 40.4835 356.901 40.4847L358.025 40.8411C358.476 40.9234 358.698 41.1906 358.691 41.6425C358.759 42.0956 358.569 42.2434 358.119 42.0857C357.82 41.9304 357.557 41.851 357.331 41.8475L354.507 41.8038C353.98 41.7956 353.49 41.7881 353.038 41.7811C352.586 41.7741 352.134 41.8048 351.68 41.8731C351.529 41.9461 351.454 41.8696 351.458 41.6436C351.537 41.4188 351.501 41.3052 351.35 41.3029C351.275 41.3017 351.16 41.413 351.006 41.6366C350.853 41.7849 350.739 41.8585 350.664 41.8573L350.093 42.1876C348.884 42.4702 347.598 42.7894 346.236 43.145C344.876 43.4253 343.552 43.7439 342.266 44.1007C341.1 46.4183 339.973 48.6234 338.886 50.7162C337.875 52.7348 337.098 54.3049 336.553 55.4266C336.395 55.8763 336.316 56.1387 336.315 56.2141C336.305 56.8167 336.64 57.1232 337.318 57.1337C337.77 57.1407 338.223 57.0347 338.679 56.8157L339.816 56.3812C341.649 54.7521 343.554 53.3877 345.53 52.2882C345.605 52.2893 345.643 52.2899 345.643 52.2899C345.719 52.2158 345.795 52.1793 345.87 52.1804C346.096 52.1839 346.245 52.3369 346.315 52.6394C346.387 52.8665 346.309 53.0536 346.08 53.2008C343.877 54.3722 341.82 55.8849 339.908 57.7388C339.83 57.8883 339.752 58.0378 339.675 58.1873C339.597 58.3368 339.482 58.4857 339.329 58.634C339.176 58.7823 338.946 59.0424 338.638 59.4144C338.407 59.7875 338.29 60.0117 338.289 60.0871C338.21 60.3119 338.096 60.3854 337.947 60.3078C337.872 60.2313 337.645 60.3408 337.263 60.6363C337.187 60.7104 337.109 60.8599 337.03 61.0847C337.027 61.3107 336.986 61.4984 336.909 61.6479C336.755 61.8715 336.601 62.0575 336.448 62.2058C336.296 62.2788 336.22 62.353 336.219 62.4283C336.139 62.7284 335.985 62.9144 335.758 62.9863C335.607 62.9839 335.455 63.0569 335.302 63.2052C335.227 63.2041 335.189 63.2411 335.188 63.3165C335.177 63.9944 335.097 64.2945 334.948 64.2169C334.798 64.1392 334.684 64.2128 334.605 64.4376C334.299 64.7342 334.071 64.8814 333.92 64.879C333.466 65.0227 333.276 65.1328 333.35 65.2093C333.5 65.2869 333.611 65.364 333.686 65.4405C333.836 65.4428 333.722 65.5541 333.341 65.7742C333.19 65.8472 333.035 66.0708 332.879 66.4451C332.724 66.7441 332.57 66.9677 332.417 67.116C332.188 67.2632 331.961 67.3727 331.733 67.4445C331.506 67.5163 331.316 67.6641 331.161 67.8877C330.473 68.5552 329.903 68.8854 329.451 68.8784ZM336.302 42.4262C336.604 42.3555 336.869 42.2843 337.096 42.2125C337.399 42.1418 337.702 42.0335 338.006 41.8875L341.404 41.375C342.336 39.5812 343.152 37.974 343.852 36.5533C344.553 35.0573 345.06 33.9727 345.371 33.2994C345.371 33.2994 345.297 33.2606 345.147 33.183C345.074 33.0311 345.039 32.8799 345.041 32.7293C344.892 32.6516 344.705 32.5357 344.481 32.3816C344.333 32.2286 344.184 32.1133 344.035 32.0356L343.002 33.0367L341.733 34.7123C341.732 34.7876 341.618 34.8612 341.391 34.933C341.24 34.9307 341.164 34.9672 341.163 35.0425C341.159 35.2685 341.043 35.4927 340.813 35.7152C340.659 35.9388 340.507 36.0118 340.358 35.9342L339.889 37.0571C339.885 37.283 339.769 37.4696 339.541 37.6167L338.734 38.6214C338.733 38.6967 338.694 38.7714 338.618 38.8456C338.618 38.8456 338.617 38.9209 338.614 39.0716C338.537 39.2211 338.421 39.4076 338.266 39.6313C338.112 39.8549 337.921 40.078 337.691 40.3004C337.616 40.2993 337.578 40.3364 337.576 40.4117C337.576 40.4117 337.539 40.4111 337.463 40.4099L337.114 41.0826C336.81 41.2286 336.621 41.301 336.545 41.2998L336.429 41.5241C336.422 41.976 336.38 42.2767 336.302 42.4262ZM371.206 69.5245C370.755 69.5175 370.533 69.2504 370.541 68.7231C370.547 68.3465 370.667 67.8963 370.901 67.3725C371.523 66.1013 372.229 64.304 373.018 61.9806C373.883 59.6584 374.931 57.678 376.162 56.0396C377.016 54.3952 377.794 52.7874 378.497 51.2161C379.276 49.5706 380.017 47.9246 380.72 46.2779C380.72 46.2779 380.646 46.2391 380.496 46.1614C380.348 46.0085 380.275 45.8566 380.277 45.706C379.905 45.3989 379.46 44.9776 378.94 44.4422C378.423 43.8314 378.394 43.2282 378.855 42.6326C379.008 42.4843 379.085 42.4102 379.085 42.4102C379.16 42.4113 379.198 42.4119 379.198 42.4119C379.199 42.3366 379.162 42.2983 379.087 42.2972C379.087 42.2972 379.087 42.2595 379.088 42.1842L378.977 42.0694C378.902 42.0683 378.827 42.0671 378.751 42.066C378.752 41.9906 378.715 41.9524 378.64 41.9512C378.339 41.9466 377.999 42.0166 377.62 42.1615C377.242 42.231 376.865 42.2628 376.488 42.257C376.036 42.25 375.431 42.429 374.671 42.7939C373.914 43.0836 373.232 43.3367 372.625 43.5534C372.323 43.624 372.134 43.6588 372.059 43.6576C372.06 43.5823 371.909 43.6176 371.605 43.7636C371.529 43.8377 371.53 43.7248 371.61 43.4246C371.767 43.0503 371.846 42.7879 371.849 42.6372C371.85 42.5619 371.813 42.5237 371.737 42.5225C371.587 42.5202 371.282 42.7415 370.823 43.1864C370.365 43.556 370.06 43.7774 369.909 43.8503C369.832 43.9245 369.793 44.0369 369.79 44.1876C369.863 44.3394 369.899 44.4906 369.896 44.6413C369.893 44.8672 369.7 45.1279 369.319 45.4234C368.939 45.6436 368.672 45.8278 368.52 45.9761C368.215 46.1974 367.836 46.3422 367.383 46.4106C367.006 46.4047 366.627 46.5496 366.246 46.845C365.789 47.1393 365.56 47.3618 365.557 47.5125C365.63 47.6643 365.4 47.9244 364.867 48.2929C364.181 48.8097 363.227 49.586 362.006 50.6219C360.86 51.6589 359.979 52.5871 359.363 53.4063C357.905 55.1167 356.556 57.0923 355.316 59.3334C354.151 61.5757 353.559 63.3371 353.539 64.6176C353.524 65.5968 353.931 66.0928 354.759 66.1056C354.91 66.108 355.061 66.1103 355.211 66.1126C355.363 66.0396 355.553 65.9672 355.78 65.8954L358.744 64.246L359.423 64.1435L359.425 64.0306L359.872 64.3765C359.948 64.3024 359.912 64.1888 359.764 64.0358C359.692 63.8087 359.694 63.6957 359.769 63.6968C359.845 63.698 359.882 63.7363 359.881 63.8116C359.956 63.8127 360.031 63.8139 360.106 63.8151L360.338 63.4796C360.338 63.4796 360.45 63.519 360.675 63.5978C360.976 63.6025 361.203 63.5307 361.356 63.3824C361.583 63.3105 361.623 63.1981 361.475 63.0452C361.402 62.8933 361.29 62.7786 361.141 62.701L361.942 62.0353C362.02 61.8858 362.324 61.7398 362.853 61.5973C364.146 60.7886 365.216 59.8257 366.062 58.7086C366.985 57.5174 368.019 56.4409 369.164 55.4792L369.277 55.481L370.653 54.1461L370.546 53.8054L372.041 52.1333L372.267 52.1368C372.344 51.9873 372.498 51.8014 372.727 51.5789C373.032 51.3576 373.223 51.1722 373.301 51.0227C373.453 50.9497 373.798 50.5783 374.335 49.9086C374.95 49.1646 375.524 48.5708 376.058 48.127C376.668 47.6844 377.01 47.4637 377.086 47.4648C377.161 47.466 377.198 47.5042 377.197 47.5796C377.193 47.8055 377.075 48.1427 376.842 48.5912C376.684 49.0408 376.529 49.3398 376.376 49.4881C375.836 50.3085 375.144 51.2396 374.299 52.2813C373.455 53.2477 372.956 53.8427 372.802 54.0663C371.883 55.0316 370.77 56.3328 369.464 57.9702C368.159 59.5322 366.741 61.0924 365.21 62.6509C363.679 64.2094 362.152 65.5419 360.628 66.6485C359.18 67.6809 357.816 68.1872 356.536 68.1674C355.331 68.1487 354.056 67.7523 352.712 66.978C351.367 66.2038 350.712 64.7622 350.744 62.6531C350.755 61.9752 350.842 61.2231 351.005 60.3969C351.245 59.4965 351.599 58.5602 352.066 57.5879C352.066 57.5879 352.142 57.5138 352.295 57.3655C352.449 57.1418 352.564 57.0682 352.638 57.1447C352.792 56.9211 352.833 56.6957 352.761 56.4686C352.766 56.1673 352.769 55.9789 352.77 55.9036L352.999 55.6811C353.163 54.8549 353.74 54.1104 354.729 53.4476C355.719 52.7849 356.254 52.2658 356.336 51.8903C356.412 51.8161 356.451 51.7037 356.454 51.5531L356.928 50.0913L356.935 49.6393L357.387 49.6463L357.733 49.1996L357.85 48.9754C357.7 48.8977 357.74 48.7853 357.968 48.6382C358.273 48.4169 358.425 48.3062 358.425 48.3062C358.503 48.1567 358.58 48.0449 358.656 47.9707C358.808 47.8978 358.922 47.8242 358.999 47.75L359.79 47.7623C359.944 47.5386 359.87 47.4245 359.569 47.4198C359.268 47.4151 359.117 47.4128 359.117 47.4128C359.118 47.3375 359.119 47.2998 359.119 47.2998C359.195 47.2257 359.234 47.1509 359.235 47.0756L360.494 46.078C360.875 45.7825 361.256 45.5247 361.636 45.3045C362.016 45.0844 362.359 44.826 362.665 44.5294C362.891 44.5329 362.927 44.6464 362.773 44.8701C362.846 45.0219 362.921 45.023 362.999 44.8736C363.152 44.7252 363.228 44.6511 363.228 44.6511L363.795 44.5468L363.797 44.4339C363.799 44.2832 363.84 44.0578 363.92 43.7577C364 43.4576 364.041 43.2698 364.042 43.1945C365.642 42.0138 367.316 40.9849 369.062 40.1078C370.81 39.1554 372.512 38.692 374.169 38.7177C376.128 38.748 377.886 39.5286 379.445 41.0596L380.005 41.4073C380.08 41.4084 380.118 41.3714 380.119 41.296C380.286 40.2438 381.165 39.4663 382.755 38.9635C384.42 38.4619 385.893 38.221 387.173 38.2408C388.529 38.2618 389.204 38.4606 389.198 38.8372C389.196 38.9879 388.966 39.248 388.508 39.6176C388.28 39.7648 387.898 40.0979 387.363 40.617C386.827 41.1361 386.29 41.7682 385.751 42.5133C385.672 42.7381 385.556 42.9623 385.402 43.186C385.248 43.4096 385.093 43.6333 384.939 43.8569C384.862 44.0064 384.746 44.193 384.592 44.4166C384.514 44.5661 384.399 44.715 384.246 44.8633C382.931 47.0279 381.886 48.8576 381.109 50.3524C380.333 51.8473 379.399 53.754 378.308 56.0728C378.151 56.5224 378.071 56.7849 378.07 56.8602C378.061 57.4628 378.395 57.7693 379.073 57.7798C379.525 57.7868 379.979 57.6808 380.434 57.4618L381.571 57.0274C383.405 55.3982 385.309 54.0339 387.285 52.9343C387.36 52.9355 387.398 52.936 387.398 52.936C387.475 52.8619 387.55 52.8254 387.626 52.8266C387.852 52.83 388 52.983 388.071 53.2855C388.143 53.5126 388.064 53.6998 387.836 53.8469C385.633 55.0183 383.575 56.531 381.663 58.385C381.585 58.5344 381.508 58.6839 381.43 58.8334C381.352 58.9829 381.237 59.1318 381.084 59.2801C380.856 59.4273 380.626 59.6874 380.394 60.0605C380.162 60.4336 380.046 60.6579 380.045 60.7332C379.966 60.958 379.852 61.0316 379.702 60.9539C379.628 60.8774 379.4 60.9869 379.019 61.2824C378.942 61.3566 378.865 61.506 378.786 61.7308C378.782 61.9568 378.742 62.1445 378.664 62.294C378.51 62.5177 378.357 62.7037 378.204 62.852C378.052 62.925 377.975 62.9991 377.974 63.0744C377.894 63.3746 377.741 63.5606 377.513 63.6324C377.363 63.6301 377.211 63.703 377.058 63.8514C376.983 63.8502 376.944 63.8873 376.943 63.9626C376.933 64.6405 376.853 64.9407 376.703 64.863C376.554 64.7853 376.402 64.8583 376.248 65.082C376.093 65.3809 375.902 65.5287 375.676 65.5252C375.222 65.6688 375.032 65.7789 375.106 65.8554C375.255 65.9331 375.367 66.0101 375.441 66.0866C375.592 66.0889 375.477 66.2002 375.097 66.4203C374.945 66.4933 374.791 66.717 374.635 67.0913C374.479 67.3902 374.325 67.6139 374.172 67.7622C373.944 67.9093 373.716 68.0188 373.489 68.0906C373.262 68.1625 373.071 68.3102 372.917 68.5339C372.229 69.2013 371.658 69.5315 371.206 69.5245ZM386.737 69.7648C386.285 69.7578 386.063 69.4907 386.071 68.9634C386.077 68.5868 386.197 68.1366 386.431 67.6128C387.053 66.3416 387.759 64.5444 388.549 62.221C389.413 59.8987 390.461 57.9184 391.692 56.2799C392.082 55.4571 392.662 54.449 393.434 53.2555C394.282 51.9878 395.097 50.4935 395.877 48.7727L395.885 48.2078C395.889 47.9818 395.892 47.7935 395.894 47.6429C395.973 47.4181 396.052 47.1932 396.131 46.9684C396.441 46.3705 396.711 45.9603 396.941 45.7378C397.246 45.5165 397.553 45.1069 397.864 44.509C397.866 44.3583 397.869 44.2077 397.871 44.057C397.949 43.9075 398.026 43.758 398.104 43.6086C397.951 43.7569 397.915 43.6433 397.996 43.2679C397.845 43.2655 398.002 42.8912 398.466 42.145C398.777 41.4717 399.009 41.0986 399.161 41.0256L399.274 41.0274C399.582 40.5801 399.852 40.2075 400.082 39.9097C400.314 39.5366 400.393 39.3118 400.319 39.2353L400.322 39.0093C400.33 38.4821 400.489 37.9948 400.797 37.5475C401.181 37.1014 401.527 36.617 401.837 36.0944C402.067 35.7966 402.258 35.6489 402.409 35.6512C402.559 35.6535 402.634 35.6924 402.633 35.7677C402.708 35.7689 402.783 35.77 402.859 35.7712C403.085 35.7747 403.201 35.5881 403.206 35.2115C403.209 35.0609 403.174 34.872 403.102 34.6448C403.106 34.4189 403.072 34.1546 403.001 33.8522C403.083 33.4767 403.389 33.1801 403.919 32.9623L404.26 32.8545C404.661 31.2785 405.129 30.231 405.665 29.7119C405.818 29.5636 405.971 29.4153 406.124 29.2669C406.277 29.1186 406.43 28.9703 406.583 28.822C407.502 27.8568 408.196 26.8127 408.665 25.6898C408.821 25.3909 409.013 25.1678 409.241 25.0207C409.546 24.7993 409.813 24.5398 410.044 24.242C410.198 24.0183 410.239 23.793 410.167 23.5658C410.172 23.2645 410.214 23.0015 410.293 22.7767C410.679 22.1799 410.947 21.845 411.099 21.772C411.251 21.699 411.403 21.626 411.555 21.553C411.783 21.4059 412.165 21.0728 412.7 20.5536C412.932 20.1805 413.164 19.8074 413.396 19.4343C413.703 19.0623 414.01 18.6904 414.317 18.3184C414.777 17.7981 415.273 17.4291 415.803 17.2113C416.334 16.9934 416.867 16.6626 417.401 16.2189C417.554 16.0705 417.633 15.8457 417.637 15.5444C417.643 15.1678 417.723 14.9053 417.876 14.757C420.545 12.6887 423.397 10.9623 426.432 9.57779C429.542 8.19442 431.926 7.51555 433.583 7.54119C434.186 7.55052 434.75 7.59692 435.276 7.6804C435.878 7.76505 436.441 7.88678 436.966 8.04559L437.192 8.04909C437.568 8.05492 437.944 8.13607 438.318 8.29254C438.692 8.44902 439.029 8.60492 439.328 8.76022C439.629 8.76489 440.005 8.84604 440.454 9.00368C440.829 9.16016 441.051 9.38963 441.122 9.69209C441.192 9.99456 441.114 10.2194 440.885 10.3665C440.809 10.4407 440.696 10.4389 440.546 10.3613C440.397 10.2836 440.247 10.2436 440.096 10.2413C439.946 10.239 439.796 10.1613 439.648 10.0083C439.499 9.85534 439.351 9.74002 439.201 9.66237C438.9 9.65771 438.56 9.69012 438.182 9.75962C437.88 9.83028 437.54 9.8627 437.164 9.85687L436.825 9.85162C436.298 9.84347 435.922 9.76231 435.698 9.60817C435.551 9.37986 435.175 9.33638 434.57 9.4777C434.495 9.47654 434.268 9.5107 433.891 9.5802C433.513 9.64969 433.249 9.68327 433.098 9.68094C430.376 10.3169 427.986 11.4101 425.927 12.9604C423.87 14.4354 422.036 16.1022 420.425 17.9609C418.89 19.8207 417.393 21.6057 415.935 23.316C415.236 24.6614 414.541 25.7431 413.851 26.5612C413.774 26.6353 413.699 26.5965 413.626 26.4447C413.553 26.2929 413.478 26.2917 413.4 26.4412C413.171 26.6637 412.977 27.0374 412.818 27.5623C412.736 28.0131 412.579 28.3874 412.348 28.6852C412.272 28.7593 412.197 28.7205 412.124 28.5687C412.051 28.4169 411.938 28.4151 411.785 28.5634C411.709 28.6376 411.591 28.9372 411.432 29.4621C411.35 29.9129 411.232 30.2124 411.079 30.3607C410.157 31.5519 409.16 32.7043 408.088 33.8179C407.016 34.9314 405.941 36.2333 404.863 37.7234C403.32 40.0352 401.853 42.3104 400.463 44.5492C399.072 46.7879 397.602 49.2515 396.054 51.9398C395.512 52.8356 395.085 53.6577 394.772 54.4063C394.536 55.0807 394.262 55.7169 393.952 56.3148C393.798 56.5385 393.718 56.8386 393.712 57.2152C393.704 57.7425 394.001 58.0108 394.603 58.0201C395.055 58.0271 395.509 57.9211 395.965 57.7022L397.101 57.2677C398.935 55.6385 400.84 54.2742 402.815 53.1746C402.891 53.1758 402.928 53.1764 402.928 53.1764C403.005 53.1022 403.081 53.0657 403.156 53.0669C403.382 53.0704 403.53 53.2233 403.601 53.5258C403.673 53.7529 403.595 53.9401 403.366 54.0872C401.163 55.2586 399.106 56.7713 397.193 58.6253C397.116 58.7748 397.038 58.9242 396.96 59.0737C396.883 59.2232 396.767 59.3721 396.615 59.5204C396.462 59.6687 396.231 59.9289 395.924 60.3008C395.693 60.674 395.576 60.8982 395.575 60.9735C395.496 61.1983 395.382 61.2719 395.232 61.1942C395.158 61.1178 394.931 61.2272 394.549 61.5227C394.473 61.5969 394.395 61.7464 394.316 61.9712C394.313 62.1971 394.272 62.3849 394.195 62.5343C394.116 62.7592 393.962 62.9451 393.734 63.0923C393.582 63.1653 393.506 63.2394 393.504 63.3148C393.424 63.6149 393.271 63.8009 393.044 63.8727C392.893 63.8704 392.741 63.9434 392.588 64.0917C392.512 64.1658 392.51 64.2788 392.583 64.4306C392.656 64.5825 392.616 64.7325 392.463 64.8808C392.384 65.1056 392.307 65.2175 392.232 65.2163C392.158 65.1398 392.044 65.1757 391.891 65.324C391.585 65.6207 391.357 65.7678 391.206 65.7655C390.752 65.9092 390.562 66.0192 390.636 66.0957C390.786 66.1734 390.897 66.2504 390.972 66.3269C391.122 66.3293 391.007 66.4405 390.627 66.6606C390.476 66.7336 390.321 66.9573 390.165 67.3316C390.01 67.6305 389.855 67.8542 389.702 68.0025C389.474 68.1497 389.246 68.2591 389.019 68.331C388.867 68.404 388.677 68.5517 388.447 68.7742C387.759 69.4416 387.189 69.7718 386.737 69.7648Z" fill="white"/>
</svg>
